<svg height="512" width="512" xmlns="http://www.w3.org/2000/svg"><path d="M487.428 385.246c-.352-.52-.715-1.03-1.091-1.531-7.129-9.527-18.501-15.704-31.288-15.704h-58.813v-12.204h64.812V254.965l-17.836-13.694V106.31h-9.03V68.599h-36.028v37.711h-80.56L244.04 229.402v73.661h-24.909v21.46h-5.9l13.546-146.446c.104-1.116.128-2.23.093-3.34a27.076 27.076 0 00-.321-5.037 27.208 27.208 0 00-11.926-18.412L100.971 76.775a27.087 27.087 0 00-3.87-4.184 27.21 27.21 0 00-20.944-6.545A27.225 27.225 0 0057.21 77.112a27.222 27.222 0 00-4.588 21.458l19.67 94.54-54.397 51.438 50.218 42.335 4.605 35.407 23.934-3.113 72.345-60.86-3.265-25.104-.063.007-2.456-17.388-11.882 1.678 2.412 17.078-44.326 5.087-2.416-117.003 66.452 63.762 13.022 140.791c-4.152 2.822-6.887 7.583-6.887 12.971 0 8.642 7.031 15.673 15.673 15.673h42.779v-.062h52.976v12.204h-59.517c-12.787 0-24.159 6.177-31.288 15.704a39.006 39.006 0 00-5.397 9.938 38.889 38.889 0 00-2.374 13.416c0 4.711.839 9.229 2.374 13.415a39.03 39.03 0 005.397 9.938c7.129 9.526 18.501 15.704 31.288 15.704H455.05c12.787 0 24.159-6.178 31.288-15.704a39.048 39.048 0 004.695-8.166 38.843 38.843 0 003.074-15.188 38.844 38.844 0 00-6.679-21.822zm-32.38 48.881c-14.92 0-27.058-12.138-27.058-27.058s12.138-27.059 27.058-27.059c9.792 0 18.385 5.228 23.136 13.038a26.905 26.905 0 013.923 14.021c0 5.128-1.435 9.929-3.923 14.02-4.751 7.81-13.344 13.038-23.136 13.038zm-246.686-13.038a26.902 26.902 0 01-3.923-14.02c0-5.129 1.435-9.929 3.923-14.021 4.751-7.811 13.345-13.038 23.136-13.038 14.92 0 27.059 12.139 27.059 27.059s-12.139 27.058-27.059 27.058c-9.791 0-18.385-5.228-23.136-13.038zm60.962-23.773h7.584a21.347 21.347 0 00-2.241 9.499c0 3.412.82 6.629 2.241 9.498h-7.467a38.982 38.982 0 001.115-9.244 38.934 38.934 0 00-1.232-9.753zm147.781 18.997h-8.08a21.332 21.332 0 002.24-9.498c0-3.413-.819-6.63-2.24-9.499h8.197a38.974 38.974 0 00-1.232 9.753c0 3.185.392 6.279 1.115 9.244zm-17.839-9.498c0 5.237-4.26 9.498-9.497 9.498s-9.499-4.261-9.499-9.498 4.262-9.499 9.499-9.499 9.497 4.262 9.497 9.499zm-28.755 9.498h-7.979a21.345 21.345 0 002.24-9.498c0-3.413-.82-6.63-2.241-9.499h7.981a21.32 21.32 0 00-2.242 9.499c0 3.413.82 6.629 2.241 9.498zm-17.74-9.498c0 5.237-4.261 9.498-9.498 9.498s-9.499-4.261-9.499-9.498 4.262-9.499 9.499-9.499 9.498 4.262 9.498 9.499zm-28.755 9.498h-8.593a21.333 21.333 0 002.241-9.498c0-3.413-.82-6.63-2.242-9.499h8.594a21.347 21.347 0 00-2.241 9.499 21.316 21.316 0 002.241 9.498zm-18.352-9.498c0 5.237-4.261 9.498-9.498 9.498s-9.499-4.261-9.499-9.498 4.262-9.499 9.499-9.499 9.498 4.262 9.498 9.499zm-41.416 21.498h158.051a39.303 39.303 0 004.622 5.813H259.625a39.258 39.258 0 004.623-5.813zm184.8-167.431v82.925h-5.836v-87.406l5.836 4.481zM422.182 80.599v8.116h-12.028v-8.116h12.028zm-12.029 20.116h12.028v5.595h-12.028v-5.595zm-225.526 76.256c-.398-4.299.985-8.424 3.895-11.614 2.908-3.19 6.888-4.947 11.205-4.947s8.297 1.757 11.206 4.947a14.964 14.964 0 013.933 9.562c-.176 3.088-1.291 6.035-3.278 8.529a15.097 15.097 0 01-11.869 5.722 15.085 15.085 0 01-10.487-4.225l-4.242-4.071-.363-3.903zm15.091 24.198c4.698 0 9.212-1.191 13.186-3.398l-11.725 126.751h-2.903L186.55 197.757a27.014 27.014 0 0013.168 3.412zM66.931 84.148c2.531-3.497 6.287-5.691 10.577-6.178a15.624 15.624 0 011.761-.101c3.654 0 7.129 1.303 9.932 3.754 3.25 2.843 5.088 6.785 5.178 11.102l3.06 148.148-2.886.327L64.37 96.127c-.88-4.227.029-8.481 2.561-11.979zm24.685 223.584l-8.548 1.111-6.928-53.271 79.215-9.09.895 6.875-64.634 54.375zM62.67 245.04l3.149 24.217-29.917-25.222 39.26-37.123 7.456 35.839-19.948 2.289zm43.751-150.343l84.295 55.266a27.192 27.192 0 00-11.062 7.31 27.194 27.194 0 00-6.42 12.324l-66.586-63.891-.227-11.009zm85.166 245.498a3.677 3.677 0 013.673-3.673h23.871v7.346H195.26a3.676 3.676 0 01-3.673-3.673zm52.453 3.612h-6.001v-19.284h-6.908v-9.46h12.909v28.744zm12 0v-7.346h31.393v-12H256.04v-91.746l68.362-114.404h106.81v206.151H302.227v12h128.985v7.346H256.04zm46.975 12h81.222v12.204h-81.222v-12.204zm93.221 24.204h30.685a39.312 39.312 0 00-4.296 5.306H263.922a39.32 39.32 0 00-4.297-5.306h136.611z"/><path d="M455.048 389.514c-9.681 0-17.556 7.875-17.556 17.556s7.875 17.556 17.556 17.556 17.556-7.875 17.556-17.556-7.875-17.556-17.556-17.556zm0 23.111c-3.063 0-5.556-2.492-5.556-5.556s2.493-5.556 5.556-5.556 5.556 2.492 5.556 5.556-2.493 5.556-5.556 5.556zM231.5 389.514c-9.681 0-17.556 7.875-17.556 17.556s7.875 17.556 17.556 17.556c9.68 0 17.556-7.875 17.556-17.556s-7.876-17.556-17.556-17.556zm0 23.111c-3.063 0-5.556-2.492-5.556-5.556s2.492-5.556 5.556-5.556 5.556 2.492 5.556 5.556-2.493 5.556-5.556 5.556zm134.432-135.307h47.818V244.07h-47.818v33.248zm12-21.247h23.818v9.248h-23.818v-9.248zm35.818-128.517h-81.295l-64.633 109.529H413.75V127.554zm-74.442 12h15.931v85.529h-66.401l50.47-85.529zm62.442 85.529h-34.512v-85.529h34.512v85.529z"/></svg>