<?xml version="1.0" standalone="no"?>
<!DOCTYPE svg PUBLIC "-//W3C//DTD SVG 20010904//EN"
 "http://www.w3.org/TR/2001/REC-SVG-20010904/DTD/svg10.dtd">
<svg version="1.0" xmlns="http://www.w3.org/2000/svg"
 width="512.000000pt" height="512.000000pt" viewBox="0 0 512.000000 512.000000"
 preserveAspectRatio="xMidYMid meet">
<metadata>
Created by potrace 1.16, written by Peter Selinger 2001-2019
</metadata>
<g transform="translate(0.000000,512.000000) scale(0.100000,-0.100000)"
fill="#000000" stroke="none">
<path d="M2425 5105 c-238 -52 -434 -207 -546 -430 -94 -188 -89 -101 -89
-1557 0 -808 -4 -1268 -10 -1268 -5 0 -51 25 -102 56 -215 130 -302 159 -453
151 -123 -7 -196 -33 -360 -128 -160 -93 -199 -109 -264 -109 -71 0 -110 15
-226 85 -59 36 -112 65 -118 65 -12 0 -157 -237 -157 -256 0 -16 231 -148 305
-173 92 -32 233 -39 328 -17 75 18 128 43 307 145 190 109 246 108 443 -10
217 -130 298 -156 460 -147 119 7 188 33 366 137 205 120 273 128 412 48 41
-24 114 -66 162 -94 108 -63 213 -93 323 -93 144 0 205 22 444 159 190 109
246 108 443 -10 148 -89 225 -124 305 -139 91 -18 231 -8 313 22 76 28 298
154 305 173 4 9 -110 219 -142 264 -2 2 -59 -29 -127 -68 -135 -78 -169 -91
-238 -91 -66 0 -97 13 -254 106 -77 45 -169 92 -205 104 -89 30 -225 37 -313
16 -38 -9 -70 -16 -73 -16 -2 0 -4 525 -4 1168 0 1302 -3 1240 70 1363 50 85
136 163 226 206 81 39 175 53 352 53 l112 0 0 151 0 151 -212 -4 c-241 -5
-289 -15 -428 -90 -189 -101 -324 -262 -392 -468 -30 -90 -31 -104 -36 -292
l-4 -198 -624 0 -624 0 0 139 c0 166 10 224 54 316 41 86 97 151 177 204 97
65 167 82 362 88 l167 6 0 148 0 149 -187 -1 c-116 0 -211 -6 -248 -14z m925
-1725 l0 -380 -625 0 -625 0 0 380 0 380 625 0 625 0 0 -380z m0 -1109 l0
-419 -47 -16 c-53 -18 -121 -20 -175 -6 -20 6 -85 40 -145 77 -210 128 -310
160 -462 150 -117 -8 -202 -39 -368 -137 l-53 -30 0 400 0 400 625 0 625 0 0
-419z"/>
<path d="M1103 1285 c-79 -21 -112 -38 -254 -121 -152 -89 -203 -108 -277
-100 -58 7 -115 33 -234 107 -43 27 -80 49 -82 49 -11 0 -157 -254 -152 -265
6 -16 205 -133 276 -162 89 -36 204 -49 300 -34 103 16 171 43 317 129 154 92
179 102 251 102 79 0 113 -14 265 -104 147 -88 202 -111 306 -127 150 -23 267
6 451 112 187 108 215 119 290 119 76 0 98 -9 264 -109 141 -84 202 -108 308
-123 60 -9 98 -8 158 1 103 16 171 43 317 129 154 92 179 102 251 102 80 0
105 -10 267 -106 176 -103 251 -128 390 -128 74 0 118 5 170 21 70 22 326 161
333 181 4 13 -139 262 -151 262 -5 0 -46 -22 -93 -50 -130 -77 -177 -98 -230
-105 -72 -10 -124 8 -254 84 -232 138 -287 156 -455 148 -139 -6 -188 -23
-368 -128 -161 -95 -210 -113 -285 -105 -61 7 -91 21 -252 117 -150 89 -209
110 -335 116 -170 9 -230 -11 -494 -161 -179 -102 -228 -101 -421 13 -155 92
-205 117 -277 135 -75 20 -229 20 -300 1z"/>
<path d="M1153 540 c-80 -15 -150 -45 -284 -122 -172 -99 -194 -108 -265 -108
-79 0 -116 14 -241 89 -57 34 -107 60 -111 57 -12 -7 -152 -242 -152 -254 0
-11 164 -111 252 -152 87 -42 156 -53 278 -48 133 7 191 27 376 135 154 90
205 108 278 98 57 -7 88 -22 246 -116 154 -92 209 -110 345 -116 167 -8 230
13 484 161 171 100 236 98 416 -11 227 -136 295 -158 465 -151 133 7 191 27
376 135 154 90 205 108 278 98 57 -7 88 -22 246 -116 152 -91 209 -110 340
-116 123 -6 190 5 281 48 92 43 259 142 259 154 0 11 -127 235 -144 252 -8 9
-37 -4 -121 -54 -150 -89 -170 -96 -258 -91 -67 3 -81 8 -158 53 -204 119
-238 137 -304 157 -52 17 -95 22 -170 22 -126 0 -203 -22 -340 -100 -225 -127
-241 -134 -309 -134 -83 0 -116 13 -269 104 -151 90 -205 112 -314 127 -63 9
-100 9 -160 0 -103 -17 -165 -43 -320 -133 -154 -91 -185 -101 -272 -96 -60 3
-78 9 -152 53 -201 118 -237 137 -298 155 -75 24 -205 33 -278 20z"/>
</g>
</svg>
