<?xml version="1.0" encoding="utf-8"?>
<!-- Generator: Adobe Illustrator 16.0.3, SVG Export Plug-In . SVG Version: 6.00 Build 0)  -->
<!DOCTYPE svg PUBLIC "-//W3C//DTD SVG 1.1//EN" "http://www.w3.org/Graphics/SVG/1.1/DTD/svg11.dtd">
<svg version="1.1" xmlns="http://www.w3.org/2000/svg" xmlns:xlink="http://www.w3.org/1999/xlink" x="0px" y="0px"
	 width="1417.32px" height="1417.32px" viewBox="0 0 1417.32 1417.32" enable-background="new 0 0 1417.32 1417.32"
	 xml:space="preserve">
<g id="Capa_1">
</g>
<g id="Capa_2" display="none">
	<g display="inline">
		<path fill-rule="evenodd" clip-rule="evenodd" fill="#FFFFFF" d="M731.617,158.195c173.977,0,347.955,0,521.934,0
			c0,369.345,0,738.692,0,1108.037c-365.068,0-730.136,0-1095.204,0c0-369.345,0-738.692,0-1108.037c175.403,0,350.807,0,526.21,0
			c-1.646,0.626-3.242,1.556-4.945,1.837C588.781,175,530.177,227.525,503.805,314.755c-14.98,49.548-11.46,101.48-6.087,151.787
			c15.67,146.702,176.184,231.84,306.559,163.543c65.768-34.453,105.35-89.408,113.229-164.042
			c3.352-31.728,1.896-63.984,2.246-96.004c0.463-42.583-13.031-81.451-35.541-116.678c-26.547-41.544-64.332-69.916-111.529-84.907
			C759.261,164.191,745.32,161.569,731.617,158.195z M708.76,1185.688c-0.82-0.007-1.64-0.015-2.46-0.021
			c-10.837-44.121-21.557-88.271-32.535-132.356c-26.943-108.201-53.982-216.38-81.042-324.553
			c-4.083-16.32-9.772-19.312-25.353-13.385c-63.098,24.005-126.22,47.947-189.213,72.222
			c-29.639,11.419-43.649,32.36-43.658,63.974c-0.033,129.736-0.019,259.471-0.008,389.206c0.001,19.368,3.9,23.307,22.906,23.307
			c232.026,0.003,464.053,0.003,696.079,0c18.529,0,22.195-3.717,22.195-22.593c0.01-128.31-0.451-256.621,0.35-384.926
			c0.188-29.83-12.889-48.938-38.77-60.092c-63.943-27.558-128.16-54.484-192.311-81.564c-13.168-5.56-20.172-1.898-23.541,11.855
			c-13.182,53.794-26.352,107.591-39.494,161.396c-18.961,77.611-37.863,155.239-56.865,232.842
			C719.75,1142.596,714.193,1164.126,708.76,1185.688z M708.523,695.424c-0.007,0.171-0.013,0.344-0.019,0.516
			c-8.91,0-17.841-0.398-26.726,0.07c-35.621,1.875-52.095,34.228-32.672,63.875c3.511,5.359,8.299,10.268,10.322,16.136
			c3.984,11.555,9.246,23.702,8.956,35.482c-0.631,25.554-4.582,51.015-6.828,76.546c-0.709,8.057-2.381,16.87-0.047,24.202
			c7.426,23.325,16.457,46.145,25.027,69.099c3.526,9.446,10.833,13.662,20.715,13.869c10.426,0.219,18.088-4.344,21.771-14.02
			c8.718-22.905,17.095-45.946,25.296-69.044c1.133-3.193,0.957-7.073,0.576-10.547c-2.35-21.569-3.846-43.311-7.704-64.618
			c-4.965-27.411-2.529-52.346,16.718-73.967c2.576-2.894,4.615-6.347,6.477-9.774c12.659-23.326-1.473-52.42-27.77-56.132
			C731.394,695.535,719.895,695.929,708.523,695.424z"/>
		<path fill-rule="evenodd" clip-rule="evenodd" d="M731.617,158.195c13.703,3.374,27.644,5.996,41.064,10.259
			c47.197,14.991,84.982,43.363,111.529,84.907c22.51,35.228,36.004,74.095,35.541,116.678c-0.35,32.021,1.105,64.277-2.246,96.004
			c-7.879,74.634-47.461,129.589-113.229,164.042c-130.375,68.296-290.889-16.841-306.559-163.543
			c-5.374-50.307-8.894-102.239,6.087-151.787c26.372-87.23,84.976-139.754,175.808-154.723c1.703-0.281,3.299-1.21,4.945-1.837
			C700.244,158.195,715.932,158.195,731.617,158.195z"/>
		<path fill-rule="evenodd" clip-rule="evenodd" d="M708.76,1185.688c5.433-21.562,10.99-43.092,16.279-64.688
			c19.002-77.603,37.904-155.23,56.865-232.842c13.143-53.805,26.313-107.602,39.494-161.396
			c3.369-13.754,10.373-17.415,23.541-11.855c64.15,27.08,128.367,54.007,192.311,81.564c25.881,11.153,38.957,30.262,38.77,60.092
			c-0.801,128.305-0.34,256.616-0.35,384.926c0,18.876-3.666,22.593-22.195,22.593c-232.025,0.003-464.052,0.003-696.079,0
			c-19.006,0-22.904-3.938-22.906-23.307c-0.011-129.735-0.024-259.47,0.008-389.206c0.008-31.613,14.019-52.555,43.658-63.974
			c62.994-24.274,126.116-48.217,189.213-72.222c15.581-5.927,21.271-2.936,25.353,13.385
			c27.061,108.173,54.1,216.352,81.042,324.553c10.979,44.086,21.698,88.235,32.535,132.356
			C707.121,1185.673,707.94,1185.681,708.76,1185.688z"/>
		<path fill-rule="evenodd" clip-rule="evenodd" d="M708.523,695.424c11.371,0.504,22.87,0.111,34.09,1.694
			c26.297,3.711,40.429,32.806,27.77,56.132c-1.861,3.428-3.9,6.881-6.477,9.774c-19.247,21.621-21.683,46.556-16.718,73.967
			c3.858,21.308,5.354,43.049,7.704,64.618c0.381,3.474,0.557,7.354-0.576,10.547c-8.201,23.098-16.578,46.139-25.296,69.044
			c-3.683,9.676-11.345,14.238-21.771,14.02c-9.882-0.207-17.189-4.423-20.715-13.869c-8.57-22.954-17.601-45.773-25.027-69.099
			c-2.334-7.332-0.662-16.146,0.047-24.202c2.247-25.531,6.197-50.992,6.828-76.546c0.291-11.78-4.971-23.928-8.956-35.482
			c-2.023-5.868-6.812-10.776-10.322-16.136c-19.423-29.647-2.948-62,32.672-63.875c8.885-0.468,17.816-0.07,26.726-0.07
			C708.51,695.768,708.517,695.596,708.523,695.424z"/>
	</g>
</g>
<g id="Capa_3">
	<g>
		<path fill-rule="evenodd" clip-rule="evenodd" fill="#FFFFFF" d="M70.655,98.925c415.822,0,831.646,0,1247.469,0
			c0,415.822,0,831.646,0,1247.469c-415.822,0-831.646,0-1247.469,0C70.655,930.571,70.655,514.747,70.655,98.925z M368.608,764.023
			c0,86.603,0,174.06,0,262.698c7.128,0,13.542,0.25,19.931-0.042c25.559-1.174,49.886,4.057,73.585,13.298
			c52.793,20.587,106.195,39.72,158.358,61.788c56.325,23.829,113.18,28.947,170.426,7.741
			c104.31-38.641,208.252-78.335,311.637-119.384c35.215-13.982,68.711-32.578,102.179-50.577
			c19.277-10.368,27.113-31.208,22.653-50.833c-4.049-17.818-19.061-30.989-40.279-33.686c-8.713-1.106-18.185-1.313-26.549,0.924
			c-18.69,4.995-37.021,11.44-55.286,17.896c-80.499,28.448-160.879,57.232-241.437,85.511c-8.587,3.014-18.048,4.909-27.117,4.964
			c-77.142,0.461-154.286,0.385-231.43,0.425c-4.047,0.002-9.124,1.023-11.905-0.967c-4.453-3.185-10.525-8.787-10.153-12.838
			c0.455-4.925,6.248-10.176,10.964-13.578c2.718-1.962,7.87-0.645,11.925-0.646c69.431-0.02,138.862,0.149,208.292-0.096
			c29.599-0.105,52.139-22.258,51.931-50.065c-0.208-27.967-22.658-49.235-52.413-49.313c-39.384-0.104-78.771-0.223-118.153,0.13
			c-30.273,0.27-58.467-6.891-85.127-21.1c-24.657-13.141-49.291-26.393-74.511-38.386c-12.644-6.013-26.434-12.692-39.941-13.24
			C454.127,762.942,411.953,764.023,368.608,764.023z M1204.052,502.616c-25.63-30.332-50.975-59.876-75.711-89.921
			c-6.243-7.582-12.734-10.645-22.663-10.613c-107.173,0.35-214.348,0.134-321.52,0.379c-8.414,0.019-13.879-2.163-19.368-9.075
			c-29.912-37.671-69.267-59.712-116.96-64.875c-113.997-12.339-207.029,85.809-189.957,199.571
			c10.124,67.464,60.908,123.866,126.781,140.806c68.31,17.565,141.121-6.529,181.833-62.874
			c11.546-15.979,25.626-26.066,41.888-35.188c6.372-3.576,11.149-4.117,17.623-0.183c14.531,8.836,29.414,17.166,44.621,24.769
			c3.864,1.934,10.316,2.05,14.135,0.127c15.542-7.825,30.294-17.224,45.865-24.984c4.088-2.037,10.913-1.969,15.038,0.062
			c14.882,7.33,29.396,15.507,43.541,24.191c6.874,4.22,12.196,3.903,18.861-0.159c13.141-8.009,27.025-14.805,40.075-22.95
			c7.405-4.623,13.198-4.942,20.878-0.237c16.163,9.905,33.037,18.652,50.252,28.226
			C1147.778,567.044,1175.748,535.021,1204.052,502.616z M338.653,894.597c0-49.525,0.021-99.051-0.008-148.576
			c-0.019-30.548-18.574-49.615-48.824-49.852c-26.385-0.207-52.773-0.215-79.158,0.002c-29.524,0.245-48.754,19.291-49.283,48.686
			c-0.263,14.609-0.053,29.228-0.053,43.842c0,84.435-0.07,168.872,0.039,253.308c0.042,31.991,18.921,50.807,50.581,50.863
			c25.98,0.047,51.961,0.077,77.942-0.008c29.92-0.099,48.721-18.79,48.75-48.472C338.688,994.459,338.653,944.527,338.653,894.597z
			"/>
		<path fill-rule="evenodd" clip-rule="evenodd" d="M368.608,764.023c43.345,0,85.519-1.081,127.58,0.624
			c13.507,0.548,27.297,7.228,39.941,13.24c25.22,11.993,49.854,25.245,74.511,38.386c26.661,14.209,54.854,21.369,85.127,21.1
			c39.382-0.353,78.769-0.234,118.153-0.13c29.755,0.078,52.205,21.347,52.413,49.313c0.208,27.808-22.332,49.96-51.931,50.065
			c-69.43,0.245-138.861,0.076-208.292,0.096c-4.056,0.001-9.207-1.316-11.925,0.646c-4.716,3.402-10.51,8.653-10.964,13.578
			c-0.373,4.051,5.7,9.653,10.153,12.838c2.781,1.99,7.858,0.969,11.905,0.967c77.144-0.04,154.288,0.036,231.43-0.425
			c9.069-0.055,18.53-1.95,27.117-4.964c80.558-28.278,160.938-57.063,241.437-85.511c18.266-6.455,36.596-12.9,55.286-17.896
			c8.364-2.236,17.836-2.03,26.549-0.924c21.219,2.696,36.23,15.867,40.279,33.686c4.46,19.625-3.376,40.465-22.653,50.833
			c-33.468,17.999-66.964,36.595-102.179,50.577c-103.385,41.049-207.327,80.743-311.637,119.384
			c-57.246,21.206-114.101,16.088-170.426-7.741c-52.163-22.068-105.565-41.201-158.358-61.788
			c-23.7-9.241-48.026-14.472-73.585-13.298c-6.389,0.292-12.802,0.042-19.931,0.042
			C368.608,938.083,368.608,850.626,368.608,764.023z"/>
		<path fill-rule="evenodd" clip-rule="evenodd" d="M1204.052,502.616c-28.304,32.404-56.273,64.428-84.787,97.073
			c-17.215-9.574-34.089-18.321-50.252-28.226c-7.68-4.705-13.473-4.386-20.878,0.237c-13.05,8.145-26.935,14.941-40.075,22.95
			c-6.665,4.062-11.987,4.378-18.861,0.159c-14.146-8.684-28.659-16.861-43.541-24.191c-4.125-2.031-10.95-2.099-15.038-0.062
			c-15.571,7.76-30.323,17.16-45.865,24.984c-3.818,1.922-10.271,1.806-14.135-0.127c-15.207-7.603-30.09-15.933-44.621-24.769
			c-6.474-3.934-11.251-3.393-17.623,0.183c-16.262,9.123-30.342,19.209-41.888,35.188
			c-40.713,56.344-113.523,80.439-181.833,62.874c-65.873-16.94-116.657-73.341-126.781-140.806
			c-17.072-113.762,75.96-211.911,189.957-199.571c47.693,5.164,87.048,27.205,116.96,64.875c5.489,6.912,10.954,9.094,19.368,9.075
			c107.172-0.245,214.347-0.03,321.52-0.379c9.929-0.032,16.42,3.031,22.663,10.613
			C1153.077,442.74,1178.422,472.284,1204.052,502.616z M622.233,572.052c40.816-0.06,73.216-32.179,73.669-73.033
			c0.452-40.818-32.752-73.952-74.054-73.899c-40.665,0.054-73.496,32.607-73.681,73.057
			C547.98,539.214,580.963,572.11,622.233,572.052z"/>
		<path fill-rule="evenodd" clip-rule="evenodd" d="M338.653,894.597c0,49.931,0.036,99.862-0.014,149.793
			c-0.03,29.682-18.83,48.373-48.75,48.472c-25.98,0.085-51.962,0.055-77.942,0.008c-31.66-0.057-50.539-18.872-50.581-50.863
			c-0.109-84.436-0.039-168.873-0.039-253.308c0-14.614-0.209-29.232,0.053-43.842c0.528-29.395,19.758-48.44,49.283-48.686
			c26.385-0.218,52.773-0.209,79.158-0.002c30.25,0.237,48.805,19.304,48.824,49.852
			C338.674,795.546,338.653,845.071,338.653,894.597z"/>
		<path fill-rule="evenodd" clip-rule="evenodd" fill="#FFFFFF" d="M622.233,572.052c-41.27,0.058-74.253-32.837-74.065-73.875
			c0.185-40.45,33.016-73.003,73.681-73.057c41.302-0.052,74.506,33.082,74.054,73.899
			C695.45,539.873,663.05,571.992,622.233,572.052z M577.218,498.957c0.119,24.729,20.008,44.862,44.566,45.113
			c24.613,0.252,45.75-20.95,45.596-45.737c-0.152-24.429-20.488-44.757-44.996-44.983
			C597.357,453.118,577.097,473.577,577.218,498.957z"/>
		<path fill-rule="evenodd" clip-rule="evenodd" d="M577.218,498.957c-0.122-25.379,20.139-45.838,45.166-45.607
			c24.508,0.226,44.844,20.554,44.996,44.983c0.155,24.787-20.982,45.989-45.596,45.737
			C597.226,543.818,577.337,523.686,577.218,498.957z"/>
	</g>
</g>
</svg>
