<?xml version="1.0" encoding="utf-8"?>
<!-- Generator: Adobe Illustrator 16.0.3, SVG Export Plug-In . SVG Version: 6.00 Build 0)  -->
<!DOCTYPE svg PUBLIC "-//W3C//DTD SVG 1.1//EN" "http://www.w3.org/Graphics/SVG/1.1/DTD/svg11.dtd">
<svg version="1.1" xmlns="http://www.w3.org/2000/svg" xmlns:xlink="http://www.w3.org/1999/xlink" x="0px" y="0px"
	 width="1417.32px" height="1417.32px" viewBox="0 0 1417.32 1417.32" enable-background="new 0 0 1417.32 1417.32"
	 xml:space="preserve">
<g id="Capa_1">
</g>
<g id="Capa_2">
	<g>
		<path fill-rule="evenodd" clip-rule="evenodd" fill="#FFFFFF" d="M731.617,158.195c173.977,0,347.955,0,521.934,0
			c0,369.345,0,738.692,0,1108.037c-365.068,0-730.136,0-1095.204,0c0-369.345,0-738.692,0-1108.037c175.403,0,350.807,0,526.21,0
			c-1.646,0.626-3.242,1.556-4.945,1.837C588.781,175,530.177,227.525,503.805,314.755c-14.98,49.548-11.46,101.48-6.087,151.787
			c15.67,146.702,176.184,231.84,306.559,163.543c65.768-34.453,105.35-89.408,113.229-164.042
			c3.352-31.728,1.896-63.984,2.246-96.004c0.463-42.583-13.031-81.451-35.541-116.678c-26.547-41.544-64.332-69.916-111.529-84.907
			C759.261,164.191,745.32,161.569,731.617,158.195z M708.76,1185.688c-0.82-0.007-1.64-0.015-2.46-0.021
			c-10.837-44.121-21.557-88.271-32.535-132.356c-26.943-108.201-53.982-216.38-81.042-324.553
			c-4.083-16.32-9.772-19.312-25.353-13.385c-63.098,24.005-126.22,47.947-189.213,72.222
			c-29.639,11.419-43.649,32.36-43.658,63.974c-0.033,129.736-0.019,259.471-0.008,389.206c0.001,19.368,3.9,23.307,22.906,23.307
			c232.026,0.003,464.053,0.003,696.079,0c18.529,0,22.195-3.717,22.195-22.593c0.01-128.31-0.451-256.621,0.35-384.926
			c0.188-29.83-12.889-48.938-38.77-60.092c-63.943-27.558-128.16-54.484-192.311-81.564c-13.168-5.56-20.172-1.898-23.541,11.855
			c-13.182,53.794-26.352,107.591-39.494,161.396c-18.961,77.611-37.863,155.239-56.865,232.842
			C719.75,1142.596,714.193,1164.126,708.76,1185.688z M708.523,695.424c-0.007,0.171-0.013,0.344-0.019,0.516
			c-8.91,0-17.841-0.398-26.726,0.07c-35.621,1.875-52.095,34.228-32.672,63.875c3.511,5.359,8.299,10.268,10.322,16.136
			c3.984,11.555,9.246,23.702,8.956,35.482c-0.631,25.554-4.582,51.015-6.828,76.546c-0.709,8.057-2.381,16.87-0.047,24.202
			c7.426,23.325,16.457,46.145,25.027,69.099c3.526,9.446,10.833,13.662,20.715,13.869c10.426,0.219,18.088-4.344,21.771-14.02
			c8.718-22.905,17.095-45.946,25.296-69.044c1.133-3.193,0.957-7.073,0.576-10.547c-2.35-21.569-3.846-43.311-7.704-64.618
			c-4.965-27.411-2.529-52.346,16.718-73.967c2.576-2.894,4.615-6.347,6.477-9.774c12.659-23.326-1.473-52.42-27.77-56.132
			C731.394,695.535,719.895,695.929,708.523,695.424z"/>
		<path fill-rule="evenodd" clip-rule="evenodd" d="M731.617,158.195c13.703,3.374,27.644,5.996,41.064,10.259
			c47.197,14.991,84.982,43.363,111.529,84.907c22.51,35.228,36.004,74.095,35.541,116.678c-0.35,32.021,1.105,64.277-2.246,96.004
			c-7.879,74.634-47.461,129.589-113.229,164.042c-130.375,68.296-290.889-16.841-306.559-163.543
			c-5.374-50.307-8.894-102.239,6.087-151.787c26.372-87.23,84.976-139.754,175.808-154.723c1.703-0.281,3.299-1.21,4.945-1.837
			C700.244,158.195,715.932,158.195,731.617,158.195z"/>
		<path fill-rule="evenodd" clip-rule="evenodd" d="M708.76,1185.688c5.433-21.562,10.99-43.092,16.279-64.688
			c19.002-77.603,37.904-155.23,56.865-232.842c13.143-53.805,26.313-107.602,39.494-161.396
			c3.369-13.754,10.373-17.415,23.541-11.855c64.15,27.08,128.367,54.007,192.311,81.564c25.881,11.153,38.957,30.262,38.77,60.092
			c-0.801,128.305-0.34,256.616-0.35,384.926c0,18.876-3.666,22.593-22.195,22.593c-232.025,0.003-464.052,0.003-696.079,0
			c-19.006,0-22.904-3.938-22.906-23.307c-0.011-129.735-0.024-259.47,0.008-389.206c0.008-31.613,14.019-52.555,43.658-63.974
			c62.994-24.274,126.116-48.217,189.213-72.222c15.581-5.927,21.271-2.936,25.353,13.385
			c27.061,108.173,54.1,216.352,81.042,324.553c10.979,44.086,21.698,88.235,32.535,132.356
			C707.121,1185.673,707.94,1185.681,708.76,1185.688z"/>
		<path fill-rule="evenodd" clip-rule="evenodd" d="M708.523,695.424c11.371,0.504,22.87,0.111,34.09,1.694
			c26.297,3.711,40.429,32.806,27.77,56.132c-1.861,3.428-3.9,6.881-6.477,9.774c-19.247,21.621-21.683,46.556-16.718,73.967
			c3.858,21.308,5.354,43.049,7.704,64.618c0.381,3.474,0.557,7.354-0.576,10.547c-8.201,23.098-16.578,46.139-25.296,69.044
			c-3.683,9.676-11.345,14.238-21.771,14.02c-9.882-0.207-17.189-4.423-20.715-13.869c-8.57-22.954-17.601-45.773-25.027-69.099
			c-2.334-7.332-0.662-16.146,0.047-24.202c2.247-25.531,6.197-50.992,6.828-76.546c0.291-11.78-4.971-23.928-8.956-35.482
			c-2.023-5.868-6.812-10.776-10.322-16.136c-19.423-29.647-2.948-62,32.672-63.875c8.885-0.468,17.816-0.07,26.726-0.07
			C708.51,695.768,708.517,695.596,708.523,695.424z"/>
	</g>
</g>
</svg>
