<svg xmlns="http://www.w3.org/2000/svg" viewBox="0 0 940.47 834.08"><g data-name="Capa 5"><path d="M532.32 523.69v171.94a28.46 28.46 0 01-28.46 28.46H330v-130a14.21 14.21 0 00-14.21-14.21h-55.38a14.21 14.21 0 00-14.21 14.21v130h-46.28a28.47 28.47 0 01-28.47-28.46V523.69a28.48 28.48 0 0113.22-24l152-96.39a28.46 28.46 0 0130.48 0l152 96.39a28.48 28.48 0 0113.17 24z"/><path d="M753.48 202.65a61.33 61.33 0 00-61-54.91H454.29a61.33 61.33 0 00-61 54.91 59.39 59.39 0 00-.34 6.43v139.07l169.56 117.32a25.25 25.25 0 0110.88 20.75v232.65h110.36a70.08 70.08 0 0070.07-70.08V209.08a59.39 59.39 0 00-.34-6.43zM551 293.82a8.12 8.12 0 01-8.12 8.11h-97.66a8.11 8.11 0 01-8.11-8.11v-69.68a8.11 8.11 0 018.11-8.11h97.66a8.12 8.12 0 018.12 8.11zm169.33 321a8.12 8.12 0 01-8.11 8.12h-97.66a8.13 8.13 0 01-8.12-8.12v-69.67a8.12 8.12 0 018.12-8.11h97.66a8.11 8.11 0 018.11 8.11zm0-160.5a8.11 8.11 0 01-8.11 8.11h-97.66a8.12 8.12 0 01-8.12-8.11v-69.67a8.13 8.13 0 018.12-8.12h97.66a8.12 8.12 0 018.11 8.12zm0-160.5a8.11 8.11 0 01-8.11 8.11h-97.66a8.12 8.12 0 01-8.12-8.11v-69.68a8.12 8.12 0 018.12-8.11h97.66a8.11 8.11 0 018.11 8.11z"/><path d="M384.46 151.54L349 202.66h436.16c5 0 7.44-8.63 3.93-13.68l-27-38.84c-12.53-18-29.54-28.13-47.27-28l-283.55 1.39c-17.55.05-34.38 10.13-46.81 28.01z"/></g></svg>