<svg xmlns="http://www.w3.org/2000/svg" viewBox="0 0 940.47 834.08"><defs><style>.cls-1{fill:none;stroke-width:9.08px;}.cls-1,.cls-2,.cls-3{stroke:#020202;stroke-miterlimit:10;}.cls-2,.cls-3{fill:#fff;}.cls-2{stroke-width:10.22px;}.cls-3{stroke-width:1.92px;}</style></defs><title>TERRENOS</title><g id="Capa_5" data-name="Capa 5"><path class="cls-1" d="M755.11,656.11V133.28A25.23,25.23,0,0,0,729.88,108H244.7a25.23,25.23,0,0,0-25.23,25.24V656.11"/><path d="M231.05,672.69l240.41-86.6a8.93,8.93,0,0,1,5.82-.09l266,86.5a9,9,0,0,1-.25,17.15L506,759.17A115.06,115.06,0,0,1,437.38,758L231.27,689.65A9,9,0,0,1,231.05,672.69Z"/><path class="cls-2" d="M223.72,649l215.8-77.74a106.78,106.78,0,0,1,69.21-1.08l241.94,78.69a6.43,6.43,0,0,1-.18,12.28L511.61,731.25A135.3,135.3,0,0,1,431,729.84L223.87,661.19A6.43,6.43,0,0,1,223.72,649Z"/><rect x="244.66" y="444.69" width="15.69" height="84.59"/><rect x="608.04" y="444.69" width="15.69" height="84.59"/><rect x="426.35" y="313.14" width="15.69" height="347.68" transform="translate(-52.79 921.18) rotate(-90)"/><rect x="649.9" y="270.68" width="17.79" height="385.42" rx="4.51" ry="4.51" transform="translate(1317.6 926.79) rotate(180)"/><path d="M631.42,275.11V396.76a4.43,4.43,0,0,1-4.43,4.43H428a4.42,4.42,0,0,1-3.13-7.56l54.19-54.19a4.42,4.42,0,0,0,0-6.26l-54.93-54.93a4.43,4.43,0,0,1,3.13-7.57H627A4.43,4.43,0,0,1,631.42,275.11Z"/><path d="M485.79,665.32,408.1,688.1a44.15,44.15,0,0,1-13.29,1.78V634.07a34.65,34.65,0,0,1,12.35,1.67l78.68,25.59a2,2,0,0,1,1.37,1.42A2.08,2.08,0,0,1,485.79,665.32Z"/><path class="cls-3" d="M394.81,629.15v60.73a44.06,44.06,0,0,1-12.94-2.23l-67.34-22.33a2,2,0,0,1-1.43-1.9.25.25,0,0,1,0-.08V602h.09a2.2,2.2,0,0,0,0,1.22,2,2,0,0,0,1.34,1.34l67.34,22.33A43.79,43.79,0,0,0,394.81,629.15Z"/><path d="M297.19,640.74a.57.57,0,0,0,0,.13h0Z"/><path d="M487.21,602h0v60.72l-92.4.36v-34a43.79,43.79,0,0,1-12.94-2.23l-67.34-22.33a2,2,0,0,1-1.34-1.34,2.2,2.2,0,0,1,0-1.22Z"/><path d="M487.21,603.14a2,2,0,0,1-1.42,1.46L408.1,627.38a44,44,0,0,1-26.23-.46l-67.34-22.33a2,2,0,0,1-1.34-1.34,2.2,2.2,0,0,1,0-1.22,2.06,2.06,0,0,1,1.3-1.39l70.18-25.28a34.69,34.69,0,0,1,22.5-.35l78.68,25.59a2,2,0,0,1,1.37,1.43h0A2.09,2.09,0,0,1,487.21,603.14Z"/><path d="M178.81,160.46c14.4-14.38,28.95-28.9,43.36-43.27C258.22,153.4,329.84,225.2,366,261.51l-43,43.05Z"/><path d="M196,88.46l-44.44,44.92c-2.89-2.94-6-5.95-8.91-9.09-6.35-6.82-6.92-17-.67-23.94a289.28,289.28,0,0,1,20.65-20.64c7-6.32,16.28-5.91,23.52.25C189.65,82.94,193.12,86,196,88.46Z"/><path d="M332.93,312l40.53-41c.94,2.46,1.85,4.77,2.7,7.09,5.2,14.38,10.55,28.71,15.42,43.2.83,2.46,4.38,9.43,2.86,11.2-1.19,1.38-9.19-1.8-11.56-2.62C366.17,324.14,349.59,318,332.93,312Z"/><path d="M169.81,151.88l-9.56-9.78,43.87-43.61c3.13,3.21,6.43,6.6,9.53,9.8Z"/></g></svg>