<svg xmlns="http://www.w3.org/2000/svg" viewBox="0 0 940.47 834.08"><g data-name="Capa 5"><path d="M755.11 656.11V133.28A25.23 25.23 0 00729.88 108H244.7a25.23 25.23 0 00-25.23 25.24v522.87" stroke="#020202" stroke-miterlimit="10" fill="none" stroke-width="9.08"/><path d="M231.05 672.69l240.41-86.6a8.93 8.93 0 015.82-.09l266 86.5a9 9 0 01-.25 17.15L506 759.17a115.06 115.06 0 01-68.62-1.17l-206.11-68.35a9 9 0 01-.22-16.96z"/><path d="M223.72 649l215.8-77.74a106.78 106.78 0 0169.21-1.08l241.94 78.69a6.43 6.43 0 01-.18 12.28l-238.88 70.1a135.3 135.3 0 01-80.61-1.41l-207.13-68.65a6.43 6.43 0 01-.15-12.19z" stroke-width="10.22" fill="#fff" stroke="#020202" stroke-miterlimit="10"/><path d="M244.66 444.69h15.69v84.59h-15.69zm363.38 0h15.69v84.59h-15.69zm-347.69 50.14v-15.69h347.68v15.69z"/><rect x="649.9" y="270.68" width="17.79" height="385.42" rx="4.51" ry="4.51" transform="rotate(180 658.8 463.395)"/><path d="M631.42 275.11v121.65a4.43 4.43 0 01-4.43 4.43H428a4.42 4.42 0 01-3.13-7.56l54.19-54.19a4.42 4.42 0 000-6.26l-54.93-54.93a4.43 4.43 0 013.13-7.57H627a4.43 4.43 0 014.42 4.43zM485.79 665.32L408.1 688.1a44.15 44.15 0 01-13.29 1.78v-55.81a34.65 34.65 0 0112.35 1.67l78.68 25.59a2 2 0 011.37 1.42 2.08 2.08 0 01-1.42 2.57z"/><path d="M394.81 629.15v60.73a44.06 44.06 0 01-12.94-2.23l-67.34-22.33a2 2 0 01-1.43-1.9.25.25 0 010-.08V602h.09a2.2 2.2 0 000 1.22 2 2 0 001.34 1.34l67.34 22.33a43.79 43.79 0 0012.94 2.26z" stroke-width="1.92" fill="#fff" stroke="#020202" stroke-miterlimit="10"/><path d="M297.19 640.74a.57.57 0 000 .13zM487.21 602v60.72l-92.4.36v-34a43.79 43.79 0 01-12.94-2.23l-67.34-22.33a2 2 0 01-1.34-1.34 2.2 2.2 0 010-1.22z"/><path d="M487.21 603.14a2 2 0 01-1.42 1.46l-77.69 22.78a44 44 0 01-26.23-.46l-67.34-22.33a2 2 0 01-1.34-1.34 2.2 2.2 0 010-1.22 2.06 2.06 0 011.3-1.39l70.18-25.28a34.69 34.69 0 0122.5-.35l78.68 25.59a2 2 0 011.37 1.43 2.09 2.09 0 01-.01 1.11zm-308.4-442.68c14.4-14.38 28.95-28.9 43.36-43.27C258.22 153.4 329.84 225.2 366 261.51l-43 43.05zm17.19-72l-44.44 44.92c-2.89-2.94-6-5.95-8.91-9.09-6.35-6.82-6.92-17-.67-23.94a289.28 289.28 0 0120.65-20.64c7-6.32 16.28-5.91 23.52.25 3.5 2.98 6.97 6.04 9.85 8.5zM332.93 312l40.53-41c.94 2.46 1.85 4.77 2.7 7.09 5.2 14.38 10.55 28.71 15.42 43.2.83 2.46 4.38 9.43 2.86 11.2-1.19 1.38-9.19-1.8-11.56-2.62-16.71-5.73-33.29-11.87-49.95-17.87zM169.81 151.88l-9.56-9.78 43.87-43.61c3.13 3.21 6.43 6.6 9.53 9.8z"/></g></svg>