<svg version="1.0" xmlns="http://www.w3.org/2000/svg" width="85.333" height="85.333" viewBox="0 0 64 64"><path d="M2 2C.1 3.9 0 5.3 0 32s.1 28.1 2 30c1.9 1.9 3.3 2 30 2s28.1-.1 30-2c1.9-1.9 2-3.3 2-30s-.1-28.1-2-30C60.1.1 58.7 0 32 0S3.9.1 2 2zm55.4 4.6c1.4 1.3 1.6 5 1.6 25.4 0 28 .4 27-9.6 27H43V39h4c3.5 0 4-.3 4-2.3 0-1.2.3-3.2.6-4.5.6-2 .3-2.2-4-2.2-4.4 0-4.6-.1-4.6-2.8 0-3.7 1.7-5.2 5.7-5.2 3.2 0 3.3-.1 3.3-4v-4h-5c-3.1 0-6.1.7-7.7 1.7-3 2-5.3 6.9-5.3 11.3 0 2.8-.3 3-3.5 3-3.5 0-3.5 0-3.5 4.5s0 4.5 3.5 4.5H34v20H21.1c-10.4 0-13.3-.3-14.5-1.6-2.4-2.3-2.4-48.5 0-50.8 2.3-2.4 48.5-2.4 50.8 0z"/></svg>