<?xml version="1.0" standalone="no"?>
<!DOCTYPE svg PUBLIC "-//W3C//DTD SVG 20010904//EN"
 "http://www.w3.org/TR/2001/REC-SVG-20010904/DTD/svg10.dtd">
<svg version="1.0" xmlns="http://www.w3.org/2000/svg"
 width="64.000000pt" height="64.000000pt" viewBox="0 0 64.000000 64.000000"
 preserveAspectRatio="xMidYMid meet">
<metadata>
Created by potrace 1.16, written by Peter Selinger 2001-2019
</metadata>
<g transform="translate(0.000000,64.000000) scale(0.100000,-0.100000)"
fill="#000000" stroke="none">
<path d="M20 620 c-19 -19 -20 -33 -20 -300 0 -267 1 -281 20 -300 19 -19 33
-20 300 -20 267 0 281 1 300 20 19 19 20 33 20 300 0 267 -1 281 -20 300 -19
19 -33 20 -300 20 -267 0 -281 -1 -300 -20z m554 -46 c14 -13 16 -50 16 -254
0 -280 4 -270 -96 -270 l-64 0 0 100 0 100 40 0 c35 0 40 3 40 23 0 12 3 32 6
45 6 20 3 22 -40 22 -44 0 -46 1 -46 28 0 37 17 52 57 52 32 0 33 1 33 40 l0
40 -50 0 c-31 0 -61 -7 -77 -17 -30 -20 -53 -69 -53 -113 0 -28 -3 -30 -35
-30 -35 0 -35 0 -35 -45 0 -45 0 -45 35 -45 l35 0 0 -100 0 -100 -129 0 c-104
0 -133 3 -145 16 -24 23 -24 485 0 508 23 24 485 24 508 0z"/>
</g>
</svg>
