<svg xmlns="http://www.w3.org/2000/svg" viewBox="0 0 1115.67 711.19"><g data-name="Capa 2"><g data-name="Capa 5"><path d="M1113 362.77a77.56 77.56 0 01-4.52-11.72c-9-27.67-17.8-55.41-27-83a241.16 241.16 0 00-36.33-69.19c-7.48-10-14.22-20.48-21.31-30.75a10.51 10.51 0 015.34.67c8.19 2.36 16.35 5.55 25 2.13 1.46-.58 2.59-2 3.87-3-1-1-1.91-2.41-3.15-3-14.45-6.72-26.67-16.62-38-27.48-21.09-20.22-41.6-41.09-62.6-61.43-18.67-18.13-38.56-34.47-65.15-39.69-15.09-3-30.11-4-45 .95-11 3.65-18.24 13.35-18 24.84.24 13.8 7.09 25.07 15 35.58 13.7 18.16 26.29 36.87 33.93 58.55 8.34 23.73 9.32 46.87-5.18 68.76-3.35 5.07-7.56 9.57-11.37 14.33-1.54-8.39 1.56-13.83 9.11-16.94l-4.72-3.47c1.06-8.22 2.1-15.56 2.85-22.94a4.62 4.62 0 00-1.68-3.52c-4.23-3.11-3.59-6.13-1.14-10.25 6.11-10.28 2.41-18.51-9.08-21.9a6.83 6.83 0 01-4-3.62c-1-2.91-1.49-5.72-5.28-6.19s-6.79.56-9.48 5.21c5.12 3 10 6.21 15.09 8.84 12.19 6.27 12.26 4.64 7.48 18.36-1.14 3.26-.85 5.95.38 9.38a33.53 33.53 0 011.62 14.69c-.59 5.29-2.67 10.45-4.52 15.51-1 2.85-2.38 6.08-4.6 7.88-3.6 2.89-8 4.79-12.14 7-5.9 3.21-11.84 6.33-18.42 9.85 0 .65.15 2.28.3 4.33 2.73-.47 4.93-.86 7.14-1.23.13.28.25.57.38.86L815 261.06a11.54 11.54 0 00-13.31-2c-4.16 2-7.71 5.22-11.62 7.76a15.41 15.41 0 01-4.35 1.79c-2.31.63-4.88.63-7 1.64-2.78 1.34-5.21 3.4-8 5.28l-3.55-5.45c-4.62 4.31-9 8.56-13.58 12.54a7.45 7.45 0 01-4.87 1.74c-.66 0-1.2-2.63-1.77-4.08-.23-.59-.37-1.2-.57-1.86l-25.72 4c3.62-5.3 6.58-9.61 9.53-13.92-.33-.39-.67-.78-1-1.16l-9 5.58c3.55-10.8 12.56-18.62 20.84-18.11.44 2.24.89 4.55 1.44 7.4l10.35-3.64c.68 1.9 1.22 3.46 1.61 4.56l17-3.39c-.34-2.5-.66-5-1-7.87-2.54 1.31-4.29 2.57-6.24 3.07-1.2.31-3.58-.16-3.92-1-1.69-3.77-4.34-2.71-7-1.92-1.85.53-3.68 1.12-6.08 1.86 1-2.89 1.56-4.77 2.37-7.24h-8.25l7.19-10-6.63-2.26c1.69-1.86 3.07-3.36 4.49-4.91-.91-1.78-1.89-3.44-2.62-5.18s-1.66-3.5-1.67-5.26c0-3.45.51-6.92 1-11.68l-10.29 6.69c-1.66-10 8.32-12.59 10.66-19.86a18.29 18.29 0 00-5.68 2.58c-1.8 1.12-3.57 2.3-5.74 3.71 1.11-11.39 3-13.59 11.89-14.42 2.78-.26 5.57-.46 8.34-.81 10.68-1.35 10.68-1.37 12.58-13l-20.36 3.15c-.11-.27-.23-.54-.34-.8 3.62-2.47 7.24-4.93 11.2-7.61L743 161.42c1.32-1 1.81-1.41 2.35-1.73 3-1.75 7.23-1.79 7.51-6.8.35-5.88 4.1-8.55 9.74-8.92a22.29 22.29 0 0013.4-5.12c9.62-8 20.3-12.27 32.95-7.48a4.81 4.81 0 001.73-.13c.43-2 .86-3.94 1.44-6.62 2.69 1.5 4.79 3.08 7.15 3.86 1.74.56 4.28.78 5.65-.1 3.77-2.4 6.41-1.31 9.3 1.4 3.06 2.86 6.46 5.36 9.42 7.8 1.28 2.42 2.21 6.59 3.86 6.91 6.33 1.18 10 3.72 8.7 10.75l6.89 1.09c-1.07-5.86-3.36-10.18-8-13.45-2.74-1.92-4.77-4.84-7.2-7.23-2-2-4.06-5.28-6.36-5.53-3.57-.37-4.94-2.45-6.84-4.58-3.9-4.36-7.23-4.81-12.51-2-.87.49-1.78.91-2.8 1.4-1.12-2.23-2.1-4.17-3.11-6.16-14.28 4.44-28.05 8.88-41.93 12.92-4.43 1.29-8.52 2.21-7.48 8.82l-9.07-3.64c-4 3.5-8 7-12 10.71-.8.73-1.85 2.48-1.55 2.92 2.76 3.94-.66 5.32-2.85 7-3.9 2.93-5.52 6.23-4.28 11.3a8.17 8.17 0 01-2.24 6.72c-5.32 4.62-11.17 8.62-16.92 12.94.64 1.57 1.43 3.56 2.35 5.85l-8.21.56 3.77 8.74a15.37 15.37 0 01-2.96 1.38c-7.79 1.64-12.49-2.63-16.31-8.61-6.06-9.46-13.42-17.67-24.29-21.48-12-4.2-23.79-5.6-34.37 4.1a17.4 17.4 0 01-8.67 4.37c-18 2.5-36 5.45-54.06 6.56-29.42 1.79-58.66-1.28-87.74-5.88-4.51-.72-7.42-3.18-9.87-6.91a13.36 13.36 0 00-6-5c-11.29-4.15-32.8 2.08-40.31 11.4-4.27 5.29-8.43 10.68-12.58 16.08-4.9 6.39-11.08 7.95-18.84 4.56 1.62-3.62 3.24-7.25 5-11.24l-5.56.33c.32-3 .61-5.55.92-8.39a25.58 25.58 0 01-18.68-10.69c-.94-1.27-2-3.42-1.53-4.63 2.1-5.74-.56-9.74-4-13.72-1.6-1.82-3.75-3.78-4.13-5.94-1.31-7.46-7.4-10-12.8-13.91-3.05 4.32-7.1 3.13-9.19.22-4.25-5.91-10.9-5.48-16.51-7.82-10.24-4.26-22.08-4-31.81-11.37-1.34 7.05-5.34 7.8-11.8 6.37-9.08-2-16.67 3.55-19.94 12.76-.47 1.34-1.61 3.5-2.48 3.51-7.34.11-9.22 5.89-12 10.88-2.15 3.85-3.15 7.38 1.62 9.91-6.6 13.87-6.55 14.52 2.91 26.66l-9.78 7.09c4 1.23 6.58 5.54 8.84 0 2.58-6.28 5.15-12.57 7.49-18.94.39-1.05-.35-2.51-.81-5.23l-8.33 9.86c-3.66-8.2-2.26-11.11 5.59-14.08a66.51 66.51 0 0012.12-6.13c2.41-1.54 4.15-4.15 7.16-7.3l-14.25-2.57 1 10.69-10.69-1.14c1.39-7.49 1.67-15.19 11.38-16.72a3 3 0 001.84-2.08c.51-3.34 1.13-5.78 5-7.49 4.13-1.81 7.38-5.66 11.43-9 6.2 9.1 11.35 4.14 17.16-3v12.16c7.48-7.32 15.13-7.45 23.17-4.29 3.24 1.27 6.35 2.94 9.67 3.94 4.45 1.34 8.06 3.1 7.41 7.45 4.85.92 9.88.66 13.36 2.84 3.63 2.26 8.37 5.68 5.43 11.55 3.82 2 7.27 3.74 11.53 5.91l-15.87 5.62c4.09 2.36 7.29 4.19 10.48 6l-.36 1-17.49-1.22c1.48 10.38 2.6 11.32 12.28 10.85a22.9 22.9 0 012.62 0c9.34.55 18.91 9.3 18.92 17.44l-10.66-7.32-1.22 1.66 10 12-8.56 3.05c1.78 5.23 4.39 10.24-.76 14.66-2.79 2.39-4.33 5.11-1.2 8.49l-7 2.76 7.65 8.23-6.31 1.27c.54 2.51 1 4.64 1.61 7.54l-10-3.38-.92 3.5c-4.56 1.09-8.6 2-12.56 3.08-.95.28-1.66 1.41-2.48 2.15.91.61 1.77 1.61 2.73 1.74 4.51.59 9 1 13.58 1.32.91.06 2.44-.34 2.72-.95 2.18-4.94 4.95-2.87 7.87-.92 1.34.91 2.82 1.57 4.72 2.61.19-3.76.34-6.58.49-9.51 12.65 3.23 22.9 14.92 23.51 24.29l-12.2-12.49-1.19 1.26q6 8.73 12.11 17.45l-1.52 1.36-13.61-8.95c-.2 3.61-.36 6.39-.55 9.63-3.36-1.72-6-3.09-8.69-4.44l-1.41 1.3c1.76 2.54 3.42 5.15 5.28 7.6 2.85 3.73 2.74 5.26-1.26 8.72-5.81-13.75-18.35-21-28.72-31.74-.44 3.84-.7 6.14-1.06 9.2-3.51-3.18-5.95-6.93-9.25-8s-7.49.58-12.21 1.15l7.72 10.39c1.23-2.58 2-4.26 2.86-5.95 18.7 10.07 22.72 13.1 21.26 16.13l-4.25 1c2.89 2.09 5.26 3.84 7.66 5.54 14.55 10.24 29.39 20 42.1 32.7 3.58 3.59 9 5.57 13.94 7.49 4.26 1.65 15.85 15.07 15.86 19.68a26.67 26.67 0 01-.83 4.19l-13.24-16.27-1.21.66c.67 7.06 7.75 12.48 5 20.78q-5.28-7.32-10.57-14.62l-1.07.5q1 8.43 1.91 16.88l-1.31 1c-2.08-1.82-5.8-3.53-5.91-5.46-.42-6.61-4.07-10.62-8.88-14-15.76-11.17-33.4-16.4-52.66-16.26-2.81 0-5-.06-5.86-3.55-1.14-4.72-4-6.89-9.1-3.83-2.24-9-8.26-10.82-16.17-9.45a5.77 5.77 0 01-4.21-.9c-4-3.42-8.58-2.8-13.45-2.92.1 2 .09 3.36.26 4.72 1.46 11.76-2 22.11-9.13 31.33-6.92 8.94-14.08 17.72-21 26.69-5.07 6.57-11.73 9-19.78 8.32-10.17-.89-13.93-8.14-8.72-16.73.52-.84 1-1.71 1.56-2.66l-6.46-3.38c5.46-2.82 10-5.2 14.52-7.51 6.42-3.27 8.35-7 6.85-14.42l-11.21 1.38c-8.3 1-8.3 1-9.39-1.47l11.72-1.32a21.88 21.88 0 00-1.33-2.78c-6.38-9-6.39-9 1.24-17.23.36-.38.76-.7 1.09-1.11 6.68-8.16 14.1-15.86 19.71-24.7 3.34-5.28 3.81-12.37 5.66-19l6.36 2.25c-1.31 3.86-2.47 7.23-3.7 10.84l5.35.74c.93 9.18 6.21 14.44 14.95 17.07l3.06-6.26c-2.92-1.73-6.77-2.71-7.83-5-1.2-2.59.12-6.33.37-10-2.18-1-9.52-14.52-11.33-22.34-3.1-1.11-7.59.89-9.28-4.24l4.93-.69c-2.25-.93-4.07-1.66-5.88-2.4.06-.33.12-.66.17-1l5.32-.77c-7.63-5.6-7.63-5.6-7.39-9.31 4.69 3.29 9.42 7.2 14.68 10.17s11 5 16.57 7.44c.26-.26.52-.53.8-.79l-8.67-10.64 8.62 2.22v-6c-6.82 1.16-11-2.62-14.94-7.06-.88-1-2.56-2.54-3.26-2.27-6.48 2.48-7.94-1.85-9-6.43-5.7-.47-8.81-3.85-9.8-9.18-1.11-6.06-2.83-12-4.29-18l-1.31-.25c-.78 2.69-2.61 5.63-2.05 8 .65 2.72 3.41 4.93 5.43 7.58l-7.34 5.17c-10.14-16.1-14.35-33.23-11.22-51.38 4.13-24 15.5-45 29-65 6.93-10.25 14.14-20.34 20.52-30.92 4.77-7.92 7.32-17 5-26.18-3.08-12.03-12.5-18.29-24.13-20.34-33.29-5.86-63 3.25-87.93 25.3C160.22 72.15 140 93.22 119 113.56c-16.89 16.44-33.4 33.27-54.79 44.15-2 1-3.5 3.17-5.24 4.79 2.41 1.16 4.77 2.42 7.24 3.4a6.26 6.26 0 003.11.14c7.85-1.19 15.67-2.43 23.63-3.69a30.52 30.52 0 01-1.51 2.7c-9 13.08-18.06 26.1-27 39.21C52.3 222 42.1 240.75 35.5 261.4c-9.62 30.09-19.74 60-29.73 90-3.18 9.52-7.65 18.8-4.93 29.66 10.37-4.32 16.7-13.3 25.24-21.75-.43 3.15-.7 5-.91 6.78-2.32 19.39-5.89 38.73-6.58 58.17-.59 17.36 1.11 34.93 3.41 52.2 2.08 15.66 5.76 31.19 9.75 46.49 3.82 14.67 11.8 27.47 21.18 39.3 1.23 1.54 3.35 2.37 5.05 3.53.44-2 1.57-4.19 1.18-6-2.13-10.22-4.7-20.37-7-30.57a209.55 209.55 0 01-3-73.42c.63-4.88 2.17-9.65 3.28-14.48a10.3 10.3 0 013.54 4.48c4 9.3 8 18.58 11.88 27.92 14 33.82 30.06 66.9 36.76 103.32.24 1.31 1.64 2.43 2.49 3.63 1.11-1.16 2.74-2.13 3.24-3.51a129.17 129.17 0 005-15.94c1.79-8 3-16 4.38-24.09l1.49-.07c1.07 10.7 2.1 21.41 3.27 32.11.15 1.42.81 3.82 1.55 3.94a5.94 5.94 0 004.56-1.4 115.12 115.12 0 008.35-9.3c1.79-2.16 3.33-4.52 5-6.79l1.52.55c-1 8.92-2 17.85-2.9 26.78-.12 1.35.69 2.78 1.06 4.18 1.36-.39 3.27-.33 4-1.24a138.78 138.78 0 0024-44.92c2.33-7.6 4.28-15.33 6.56-23.62a23 23 0 012.79 3.2c5.08 9.14 10.59 18.09 15 27.56 6.45 13.87 12 28.12 18.14 42.16.59 1.34 2.14 2.28 3.25 3.4.83-1.17 2.1-2.23 2.4-3.54 1.25-5.25 2-10.61 3.37-15.84a5.86 5.86 0 013.2-3.62c16.92-5.38 34.09-10 50.82-15.9 19.55-6.89 38.69-14.93 58-22.38 6-2.31 10.17-.87 13.5 4.42 1.57 2.51 2.77 5.25 4.3 7.79 6.17 10.18 10.15 14.37 22.84 9.47 14.3-5.52 28.85-10.39 43.26-15.62 6.83-2.48 6.8-2.55 9.36 4.6.59 1.64 1.29 3.24 1.8 4.91 2.95 9.63 7.42 12.6 17.52 11.47a62 62 0 006.72-1.14c15-3.36 29.78-7.59 44.91-10 28-4.43 56.32-6.84 84.64-4 17.85 1.81 35.54 5.19 53.23 8.27 11.82 2.07 23.43 5.64 35.31 7.06 10.55 1.25 14.81-3.11 16.65-13.61.94-5.32 4.21-7.51 9.4-5.77 12.06 4 24.17 8 36.07 12.48 16.41 6.14 23.11 4.17 31.49-10.13.54-.9.85-1.92 1.31-2.86 3.06-6.19 7.9-8.41 14.18-6.05 18.93 7.13 37.72 14.6 56.7 21.55 17.86 6.54 35.87 12.65 53.86 18.81 3.07 1.06 5 2.08 5.18 6 .12 3.37 1.69 6.73 2.86 10 .33.91 1.56 2.15 2.29 2.1a3.38 3.38 0 002.43-2.12c2-11.17 10-19.29 14.68-29 6.13-12.67 11.64-25.65 17.47-38.46a55.49 55.49 0 013.25-5.26c2.85 9.69 5.21 18.61 8.13 27.33 4.68 14 11.94 26.73 20.83 38.5 1.08 1.43 3.3 2 5 2.95a27.68 27.68 0 00.67-5.38c-.55-8.4-1.29-16.79-2.05-26.39 1.39 1.59 2 2.18 2.49 2.8 4 4.6 7.84 9.29 12 13.73.91 1 3 1.82 4 1.42s1.67-2.43 1.85-3.84c.42-3.28.28-6.65.72-9.94 1-7.46 2.22-14.88 3.35-22.32 1.94 6.1 2.32 12 3.6 17.76 1.67 7.48 3.93 14.84 6.22 22.14.44 1.37 2.27 2.29 3.46 3.43.66-.88 1.76-1.7 1.92-2.67 3.59-21.15 11.48-41 19.36-60.71 8.2-20.56 17-40.89 25.53-61.29 1.77-4.19 3.86-8.23 6.27-13.36a38.23 38.23 0 011.36 3.66c3.87 17.51 6.15 35.33 3.66 53.1-2.89 20.68-7.43 41.13-11.13 61.71-.29 1.61.47 3.41.75 5.12 1.5-.64 3.5-.86 4.43-2 15.57-18.94 24.23-41.07 28.49-64.88a393.24 393.24 0 005.77-46.22 369.3 369.3 0 00-.38-47.63c-1-13.91-4.07-27.67-6.43-42.85 8 9.14 15 17.34 25.19 22.94.2-7.85 1.09-14.87-2.43-21.63zM855.7 258.6q4.29-11.36 15.74-13.73c4.73-1 9.71-1 14.58-1.09 10.05-.26 13.8-1.67 19.65-7.41 2.44 3 4.73 6.25 7.39 9.14 5.89 6.34 12 12.52 18.19 19l-9.42 3.38c2.75 2.33 5 4.2 7.17 6.08-.23.52-.46 1-.7 1.53-5-1.22-10.07-2.44-15.5-3.78v10c-9.72-3-9.68-12.44-13.83-19.78l-6 10.68c-3-6.66-5.74-12.83-8.5-19h-.17l-1 1.44-1.48 2.13-1.53 2.21c-.37.52-.74 1.06-1.1 1.59l-1 1.5-2.53 3.64c-.68-2.52-.91-3.39-1.2-4.48-4.4 2.61-8.77 5.21-13.45 8-1.92-7.25 5.1-6.29 7.47-9.83l-4.64.66c0-.53-.18-1.12 0-1.42 4.46-6.29 8.59-7.83 16.1-6.15 1.43.32 2.9.48 4.36.7l.09-.13.08.17h.09c-7.87-9.6-19.9-2.26-24.08 6.11-4.47 8.91-4.67 17.82 1.49 26.2 8.75 11.93 17.62 23.77 26.36 35.72a29.28 29.28 0 012.36 4.95l-2.26 1.43c-8.49-9.59-16.92-19.23-25.49-28.75-10.86-12.07-12.94-25.57-7.24-40.71zm76.15-90.08l1.06-.26q2.1 8.72 4.22 17.46l1.09-.1c-.23-2.75-.4-5.52-.71-8.26-.34-2.89-.81-5.75 0-8.85q3.19 15.44 6.4 30.87l1.29-.1q-1.85-16.2-3.67-32.41l1.38-.24c2.22 11.71 4.43 23.4 6.62 34.9v-16.19c5.16 15.46 6 31.31 4.36 47.44-.49-4.15-1-8.31-1.47-12.46H952c-.8 13.4-1.59 26.79-2.42 40.58-6.28-5.14-10.58-19.85-11.58-33.6-1-1.64-2.61-3.17-2.95-4.94q-4.44-23.37-8.47-46.84c-1-6.11-1.67-12.29-2.48-18.43l1.75-.32 7.23 36 1.15-.11q-1.17-12.08-2.38-24.14zm-13.8 306.13l14-10-29.35 63.53c-3.22-1.75-3.55-4.9-3.19-8.53 1-10.09 6.17-17.55 14.27-23.24.83-.59 1.62-1.22 2.71-2l-5.53-9 11.15-8.09zm5.79 21.69l-5 13.35-2.24-.89q2.85-6.54 5.73-13.06zm-39 4.84c-5 1.69-9.48 3.52-14.16 4.6-1.17.27-2.89-1.83-5.22-3.45l8.6-3.05q.07-.57.15-1.11l-9.11-2.46c2.79-2.07 4.88-3.65 7-5.19 1-.71 2.26-1.11 3-2 5.68-6.44 12.65-7.7 20.93-5v7.51c5.59-2 3.48-11.17 11.12-10.66 1.86 6.75.15 12.58-4.16 18.09a165.4 165.4 0 00-9.67 14.22c-1.71 2.73-3.52 4-6.82 2.76s-6.58-2.07-10-3.11c2.02-4.52 11.01-4.33 8.35-11.15zM763 431.86c-1.44-6.46-3.66-12.75-5.25-19.2a21.41 21.41 0 010-8.92c3.32 7 10.21 12 9.87 20.71-.05 1.46 1.1 3.23 2.18 4.39 2 2.13 4.32 3.93 7.32 6.57l-9.4 3.47c2.2 3.46 4.35 6.86 6.5 10.26h2.1c-4.48-9.41 4.55-9.85 8.34-14.45l-11.36-8.16c3-1.93 5.56-3.55 9.06-5.77-7.43-3.28-14.39-6-17.22-14.1 3.37-3.29 7.07-5.85 12.6-4.79a122.79 122.79 0 0014.56 1.74c3.28.23 4.6 1.88 4.83 4.86.38 4.88 1.09 9.77 1.07 14.65-.09 14 5.68 23.43 19.71 27 .82.21 1.58.62 3.46 1.36l-9.37 7.35c.18.49.35 1 .52 1.47 3.11.66 6.27 1.15 9.33 2 2.58.75 6.37.22 6 4.88 0 .53 1.31 1.46 2.15 1.7 5.21 1.43 10.45 2.74 15.45 4 .63-.7 1-.92 1.07-1.21 1.25-3 1.73-7.69 3.85-8.6 5.31-2.3 11.36-3 17.14-4a3.31 3.31 0 012.66 1.85c1.76 6.44 4.39 12.93 4.54 19.46s-10.19 12.32-16.67 10.52c-1.85-.51-3.67-1.12-5.49-1.75-8.47-2.93-9.45-2.47-12.61 6-.3.8-.66 1.59-1.12 2.7-13.31-4.83-26.2-9.71-39.23-14.14A103.22 103.22 0 00781 479c-11.69-1.67-18.33-10.8-15-22.07 2.65-8.87-1.16-16.83-3-25.07zm12.71 70.83c-.27.56-.54 1.11-.8 1.67l-41.17-17.52c7.88-6.44 28.17-1 38.6 10.54l-11.85-5-.74 1.41zm-24.3-30.9c-6.53.41-12.87.07-19.24 3.32-3.75 1.91-9.36 1.07-13.91.27-7.31-1.29-14.44-3.58-22.5-5.66 4.65-7.72 12.87-6.21 20-9.43l-7.36-2.36 27.82-11.52c-.32 4.14-.58 7.64-.91 12l20.69-5.55c.94 2.42 2.74 5.78 3.56 9.36.95 4.41-3.33 9.28-8.16 9.57zm-100.94 13.47a3.18 3.18 0 01-.91-2.57 2.77 2.77 0 012.39-1.24c16.66 5 33.92 8.55 47.81 20.09a7.27 7.27 0 011 1.65c-12.45 3.29-42.12-3.29-51.29-11.43l6.15-2c-1.92-1.64-3.62-2.95-5.15-4.5zm-3-15.82c-1.29.35-2.23 3.69-2.51 5.74-.77 6-1.13 12-1.69 18.54l-34.91-5.23-1.11-1.25C661.43 467 688 427.12 691 369.2c6.7 7.8 13.92 4.48 20.69 3.88 1.67-.15 4.21-2.15 4.56-3.72 2.23-9.95 8.48-15.83 17.5-19.92 5.12-2.32 9-7.79 15.24-7.23a56.14 56.14 0 0115 3.27 67.06 67.06 0 0114.15 7.84c2.93 2.05 5 5.25 7.66 8.09-5.9 5-11 4.85-16.9 4.56a232.64 232.64 0 00-34.41 1c-9.12.93-12.84 6.56-13.66 17.47-.18 2.27 0 4.56-.21 6.83-.42 5.82-1.88 7.24-7.83 7.43-3.4.11-5 .65-4.11 5 .66 3.08-.1 6.88-1.36 9.9-3.11 7.4-3.38 7.28 3.31 11.46a27.64 27.64 0 012.29 1.75c.72 4.4-6.13 6.13-3 11.41 2.58 4.4 6.1 4.4 10.3 3.53-2 8-12.86 13.25-21.72 11.49-10.05-2-20.12-2.64-29.82 1.85a12.39 12.39 0 00-3.64 2c-5.15 5.15-10.04 10.33-17.53 12.35zm-201.6-45.32a112.73 112.73 0 01-11.7-46.34c-.12-4.28 1.59-8.62 2.45-12.92l2.21.05c.86 5.83 1.75 11.66 2.6 17.49 5.06 34.8 21.21 63 51.05 82.05 13 8.3 27.41 14.31 41.2 21.34 5.9 3 11.86 5.9 17.76 8.89 4.24 2.16 8.14 1.85 12.4-.44 18.1-9.71 36.21-19.42 54.54-28.67 25-12.6 42.23-31.86 50.3-58.59 3.57-11.78 5.12-24.17 7.58-36.28a33.28 33.28 0 01.92-4.61 10.66 10.66 0 012-2.65c.69.82 1.9 1.6 2 2.48.63 6.21 2.19 12.6 1.31 18.63-5.29 37-22 67.06-55.45 85.85-10.58 5.94-22.08 10.27-33.23 15.18-13.21 5.8-25.54 12.83-35.63 24.29-13.34-13.72-30.1-20.74-46.8-27.84-28.33-12.03-51.72-29.57-65.51-57.91zm63.47 65.09a10.91 10.91 0 01-2.15 1.09c-10.64 1.52-21.3 3-32.43 4.58v-25.6zm-64.06-154.94h111.2v157.21c-7.08-3.23-13.87-6.21-20.56-9.39-13.67-6.5-27.77-12.26-40.79-19.87-21.4-12.51-35.73-31.42-43.84-54.73-3.14-9-4.91-18.5-7-27.84-.56-2.49-.27-5.19-.19-7.8.37-11 .81-21.94 1.2-32.91.03-1.52-.02-3.06-.02-4.67zm116 156V334.34h111.15c0 11.25.56 22.41-.14 33.5-1 15.51-3.12 30.86-9.44 45.39-10.43 24-27.6 41-51.2 52.09-15 7-29.67 14.63-44.5 22-1.68.82-3.34 1.68-5.84 2.95zM781.15 388.5c-4.87-2.64-9.66-6.53-15.1-7.9-8.13-2-9.15 6.12-12.19 11.08l-8.18-1.33c9.17 10.62 6.76 22.23 8.08 34l-6.91-1.85c.44 5.56 1.21 10.79 1.12 16s-1.51 10.2-7.19 14c-1.15-8.12-2.17-15.33-3.17-22.55l-.94-.28-7.67 16.62c-.48-.1-1-.21-1.42-.33-.35-3.12-.68-6.26-1.07-9.75l-9.93 1-.63-.93 11.59-9.81-16.54-8.98c.08-5.09 10-5.89 4.89-12.05 3.58-6.58 8.25-12.59 10.26-19.39 4.24-14.34 12.33-17.9 24.08-17.57q16 .45 31.91 1.42c6.64.4 9.65 5.16 11.61 10.92-2-2.25-3.9-4.51-5.86-6.75l-1.41.7c-.16 3.5-.32 7-.51 11.07l-5.44-4.09q.4 4.25.62 6.75zM843 276.64c-.93-3 1.5-7.08 2.41-10.67h1.81c.6 1.64 1.85 3.34 1.69 4.9-1.59 15.62 5.87 27.49 15.5 38.56 4.12 4.74 8 9.71 12.18 14.37 3.61 4 3.86 7.6-.35 11.23a31.41 31.41 0 00-2.36 2.69l12.28 2c0 .47 0 .95-.08 1.43h-20c1.47 11.45 8.86 16.55 19.51 19.54l-5.74 4.31c1.08 3.09 3 6 2.85 8.72-.62 9.29-8.4 13.39-17.68 8.85-4.48-2.18-8.44-6-11.76-9.89-6.1-7.1-11.09-15.15-17.36-22.06-8.23-9.06-10.39-20.28-12.89-31.49-.21-1 .75-2.24 1.31-3.29 3.83-7.22 7.67-14.44 11.6-21.61a15 15 0 012.58-3.23c3.97-4 6.43-8 4.5-14.36zm40 21.09c.64-3.55 1.18-6.52 1.72-9.49l2.12.12q1.25 14 2.5 27.88l-2 .5c-8.18-11-9.08-25.5-17.11-37.37-.68 2.82-1.2 4.95-2.14 8.88-3-4.35-5.32-7.62-7.61-10.92l18.61-10.53 5.68-.26c2.77 4.33 5.55 8.1 7.67 12.21 1.08 2.06.88 4.74 1.37 7.13.56 2.64 1.25 5.27 1.89 7.91l1.27-.15v-11.93c4.24 13 5.92 26 1.44 39.21-4-15.88-5.8-32.38-16.07-47.15-1.78 8.54-3.67 16 .66 23.96zm38-13.2c-.88-2.94-1.71-5.24 2.7-5q1 2.46 1.93 5.22c.16.46.31.92.47 1.4.46 1.4.93 2.85 1.39 4.34.3 1 .6 2 .88 3a157.124 157.124 0 012.21 8.64c.1.4.19.8.28 1.19.21 1 .42 1.92.61 2.87.1.53.21 1 .3 1.55s.21 1.08.31 1.6.2 1.11.29 1.67a125.648 125.648 0 01.71 4.65c.09.66.17 1.32.24 2 .05.34.09.67.12 1 .06.57.13 1.14.17 1.69s.07.91.11 1.36.08 1 .11 1.51.05 1 .06 1.44v1.84a39.82 39.82 0 01-.83 9.7 18.57 18.57 0 01-.69 2.35c-.08.24-.18.48-.27.71a14.29 14.29 0 01-.64 1.3c-.12.2-.23.4-.36.59-1.38-4.15-2.7-8.06-4.5-13.44v9.15c-.49.05-1 .11-1.43.18-5.58-15.62-4.76-32.45-8.9-48.28 3.63-2.06 4.46-.54 5.08 2.14 1.68 7.4 3.56 14.75 5.36 22.11l2.07-.53c-2.58-9.36-5.07-18.7-7.78-27.95zm-3.05 42.6c-13.59-14.62-11.7-33.15-18.13-49.64 6.94 3.78 8 9.77 10 15.64v-7.2l1.29-.79c1.31 1.38 3.62 2.65 3.78 4.15 1.11 12.11 1.96 24.27 3.02 37.84zm-18.34 4.74l5.9-14.47c3.14 4.27 1.7 8.07-5.94 14.47zm3.64 6c4-3.33 1.31-10.92 8.86-12.71V354l1.16.38 8.73-13.63h1.57c.06 1.79.63 3.72.11 5.31-2.19 6.6-4.7 13.1-7.43 20.54l8.5-1c-1.88 7.51-8 8.84-13.61 11.2-4.35 1.85-9 3.83-12.33 7-12 11.55-27.22 12.45-43.65.69 14.08 3.58 28 9.84 34.6-8 5.83-15.65-4.77-22.44-17.27-27.79l.64-1.41 22.16-1.57c1.32-6.62-.13-8.1-10.44-11.12 1.83-3.14 2.16-3.07 8.81-.25 3.13 1.38 6.45 2.39 9.55 3.51zM838 360.26c12.27 9.8 15.09 24 14.29 38.67-.24 4.56-2.62 10.15-8.2 12.63-.93.42-1.5 2.53-1.57 3.88-.2 4.14-.07 8.3-.07 13.57l-7.89-4.87c-.8 4.74-8.09 7-3.6 13.86l-18.56-10-1.13 1.49q9.42 7.68 18.88 15.34c14.18-6.3 21.85-19.35 32.07-31 2.48 5.9 4.7 11.2 7.13 16.95l-9.48 2.7 6.18 10.12c-3.76 1.09-8 1.21-10.49 3.37-2.33 2-4.84 5.93-.36 10.54-6.8-.73-12.51-.64-12.63 7.81l-1.31.3c-1-1.28-1.94-2.55-3.11-4.09-1.37.91-2.94 2-5.08 3.35-1.37-5-3-9.66-3.89-14.47-.69-3.75-2.25-6.06-6-6.91-1.87-.43-3.65-1.18-5.48-1.74-9.85-3-15.06-9.65-13.89-19.93 1.62-14 4.25-27.94 6.44-41.89.89-5.68 2-11.35 2.49-17.08a6.72 6.72 0 00-2.1-4.94c-3.46-3-3.62-2.77-4.07-7.54l-5.44.54c.14-1.79.26-3.25.39-5l-4.28-.25c-1.08-6.57-2.15-13.05-3.17-19.28 10.26-4.14 16.87-2.29 20.53 6.29 5.02 11.75 13.67 19.84 23.4 27.58zm65.1 117c-1.81-6.16-.88-10.74 4.51-14.17 2.12 1.48 4.33 3 6.45 4.54zm-11.7-28.93c1.55 4.28 2.94 8.09 4.3 11.92 1.9 5.41 1.33 9.86-4.57 12.53-1.65.73-3 2.1-5 3.51-2.13-11.23-2.41-22.68-14.85-27.83 1.75-2.42 3.24-4.48 5-6.88l-9.89-5.75 10.05-2.2c-.33-1.59-.24-3.14-.94-4.17-2.78-4.09-.45-5.94 3-7.45 3.68-1.64 6.9-1.45 8.72 2.69 2.1 4.78 3.59 9.87 6.21 14.34 1.51 2.57 4.7 4.16 7.8 5.53-2-9.37-4.1-18.33-11.37-24.67-1.58-1.38-3.92-2.67-5.89-2.65-9.33.11-10.87-.78-14-10-13.25.68-13.25.68-12.27-10 2.83.34 5.69.62 8.52 1.07 12.6 2 23.89.61 32.36-10.6 4.87-6.44 12.55-8.49 20-10.55 7.88-2.17 11.18-7 10-15.17-.19-1.32-2-2.41-3.74-4.42.37-1.67 1-4.47 1.76-8.09 2.75 3.73 5.24 6.11 9.29 2.26a26.4 26.4 0 00.28 3.37c.54 2.41 1.2 4.78 1.81 7.16 2.25-1.12 4.54-2.16 6.73-3.38a14.43 14.43 0 013.72-2c-5.82 35.58-18.55 68.17-40.45 98-3.16-9.37-10.27-5.83-16.58-6.57zm52.48-94.17l-1.67-.47q.54-7.51 1.07-15l-.92-.32-1.36 3.68c-.79-21.72-5.63-42.66-13.1-63.63l8-2.73c2.75 13.25 5.39 26 8 38.66l1.66-.29Q941.77 293.54 938 273c.48-.19 1-.39 1.45-.6l-7.13-3.4c1.7-1.93 3.42-3.9 6-6.84-17-7.67-19-24.08-22.36-39.75q3.42 6.23 6.81 12.44l.84-.24c-.55-1.89-1.09-3.8-1.66-5.69-.66-2.11-1.34-4.21-2-6.31l1.46-.62q7.94 16.25 15.86 32.51l1.19-.22q-2.79-8.51-5.57-17c7.86 12.78 12 26.87 15.57 41.21a70.41 70.41 0 011.85 9.73c.15 1.52-.79 3.13-1.85 4.59 5.86 17.34 3 35 .13 52.52-.51 3.08-3.08 5.88-4.71 8.83zM927.17 209.4c-13.59-17.46-23.95-36.05-20.79-59.44q1.29 4.81 2.6 9.63l.59-.05c.14-1.87.29-3.73.43-5.59l.82-.17q1.8 7.31 3.63 14.63h.39v-11l1-.15q2.08 11.07 4.18 22.15l.91-.08v-12l1.14-.07q2.58 21.07 5.1 42.14zm-13.82 19c2.55 6.09 4.71 11.27 7.08 16.92-6.75-4.42-9.52-10.44-7.08-16.93zm-166 77.26c4.66-3.57 8.39-7.62 10.31-13.44 3.28-10 14.83-16.44 25.37-15.17 1.55.19 3.83-1 4.92-2.27 3-3.54 5.56-7.48 8.7-11.81 2.52 5.19 5.09 6.09 9.87 3 1.85-1.21 6.34 1.64 10.68 3 3.15-3.64 7.15-8.39 11.3-13 .94-1 2.72-2.52 3.62-2.24 8.52 2.7 13-2.74 17.4-8.31a19.27 19.27 0 001.67-3.11l1.57 1.18c-1.7 5.4-3.1 10.94-5.33 16.11-.55 1.27-3.82 1.86-5.86 1.87-3.2 0-4.33 1.22-4.32 4.32 0 2.41-.87 4.86-.73 7.26.28 5.4-1.75 8.66-8.23 8.92a58.23 58.23 0 002.81 7.03c1.64 3 1.23 4.57-2.28 5.75-8.6 2.88-8.55 3-7 12 .27 1.53.55 3.06.87 4.87-3.34.5-6.59.48-9.41 1.58-2.37.94-4.24 3.17-6.33 4.82.2.45.41.89.61 1.35-2-.4-4-.86-6.07-1.19a10 10 0 00-10.49 4.19c-4.77 6.42-10.85 10.41-19.42 9.89-11.93-.72-22.37 4.6-33.09 8.76-11.07 4.29-20.21 10.8-26 21.5-.87 1.62-2.4 2.89-3.85 4.58-4.65-5.15-1.24-10.46-1.11-16.35-4 5.24-7.52 9.92-11.49 15.16-4.05-8.71 4.19-14.07 4.8-21.58-5.44 2-4.48 12.6-13.06 9.05 2.54-11.16 10.43-18.21 20.87-20.9 5.12-1.32 9.87-4.79 14.29-8 8.37-6 16.29-12.58 24.46-18.83zM673.9 182.87c4.59 3.14 8.67 5.29 11.93 8.32 5 4.58 9.13 10 14.07 14.58 2.18 2 5.43 3.94 8.24 4 6.8.17 10.7 4.3 15 8.85-2.5 4.06-11.25 7.13-1.65 13.25-5.35 1.93-5.2 4.51-2.86 8.19 5 7.89.67 14.69-3.21 21.36-2.71 4.68-5.59 9.24-8.63 14.23l8.63 6.87c-8.77 8.09 2 12.85 2.25 20.17l11.52-7.91 1.22 1.2-4.87 8.84 10.45-2.2c-6.86 12.09-31.86 29.14-45.63 30.81-2.33-27.51-3.68-54.81 6.55-81.51.36 1.71.72 3.44 1.14 5.48h5.6c.82 2.17 1.54 4.08 2.23 5.93 10.42.34 11.74-16.27 6.37-22.39a53.88 53.88 0 00-5.23-5.13c-2.89-2.56-6-4.72-3.56-9.57.58-1.14-1-3.94-2.3-5.39-4.46-5.07-9.19-9.89-13.85-14.79a7.67 7.67 0 00-2.32-2c-7.12-2.78-7.31-3.16-4.76-10.74a7.06 7.06 0 000-1.6l-7.75-2.26c.38-1.53.73-3.24 1.42-6.59zm-4.83 29.5c12.48 9 13.31 20.13 9.34 34.23-3.43 12.19-3.5 25.33-5.06 38l.49-.16q4.51-23 9-46a15.3 15.3 0 011.16-4c3-5.61.63-10-3-14.18-5.54-6.38-11-12.77-15.79-20 9.3 7.73 18.71 15.32 27.74 23.34 1.25 1.11 1.22 4.55.7 6.64-3.19 12.82-7 25.47-9.94 38.34-1.28 5.71-1.15 11.81-1.09 17.72.15 15.38.65 30.76.9 46.14a13.4 13.4 0 01-1.19 6.07c-.77 1.5-2.64 2.44-4 3.64-.83-1.47-2.31-2.91-2.38-4.42-.62-13.79-1-27.59-1.44-41.39-.06-1.73 0-3.47 0-5.2h-1.8c0 11.1-.12 22.21.07 33.3.07 3.72-.8 5.18-4.92 5.18q-109.15-.18-218.29-.07c-1.2 0-2.41-.13-3.74-.21 0-7-.16-13.73 0-20.46.57-20.33-.35-40.54-4.91-60.45a26.92 26.92 0 00-2.66-6.71c-4.6-8.33-2.92-15.23 4.63-20.95a51.82 51.82 0 0010.36-10c9-12.06 21.26-12.32 34.06-9.7 32.21 6.56 64.71 9.07 97.4 6 21.16-2 42.14-5.64 63.27-8 3.31-.36 7.4 1.41 10.31 3.4 4 2.77 6.87 7.07 10.78 9.9zM428.46 334.18c-20.32-3.79-31.11-19-45.16-31.1 1.57-.27 2.31-.41 3.05-.52s1.28-.19 1.95-.27c-.46-2.41-.88-4.52-1.29-6.64l1.07-.91 12.27 8.07 6.42-15.81-4.52-4 8.13-6.54c-3.51-7.65-6.73-15.7-10.86-23.26s-4.43-8.34 1.23-14.42c1-1.12 2-2.3 3.46-4.05-3.56-1.05-6.41-1.9-9.81-2.89 2.38-2.16 4.39-4 7-6.4-4.91-.75-7.58-4.2-6.22-7.81 1.14-3 4.9-6.67 7.93-7.11 12.35-1.75 20.29-9.26 27.38-18.41a57 57 0 014.4-5.16c6-6 8.92-5.32 12.62 2.91-2 .62-3.95 1.22-6.38 2v4.27c0 6.34-1.15 7.33-7.63 7.47-1.36 0-3 1.21-4 2.35-5 5.77-10.17 11.49-14.63 17.7-1.47 2-1 5.44-1.69 9.56-13 10.93-15.15 24.52-.29 31.12.16-2.11.3-4.1.48-6.49 7.11 1.17 5.46-5.54 8.52-9.74 1.12 1.95 2.39 3.28 2.66 4.78 1.44 8.07 3.49 16.16 3.73 24.28.56 18.78.18 37.61.18 57.02zm-5.83-102.43c-2.18-3.75-.82-6.65 2.34-9.07 8-6.13 16.09-12.18 24-18.45a48.94 48.94 0 006.92-7c5.76-6.86 13-9.66 21.82-8.35 13 1.88 25.85 4.51 38.87 5.4 20.88 1.43 41.87 2.69 62.76 2.12 17.55-.47 35-3.86 52.53-5.54a179.91 179.91 0 0123-.4c1.55 0 3 2.46 4.54 3.77-12.79-1.13-23.88 3.32-35.26 5.06a408 408 0 01-104.47 2.91c-15.92-1.68-31.66-5-47.47-7.58a13.19 13.19 0 00-11.95 3.83c-8.49 8.24-16.91 16.55-25.45 24.75-3.72 3.57-4.5 7.4-2.7 12.31 10.47 28.57 13.15 58.07 10 88.2-.43 4.17-.69 8.37-1.4 12.5-.37 2.05-1.57 4-2.39 5.95h-1.72c-.86-4-2.47-7.93-2.45-11.9.07-14.66 1.05-29.33 1-44-.07-19.06-2.77-37.63-12.52-54.51zm-83.25 123.57a170.18 170.18 0 0115.4-11.67c8.68-5.53 16-4.5 24.18 3.11 3.62 3.35 7.26 5.59 12.49 5.41 1.72-.07 4.07 2.13 5.16 3.89 1.51 2.47 2.07 5.52 3.14 8.3 3.64 9.41 10.7 12.76 20.53 9.83 2-.57 4-1 6.27-1.59C431 410 441.23 444.17 474 468.28c-7.2.15-12.21-2.15-15-6.9-6.2-10.78-15.76-11.47-26.3-10-9.83 1.32-19.57 1.94-28.56-3.33a24.52 24.52 0 01-7-6.53c7.19 2.25 12 .21 14.79-6.39-1.92-2.61-8.53-2.19-5.75-8.32 2.52-5.59 6.1.46 9.34-1.52-1.76-8.37-10.55-16.67-1.27-26.16-1.79-.57-2.4-.84-3-.95-12.92-2.11-14.2-3.54-14.64-16.38-.24-7-4.56-11.88-12.91-14.95-10.63-3.89-21.41-3.93-32.5-2.5-6.06.78-12.3.14-18.46.14-.19-.69-.39-1.37-.59-2.07 2.41-2.42 4.63-4.99 7.23-7.1zm80.78 144.77c-.21-.58-.42-1.16-.62-1.75 8.47-4 16.81-8.42 25.48-12 6.07-2.51 12.56-4.07 18.94-5.73 1.76-.46 3.83.26 5.76.44a34.63 34.63 0 01-2.66 4.83c-.69.88-2 1.26-3.5 2.13 2.78 2 4.41 3.24 6.87 5-2.73 1.86-4.85 4.2-7.4 4.88-11.4 3-22.91 5.59-35.25 8.52l2.19-6.35zM423 468c-14.73 8-29.52 9.49-45 5.26-3.66-1-8-.57-11.1-2.42-7.53-4.55-10.88-8.36-4.55-19.66.51 2 1 3.86 1.65 6.37l4.31-4.69 14.23 6.84v-13.09L413 456.69c0 .35.05.7.08 1.05L403 459.57c3.58 3.66 6.94 3.17 10.57 1.17a64.74 64.74 0 019.31-4.66c1.68-.6 3.82.09 5.83 1.4l-14.36 6.23zm-39.74 14.59c-.71.85-1.26 2.1-2.17 2.47-11.07 4.61-22.18 9.1-33.29 13.61 5.56-10.61 15.43-14.39 26.23-16.59a26.89 26.89 0 015.71-.66c1.14.05 2.32.79 3.49 1.2zM337 369.82c11.16-.41 22.33-1.22 33.49-1.2 14.55 0 20.6 5.72 21.92 20.19.7 7.62 4.36 12.6 12 15.19l-5.49 4c3.84 3.22 7.46 6.24 11.64 9.73l-10.77 3.65-1 7.2c-3.3-3.2-5.76-5.49-8.1-7.91s-4.68-5.05-7-7.58c-.42.29-.85.57-1.28.85 1.6 12.78 15.73 14.23 22.6 23.74l-13-3.08v10.67l-1.51.6-10-16.65-1.13.3v24.84c-13.9-7-9.43-19.34-10.19-30.63l-6.48 3.5c.66-13-.42-25.68 10.21-36.52-6.09.54-9.47-1.32-10.4-6.65-.2-1.11-1.71-2.18-2.86-2.91-6.38-4-22.06-2.23-27.8 3.65-.6-2.69-1.29-4.9-1.55-7.15-.73-5.9.85-7.65 6.7-7.83zm-5.62 32.41c6.36-.77 12.68-2.29 18.79 1.67 2.93 1.89 3 3.07 1 5.61-3.66 4.7-7.49 8.78-14.08 8.71-1.11 0-2.23.83-4.16 1.59l10.59 7.19-11.19 6.45 9.95 8.89-3.39 4.8 5.76 1.88c1.63-3.89 3.09-7.36 4.65-11.1l-7.08-3.11c2.39-3.68 4.6-7.11 7-10.8l-6.12-3.27c9.48-2.79 14.85-8.11 14.42-17.8l1.65-.17c.4 1.53 1.41 3.2 1.1 4.58-3.55 15.71-7.28 31.38-11.06 47.44l6.61-.39c-2.69 6.6-4.2 13.49-8.07 18.61-2.39 3.14-8.33 3.71-12.76 5.15-17.56 5.71-35.17 11.31-52.77 16.94a24.57 24.57 0 01-2.73.53c-.37-.91-.68-1.69-1-2.46-3.25-7.69-5.08-8.49-12.64-4.74-4.88 2.42-9.64 2.9-14.57.49-6.2-3-8.85-7.69-7.61-14.44a59.4 59.4 0 013.73-12.5c.58-1.35 3.48-2.93 4.81-2.55 5.8 1.65 11.41 4 17.1 6.06l-3 12.38c8.74-3.15 16-10.79 26.09-3.47-.41-3.43-.68-5.59-1-8.16 4.32-1.35 8.62-2.57 12.82-4.06 1.46-.52 2.68-1.73 4-2.63a30.53 30.53 0 00-3.05-3.17c-.93-.75-2.24-1-3.21-1.75-3.28-2.49-3.07-5.22.51-7.23a78.38 78.38 0 007.3-4.07c7.8-5.56 10.21-13.8 10.9-22.79a59.8 59.8 0 000-6.28c-.21-10.71-.22-10.72 10.7-12.03zm-91.24 110.55l-16.06 3.76c0-2.94-.05-5.18 0-7.4.14-4.36-1.28-7.26-6.06-8.23-4.08-.84-7.53-9.5-6.64-15a45.89 45.89 0 000-6.67c2.81-.13 4.7.95 4.36 4.68-.12 1.19-.31 2.72.28 3.59 1.21 1.77 2.71 4 4.49 4.48 1.25.32 3.58-1.8 4.62-3.36.62-.93-.3-2.91-.55-4.41-.09-.47-.27-.93-.4-1.41 13.17-4.27 19.27 6.84 28.21 11.7l-.54 1.35-10.1 1.14-.21 1 11.71 3.89-.41 1.77c-7.65 4.87-13.39-1.83-20.19-4.81-3.08 7.65 5.41 8.73 7.49 13.93zm-23 11.87c-5.3-9.81-10.11-18.73-15-27.83 8.67-.48 16.98 14.67 15.04 27.83zm-9.36-58.91c1.68-1.11 2.76-6.25 5.62-2.22 1.94 2.72 2.14 6.68 3.1 10.08l-1.38.58a73 73 0 01-8.2-4.5c-.43-.32.08-3.36.9-3.94zm44.58-30.85l.18 1.84c-4.42.79-8.84 1.59-14 2.53 5.13 6.32.93 11.1-1.21 16.27-2.37 5.73-4.39 11.6-6.73 17.89-2.34-1.7-5.23-3.33-7.45-5.61-1-1.06-1.35-3.49-1-5.1 1.08-5.06 2.62-10 4.16-15.7l-5.52.32c2.82-6.71 5.6-13.49 8.52-20.21 2.26-5.19 5.49-7.16 9.6-5.69 3.28 1.18 6.17 2.89 3.82 7.27a16.33 16.33 0 00-1 3.54zm23.82-69.66c4.44-4.89 9.39-9.35 14.2-13.9 6.24-5.89 10-13.19 13.29-21a15.2 15.2 0 018.11-7.71c8.43-2.8 11.61-.49 11.36 7.68-.1 3 1 6.13 1.7 9.82l-6.72-.57c1.1 1.76 1.89 3 2.89 4.65l-4.76.68c.74 1.77 1.43 3.44 2.45 5.9l-8-1.7c-7.35 11.74-6.11 23.59-1.24 35.91 5.3 13.45 8.28 27.34 5.21 41.95-2.07 9.81-11.68 16.11-20.39 12.51l11.58-10.64-1-1.26-8.55 6.31-13.42-11.51a60.54 60.54 0 01-3.1 5.52c-.5.71-1.6 1-2.42 1.46-.51-1-1.69-2.19-1.43-2.85 2.7-6.76-1.69-12.12-4.31-17.08-8.35-15.76-7.35-31.01 4.59-44.17zm-.54 72.49l6.14-3.1c1.59 5.14-5.9 13.21 5.47 14.36-.34 5.52-.69 10.87-1.1 17.18-2.29-2.59-3.95-4.48-6-6.83-1.51 3.11-2.82 5.85-4.66 9.67-.81-4.52-1.44-8-2.2-12.23-4.65.48-9.39 1-15.51 1.62 2.4-2.86 4-4.76 6-7.19l-14.71-7.67c3.8-3.49 7.32-6.7 11.63-10.65l-14.09-2.82c9.13-10.48 9.13-10.48 8.13-15.88 5.66 1.68 6.58 2.71 20.94 23.54zm-53.62-95.91c.08.6.15 1.2.22 1.79l23.12 3.25c.16.51.32 1 .47 1.51-3.7 1.5-7.32 3.26-11.12 4.45-8 2.49-9.22 3.66-8.5 11.76.43 4.79 1.16 9.82 3.05 14.18 1.67 3.83 5.14 6.89 7.77 10.23-5 3.18-13.18 2-16.4-4.05-2.69-5-6.71-7.7-11.64-9.8-2.06-.88-4.11-1.8-6.15-2.73l-2-.94-4.27-2-3.87-1.8a.15.15 0 000 .07c5 4 9.9 8.08 14.9 12.06 3.25 2.6 7.14 4.63 9.77 7.74 8 9.42 18.07 11.72 29.7 10.18 4.14-.54 8.33-.61 13-.93v8.72l-12.1-.77c-.84 4.65-1.62 9.07-2.36 13.13-5.47 0-10.69-.65-15.61.28-2.26.44-5.44 3.91-5.59 6.17-.64 10.14-3.26 14-14.24 19.3.3 2.59.62 5.23 1 8.41-15-12.83-39.63-72-41.17-98.85a63.61 63.61 0 006.23 4.74 7.56 7.56 0 004.73 1.15c.7-.14 1.13-2.53 1.39-4a44.16 44.16 0 00.32-4.94l8.11.4c.25 2.24 2.08 5.17-2.65 6.69-.95.3-1.95 4-1.29 5 1.36 2.19 3.85 3.69 5.88 5.48l-.19-.15.18.08a5.86 5.86 0 010-1.92 2.75 2.75 0 01.1-.34 2.11 2.11 0 01.16-.3 1 1 0 01.44-.39.26.26 0 01.12-.05.83.83 0 01.28-.08 1.78 1.78 0 01.41 0 4.29 4.29 0 011.47.26c2.11.66 4.28 1.12 7.69 2-6.89-8.15-12.1-15.84-7.94-27 3.88 6 7.35 11.54 11 16.93a5.15 5.15 0 004 1.84c-7-6.57-6.86-14.23-5-22.48.85-3.86.81-7.91 2.3-12.43l6.6 15.4c6.68-8.41 10.23-9.86 18.73-7.18zm-54.47-54.29c2.91-18.62 8.28-36.47 17.6-53.1q-3.18 9.89-6.35 19.79l.8.31q8.88-18.77 17.77-37.51l1.83.77q-1.77 5.29-3.53 10.58l1 .5q3.48-6.35 6.94-12.69l.9.28-6.79 23.17.91.33c2.19-4.83 4.36-9.65 6.67-14.76 5 10.11-11.82 31-28.24 35.11l5.27 8.13c-2.61 1.46-4.81 2.67-8 4.48l5.06 2.15c-2.4 14.21-4.75 28.11-7.1 42l1.23.24c2.76-13.72 5.52-27.43 8.42-41.87l7.52 2.46c-5.86 20.17-11.48 40-10.48 61.57l-2.89-2.53v14.49c-4.84-3.95-7.35-8.65-7.56-13.71-.52-13-.39-26.14-.14-39.2.05-3.18 1.55-6.33 2.48-9.84zm-6.2 20.22c-.8-1.25-1.61-2.49-2.4-3.74 7.38 29.23-1 55-14.25 79.94l-1.37-.14c.21-1.33.4-2.67.66-4a33.93 33.93 0 011-4.6c8.54-25 8.76-50.59 7-76.62-1.92-29.1-2.74-58.3-3.3-87.47-.17-9 2-18 3.3-27a8.77 8.77 0 012.3-4.19q-1 10.05-1.93 20.09l1.24.24c1.08-5.66 2.18-11.31 3.26-17l1.42.19c-.47 7.35-.92 14.7-1.46 23.45 2.32-10.88 4.32-20.31 6.34-29.74.42.08.85.14 1.27.21-.85 6.9-2 13.79-2.51 20.72-1.15 15.84-1.93 31.72-3.05 47.56-.09 1.38-1.49 2.68-3 5.16 7.32 17.12 6.22 36.77 5.52 56.94zm-25-.42c-.79-14.26-1.41-28.53-2.1-42.79l1.89-.18c.41 1.9.83 3.79 1.24 5.69h.42v-22.9l.75-.1q.84 4.56 1.7 9.1c1.53-18.55 0-37.27 4.13-56.87 0 14-.53 26.8.12 39.47 1.24 24 3.16 48.06 4.78 72.08 1 14.29.79 28.53-2.63 42.61v-10.59l-.83-.18q-1.83 7.43-3.63 14.86l-1.73-.07c-.35-4.55-1.52-9.22-.89-13.63 1.8-12.49-2.57-24.32-3.19-36.5zm32-124.2v13.67c.25 0 .5 0 .74.06q3.25-18 6.54-36l1.09.16q-1.92 20.31-3.84 40.58l.69.14 6.82-36 1.6.27-1.65 16.75.49.11q2.34-9.36 4.69-18.74l.89.17-1.3 19.75c.28 0 .58.09.86.15q3.65-17.05 7.28-34.12l1.07.19c-1 9.16-1.52 18.39-3.09 27.45-2.33 13.56-5.33 27-8.24 40.47-.28 1.29-1.94 2.29-3.83 4.38 1.86 12.05-3.15 23.73-11 35v-39.39l-2.13-.25c-.51 4-1 8.06-1.55 12.09a115.5 115.5 0 013.93-46.89zm30.14-7q2.19-11.33 4.37-22.66l.85.1V166l.38.16q2.15-10 4.3-19.94l1.05.28v5.67l.93.23 3-9.88c2.61 24.64-7.52 43.67-21.69 61.36q2.55-21.22 5.07-42.46l1.27.1v14.53zM191.26 313c1.26-4.85 2.19-9.82 3.89-14.52 1.55-4.26-.47-10.77 6.68-12.48.79 10.85-5.74 42.85-10 48.41.37-3.39.67-6.11 1-8.82l-.72-.13-4.55 13.12c-4.39-12-2.52-31.31 4.73-53.86l1.41-.14c.2 2.26.89 4.61.5 6.76-1.29 7.12-3 14.18-4.53 21.25zm11 6.16c.56-10 .93-19.91 1.83-29.77.2-2.16 2.28-4.13 3.5-6.2.51.23 1 .46 1.53.68.12.82.24 1.63.34 2.45s.12 1.36.13 1.49l7.27-14.08 1.45.61c-8.31 39.66-9.61 43.34-16.03 44.79zm14.94 10.35c-2.48-3.07-5-6.11-7.5-9.23l3.44-5.66c3.77 3.71 6.18 12.3 4.08 14.86zm14.62-17.9l-1.89-.39q1.52-13.44 3-26.86l2.12-.05c.38 3.06.76 6.12 1.19 9.51 4.72-7.36 4.78-14.63.46-23.11-10.21 14.55-11.64 31.26-15.23 48-5.18-10-4.45-32.33 1.16-37.15.15 2.61.28 4.87.4 7.13h1.14c2.69-9.22 5.39-18.43 8.48-29 7.89 3.87 15.84 7.74 24.28 11.87-1.45 4.07-2.72 7.67-4 11.27h-1.36c-.52-2.41-1-4.81-1.66-7.75-8.33 11.25-8.39 26.39-18.07 36.5zm5-57.7c6.13-3 14.15.92 17.76 9l-9.04-5.91c-.14 1.47-.24 2.59-.39 4.12zm27.31 13.86c3.36 16.29-4.26 27.51-15.88 37.19a20.91 20.91 0 01-7.77 4.43 18.31 18.31 0 011.14-2.91c5.6-9.18 11.87-18 16.73-27.6 5.48-10.79-.29-23.6-11.1-29.05-8.8-4.44-21.48 2.23-20.08 12.67.5 3.78-1.55 7.9-2.43 11.86l-2-.32c-1.4-4.95-2.78-9.9-4.36-15.48-4.07 8.71-3.85 19.48-15 23.94 1.31-5.08 2.49-9.6 4-15.26-7.14 4.8-12.76 11.17-22.12 6.18l11.56-6.12c-3.61-.75-6.36-1.34-9.38-2 5.44-11.39 19.13-16.87 21.27-31.36a51.58 51.58 0 007.32 3c8.23 2.09 16.47 4.28 24.83 5.75 12.62 2.17 19.68 7.57 23.29 25.05zm-215 273.2l-1.38.7c-2.81-4.31-5.87-8.48-8.34-13-6.63-12.07-9.12-25.29-9.26-38.85-.05-4.45-2.4-7.94-3-11.88-4-27.73-6.95-55.53-1.49-83.46a2.35 2.35 0 011.34-1.76q-.67 10.08-1.37 20.17l.63.16c.58-1.46 1.15-2.93 1.73-4.39l1.19.15q-.64 13.63-1.32 27.26c.21.05.42.08.63.11.56-3.88 1.13-7.76 1.68-11.64l.81.07V449h.84l1.89-18.33 1.3.08v48.75h.41q1.28-25.95 2.58-51.9h1.27v28l1 .13c.51-3.37 1-6.73 1.5-10.1l.82.81 3.55-3.7c-6.26 33.35-4.53 65.86 2.96 98.2zm63.29-.22c-.31-2.6-.63-5.18-1-7.77h-.39c-.7 6.38-1.4 12.77-2.23 20.3-1-1.67-1.45-2.37-2-3.3l-3.33 3.63c-1.8-11.91-3.47-22.61-5.05-33.29l-1 .06c-.19 1.72-.37 3.45-.71 6.62-9.56-23.39-22.37-44-26.2-68.86l-2.29 2c-16.81-32.22-26.59-66.37-27.52-103.38l-2.33 2c-3.59-2.52 4.15-30.87 11.31-41.29.17 2 .29 3.64.43 5.3 6-34.53 17.14-66.9 38.85-95l-1.22-1c-2 2.28-4 4.55-5.91 6.85s-4 4.78-6 7.16l-1.09-.66c3.06-5.28 6-10.66 9.23-15.82 2.49-4 5.62-7.57 8-11.6 1.06-1.8 4-3.09 1.61-6.77-.92-1.42 2.9-6.21 5-9.16 4.31-6.11 8.91-12 13.67-18.4l-2.98-1.37 8.09-13.3-1.29-.88c-4 5.1-8.21 10.07-12 15.33C87 201.74 73 227 62.9 254.36c-7.17 19.43-13 39.35-20.09 58.83-3.93 10.89-9 21.38-13.71 32-.74 1.67-2.28 3-4.64 4q2.34-6.78 4.66-13.56L28 335c-6.51 11.79-12.4 24-22.67 33.3 4.73-14.21 9-28.58 14.28-42.59s11.48-27.5 17.26-41.2l-3.12 2c-4.88-1.85 19.13-59.49 29.19-68.83-2 4.57-3.58 8.22-5.17 11.86l1.33.7c7.57-13.06 15.58-25.89 22.59-39.23 11.29-21.47 25.52-40.73 41.57-58.77A140.19 140.19 0 00137 114.37l-14.71 13.26-.59-.48q2.61-3.57 5.23-7.15l-.63-.64c-4.93 4.62-9.8 9.3-14.8 13.84-5.15 4.66-10.15 9.57-15.74 13.65S84.09 154 78.19 157.58c-.35-.55-.7-1.08-1-1.62 3.56-2.74 7.37-5.22 10.64-8.27q27.4-25.5 54.57-51.24c15.28-14.45 30.41-29.16 45.85-43.52 3.35-3.12 7.61-5.27 11.45-7.87l1.3 1.42-14.45 12.59c.48.53 1 1.08 1.46 1.61 10.73-8.83 21.39-17.75 35-22l-9.8 7.82.61.87c5.44-2.9 10.76-6 16.34-8.64 11-5.12 22.56-8.55 34.93-7.38C289.23 33.59 296.36 51.15 286 71c-6.63 12.74-15.71 24.2-23.64 36.28C246.2 132 235.27 158.72 230.74 188c-.54 3.46-.08 7.08-.08 10.62h1.54c.56-2.78 1.13-5.55 2-9.95 2.29 7.52 4 13.57 6 19.55a58.72 58.72 0 0017.34 27c2.11 1.84 3 5 4.51 7.61-.76.57-1.53 1.12-2.28 1.68-7.22-7.13-14.43-14.27-22-21.81 1.43 3 2.63 5.81 4.08 8.47s3.16 5.23 4 8.7c-2-1.14-4-2.26-5.91-3.3-4.54 4.2-9.93 1.38-14.84 1.41-7.57 0-4.69-8.41-9-11.68v6.7c-.58 0-1.15.06-1.72.09-5.32-9-2-18.67-.81-28.32 4.53 9.78 7.58 20.23 15.61 28-1.26-3.14-2.51-6.29-3.79-9.42-4.9-11.93-7.76-24.47-7.51-37.26.23-11.22 2.29-22.42 3.76-33.61.73-5.49 1.94-10.92 3.06-17l-2.81 2.59-1.23-.53 5.83-17 1.47.26 1 3.57c11.11-14.12 27.7-22.62 35.71-39.27l-8.51 7.59c1.63-8.07 3-14.78 4.34-21.49l-1.42-.51c-5.58 15.63-10.48 31.85-30.74 37 7.6-10.51 14.61-20.13 16.47-30.95-4.78 7-10 14.93-15.57 22.66-4.31 6-10.36 7-17.75 5 3.89-9 7.65-17.81 11.43-26.58-.49-.25-1-.52-1.47-.78-9.83 16.22-19.2 32.84-35.73 44.45 3.93-11.37 7.64-22 11.35-32.74l-2.07-.88c-7 16.22-13.06 33-26.65 46.92 2.55-8.25 4.74-15.28 6.92-22.31l-1.35-.5c-2.32 5.45-4.33 11.08-7.05 16.33-4.81 9.28-10.06 18.33-15.14 27.47-8.64 15.54-13.9 32.31-17.87 49.54-6.06 26.33-6.85 52.93-4.29 79.76.19 2 2.73 5.79-2.41 6 5.69 20.44 9.31 40.75-1 62a216.07 216.07 0 01-13.84-55.36c-.33 1.41-.64 2.84-1 4.26l-1.6.2c-.82-4.78-2.53-9.59-2.34-14.32.7-17.24 2-34.45 3.09-51.68a5 5 0 00-1-3.9c-1.9 7.91-4 15.8-5.65 23.77-3.07 14.93-2 29.8.4 44.75.66 4.12 3.94 9.36-1.67 13.1-.32.21.38 1.91.55 2.93 1.8 11.17-1.46 33.11-7.79 42.66-1.65-11.43-3.19-22.18-4.75-32.92h-.71v12.24h-1.3c-3.82-13.67-1.15-27.75-2.38-41.83l-1.54 5.42-1.13.06q-.72-7.68-1.4-15.37l-.89-.17c-.31 2.19-.77 4.38-.87 6.59-.82 16.84 1 33.47 3.35 50.13.66 4.73-1.16 9.78-1.79 14.69a22.62 22.62 0 00-.22 4.11c.32 6.21 3.08 12.4-1.27 18.55-1.22 1.72.06 5.11-.11 7.7a35.87 35.87 0 01-1.2 5.47c-.44-.06-.89-.12-1.34-.2-3-31.15-6-62.3-9.12-94.3l3.54.9c1.18-8.7 2.25-17.44 3.6-26.13.43-2.78.62-5.48 4.36-7.11 2.06-.9 2.51-5.46 3.68-8.35l.46.15c-.11 1.32-.23 2.63-.38 4.44.84-.46 1.41-.56 1.53-.86a37.76 37.76 0 011.74-4.89c.76-1.36.1-4.81 3.59-3l3.33-6.81c-1 9.14-2.57 17.91-2.85 26.71-.3 9.05.43 18.16 1.11 27.22s1.86 17.9 2.81 26.86c.74-.07 1.46-.12 2.2-.17-1.23-14.92-2.47-29.83-3.75-45.32l3.39 1.58c-4.82-34.16 4.53-64.82 21.08-93.88q-.64-.33-1.29-.69c-5.3 7.77-10.8 15.41-15.84 23.33a294.7 294.7 0 00-30 62c-4.26 12.36-7.33 25.13-10.91 37.72-.18.67-.55 1.8-.28 2 3.82 3.05 3.71 7.2 3.9 11.55a44.18 44.18 0 002.83 12.82v-11.25c3.46 16.87 7.9 33.64 4.73 50.92l-2 .31c-1.15-6-2.3-12-3.49-18.24l-2.84 2.25c-1.57-6.84-3-13.25-4.82-21.09-1.47 28.37 12.93 49.76 25 73.11l-3.16-1.55a5.11 5.11 0 00-2.61-.61c10.71 11.88 18 25.59 22.86 40.58 2 6.37 3.14 13 4.88 20.45l-4.27-2.21c8.08 22.48 15.7 44.41 11.62 68.32zM108 429.32l-2 .68q-2.49-8.19-5-16.38l1.39-.49q2.78 8.1 5.61 16.19zm37.7 76.74l-3.53-7.68c0 15.3 5.05 30.56-.86 45.74-.1-1.88-.21-3.75-.39-7-3.81 10-2.68 20.55-12.08 27.56-1.3-16.49-2.61-33-4-49.8a847.4 847.4 0 00-1.85 4.75c-.69-.17-1.28-.22-1.29-.33a62.21 62.21 0 00-3.51-14 140.1 140.1 0 01-7-32c-.63-6.3-1.71-12.47-2.4-18.69-.55-4.84 1.73-10 3.88-15.39l19.47 68.69c-5.19-33.88-17.49-66.08-25.22-99.37l1.48-.4c1 2.3 2 4.6 3.46 8.1.18-2.54.27-3.88.45-6.35 6.48 7.23 6.59 16.24 10.88 23.38l-2.89-14.67c.4-.17.81-.34 1.2-.52 1.7 3.38 3.37 6.77 5.07 10.15.29-.08.58-.17.89-.24l-8-33.66c11 24.13 18.13 49.39 23.22 75.75l-3.63-.7c4.95 11.53 9.5 22.62 6.61 36.68zm5.86 48.84q2.46-20.26 4.91-40.51c-.33-.07-.67-.12-1-.18-.47 2.16-.93 4.33-1.4 6.5l-1.46-.15c.17-3.44.34-6.88.56-11.55l-1.88 2.81-1.14-.09q2.07-17.61 4.14-35.2l-1.37-.3c-.76 2.82-1.51 5.62-2.39 8.91-7.46-29.74-14.77-58.84-22.08-87.93l.54-.28q5.78 15.09 11.55 30.19l1.24-.39q-1.35-6.78-2.69-13.55l1.15-.37q3.18 9.78 6.38 19.54l1.22-.24q-1.5-8.3-3-16.57l1.1-.44a32.7 32.7 0 011.78 4.67c1.52 6.78 2.75 13.63 4.41 20.38.59 2.41 2.14 4.6 3.2 6.91.92 2 2.25 4 2.59 6.1 2.8 17.09 5.19 34.32 3.3 51.61-1.86 16.88-4.84 33.63-7.32 50.43zm21-40.07l-2.77-5.67c2.55 20.14-3 36.68-13.34 52a438.46 438.46 0 006-69.68c0-23.41-2.23-46.41-7.76-69.16l2.07-.35 9.41 47.85h.34c-.84-8.17-1.83-16.32-2.47-24.5-.23-3 .65-6.07.5-9.08-.24-4.63-.92-9.24-1.48-13.85-.18-1.49-.6-3-1.15-5.52 9.38 13.02 15.81 74.58 10.57 97.96zm-6.31-101.89c.72 1.31 1.47 2.6 2.17 3.91a9.21 9.21 0 003.38 4.13c-.73-2.84-1.47-5.67-2.2-8.51.27-.13.53-.27.79-.41q5 9.15 10 18.29l.73-.3c-.28-1.44-.55-2.88-1.08-5.59l5.43 6.31c-10-22.95-19-46-21.13-70 5.57 16 11.07 33.1 17.53 49.85s15.78 32.22 27.2 47l-7.28 8.71c-17.79-14.12-30.5-31.16-35.62-53.39zm17 102.36c-1.68-3.28-3.17-6.18-4.65-9.08l1.37-.56c5.81 4.75 6.03 5.34 3.23 9.64zm4.42-51l13.31 9.44-5.13 2.82c2.33 5.68 13 8.5 6 17.93-5.17-10.1-10.09-19.74-15-29.38zm2.29 49.83c5.09-6 15-5.42 20.24 1.58a37.29 37.29 0 01-4.84 1.68c-4.61.85-6.83 2.93-4.86 7.88.33.85-.43 2.15-.69 3.25a13.74 13.74 0 01-3.21-.82 49.59 49.59 0 01-5.6-3.7c-4.17-3.07-4.44-6-1.09-9.9zm146.94 13.95c-5.65 1.76-11.62 2.6-17.12 4.7C301 539.88 282.19 546.72 264 555c-14.08 6.4-28.13 12.12-43.56 14-5.54.71-11.67-2-14-7-4.53-9.76-8.93-19.58-13.82-30.33 9.66 3.67 17.83-.19 26.2-2.43 5.19-1.38 10.32-3 15.57-4.1 4.58-1 8.65-2.29 11.44-6.47.68-1 2.71-1.29 4.17-1.52 2.28-.36 5 .29 6.84-.68 8.11-4.25 16-9 24-13.43 17.51-9.7 36.47-15.58 55.69-20.66a54.49 54.49 0 0116.67-1.52l-40 12.89c.11.43.23.86.34 1.29l11.58-2.55c.13.39.25.8.38 1.2l-13.92 6c.09.32.19.64.28.95l10.71-1.93.32 1-15.61 7.29c.09.31.17.62.26.93H324c.1.37.22.74.32 1.1l-12.32 5.5c1 .87 1.84 1.56 3.26 2.74l-6.7 4.29a34.33 34.33 0 013 5.37c1.11 3.3 3.33 3.09 5.87 2.37 6.18-1.76 12.33-3.64 18.54-5.24 1.22-.32 2.69.35 4.05.57-1.1 1.18-1.91 3.03-3.17 3.42zm54.88 15.09c-5.79 2-11.61 3.77-17.39 5.75-7.2 2.47-12.22 1.26-16.31-5.14-7-11-13.65-22.21-20.92-34.11 9.21-3.42 17.63-6.61 26.09-9.69 21.61-7.85 43.13-15.95 64.9-23.35 11-3.74 22.25-7.31 34.2-4.94 1.25.25 2.31 1.43 3.47 2.18a25.84 25.84 0 01-3.15 2c-14.6 6.54-29.41 12.63-43.74 19.68-8.33 4.11-8.9 9.13-4 17.12 2.83 4.59 5.45 9.32 8 14.06a29.56 29.56 0 011.62 5.11c-11.17 3.85-21.99 7.61-32.82 11.3zM684 548.5c-2.84 7.39-7 9.33-15 7.61-9.37-2-18.55-5-28-6.78-15.93-3.06-31.88-6.69-48-8-20.51-1.62-41.26-2.35-61.78-1.13-18.55 1.1-36.93 5.18-55.35 8.22-9.8 1.61-19.46 4-29.27 5.64-8 1.32-10.69-1.24-13.23-8.92-3.5-10.55-7.75-20.86-11.81-31.65 11.38-2.7 23-5.47 34.7-8.2 14.11-3.31 28.35-6.1 42.29-10 18.39-5.12 33.67.27 47.39 12.25 3.53 3.08 6.73 6.53 10.5 10.22 7.79-5.59 16-10.86 23.48-17 9.11-7.48 18.41-9.19 30.1-6.42 27.14 6.43 54.6 11.51 81.94 17.17 1.16.24 2.27.73 4.3 1.38-4.08 12.31-7.8 24.11-12.26 35.61zm75.5-2.5c-2.91 4.36-7.51 6-12.9 4.33-17.6-5.33-35.28-10.6-53.52-16.06 3.86-8.48 7.34-16.46 11.11-24.29 3.11-6.48 2.72-10.9-3.6-14.16-10-5.15-20.57-9.31-30.94-13.8-4.9-2.12-9.89-4-14.84-6l.51-2.2c12.16 2 24.77 2.57 36.4 6.23 26.76 8.42 53 18.33 79.5 27.65 3.24 1.13 6.46 2.3 10.32 3.68-7.47 11.78-14.54 23.35-22.04 34.62zm152.65 20.36c-1.2 2.13-4.71 3.54-7.42 4.15-10.69 2.42-21-.58-30.68-4.33-23.4-9-46.51-18.83-69.73-28.33-3.39-1.38-6.8-2.71-10.06-4.33a12.31 12.31 0 01-4.36-3.44c-3.09-4.19-2-6.43 3.11-7.11a30.17 30.17 0 003.07-.83l-9.48-4.71c.12-.48.23-1 .35-1.47l17.24 4.19c.15-.42.29-.83.43-1.25l-14.27-6.53c.11-.41.21-.82.32-1.24l15.1 4.26c.15-.33.29-.67.42-1-3.71-2-7.43-3.9-11.15-5.85l.46-1.17 11.28 2.35c.11-.39.2-.79.31-1.19l-11.44-5.64c.13-.39.26-.78.37-1.17l13.63 3.11c.12-.36.25-.71.37-1.07q-9.81-4-19.63-8c.09-.28.18-.58.28-.87l13.64 2.28c.13-.47.28-.95.41-1.42-3.23-1.09-6.43-2.26-9.7-3.26-9.83-3-19.71-5.91-29.52-9-1.51-.48-2.75-1.8-4.11-2.73q.55-1 1.14-2c13.09 3.92 26.37 7.34 39.24 11.89 16.93 6 33.63 12.63 50.21 19.52 4.1 1.72 7.33 5.52 11.74 9a11.23 11.23 0 001.86-1c3.63-2.34 7.2-1.79 8.93 1.87 3.56 7.55 10.75 8.26 17.29 10.07 10.84 3 21.81 5.59 34.1 8.69-4.77 9.69-8.9 18.82-13.75 27.55zm18.52-39.48c-3.38 1.69-6.52 3.88-10.79 6.48-.34-2.31-1.08-3.86-.62-4.84 2.79-5.94-.66-7.62-5.48-8.68a21.08 21.08 0 01-3.68-1.57c6.17-8.66 19.57-5.49 22.58 2.21 1.09 2.8 1.13 4.82-2.01 6.39zm4.49-11.33l-2.52-1.5 5.65-8.63c.63.37 1.26.73 1.88 1.11zm-19.07-48a4.81 4.81 0 01-.75-.49c-5-7.94-4.89-7.87.56-15.85a232.86 232.86 0 0032.78-72.48c1.75-6.65 3.58-13.28 6-19.75-.88 25.31-11.2 47.94-20 71.23.79-.88 1.65-1.72 2.38-2.63a9.21 9.21 0 012.84-2.78c-.59 1.86-1.19 3.72-1.78 5.57l.84.41q4.08-7.14 8.15-14.3c.41.15.83.31 1.25.45-.54 2.29-1.06 4.59-1.59 6.88l.75.26 6-11.58 1.14.74c-7.51 21.88-17.95 41.67-38.57 54.31zm33.25 40.07c-1 2.26-1.88 4.52-2.83 6.78l-1.34-.34c-2.6-31.69 2-62.64 8.93-93.36l1.4.15c-.82 14.91-1.63 29.81-2.4 44 3.38-15.73 6.92-32.14 10.44-48.55l1.63.34q-3.82 23.4-7.64 46.82a176.09 176.09 0 00-1 48.58c1.83 15.89 3.75 31.76 5 47.74-10.26-15.93-15.98-32.87-12.19-52.17zm10.21-321.26l1.27-.25q2 10.44 4.06 20.87h.4V191.5c.37-.06.76-.12 1.14-.2.65 3.59 1.88 7.18 1.88 10.78 0 24.11.09 48.23-.43 72.33-.42 19-2.16 38-2.42 57.07a136.63 136.63 0 009 50.28 14.58 14.58 0 01.42 2.18c-5.85-3.88-10.08-12.36-11.2-21.31a31 31 0 00-2.53-7.74c-4-9.45-4.33-19.35-3.57-29.33.43-5.88 1.45-11.71 2.31-18.45l-2.9 4.31c-.48-.22-1-.36-1-.49.07-17.64-.06-35.29 4.74-52.52.3-1.11-.68-2.55-.93-3.85a23.52 23.52 0 01-.63-4.53c.13-18.91-.42-37.75-4.06-56.39a16.82 16.82 0 01.91-8.47q2.31 10.79 4.58 21.56l1-.11c-.72-6.76-1.39-13.51-2.04-20.27zm13 15l2.08-.14c1 20.63 2.07 41.26 3 60.94.37-2.06.94-5.13 1.49-8.19l.72.08V272l1.23.3c.6-2.06 1.19-4.12 2-7-.16 3.44-.52 6.18-.37 8.89.28 4.9 1.19 9.78 1.25 14.68 0 3.75-.8 7.53-1.33 11.29-.77 5.64-1.86 11.25-2.37 16.91-.39 4.25-.07 8.57-.07 13.85l-2.56-2.12v32.49l-1.37.19C975 356.2 973.62 351 972 344.65c-.16 3.92-.29 6.74-.42 9.57-.34 0-.7.08-1.05.12-.67-5.72-2.12-11.48-1.87-17.16.85-20 2.56-40.05 3.42-60.1.89-20.94 1.27-41.9 1.66-62.86.07-4.29-.74-8.6-1.21-12.9zm-4.62 284c-1.06-3-1.84-5.17-2.61-7.36l-1.42.26c1.11 7.26 2.14 14.55 3.35 21.79.74 4.41 2.6 8.67-1.14 12.9-1.07 1.21-.52 4-.45 6a52.51 52.51 0 00.8 5.38l-.8.16-2.49-8.3-.88.12 3.44 30.31c-.6.08-1.19.16-1.79.26-1.88-11.11-4.31-22.15-5.5-33.34-2.14-20.07-1.82-40.13 2.83-59.93.37-1.57-.83-4.77 3-3.55.33-1.29.73-2.58 1-3.88q2.87-13.41 5.69-26.84l1.87.34q-.84 6-1.7 12l.38.14q3.32-8.34 6.61-16.7l1 .28q-2.13 10-4.24 19.95l.66.18q5.9-16.31 11.78-32.6l1.08.38zm32.74 21.67c-.75 1.22-2.42 1.85-4.89 3.59v10c-1.34-2.38-1.93-3.42-2.38-4.23-1.53 15.83-3.08 31.73-4.61 47.61l-1.53.2c-6.3-7.74-7.88-17.23-9.5-26.93-.33 1.93-.64 3.85-1.21 7.28-4.2-16.29-1.08-31-.24-46l-3.8 7.91c-1.86-13.59 0-24.89 6.94-36l-4.16 1.45c5-24.7 11.33-48.31 21.92-70.76q-3.81 16-7.61 32l.58.19 6.37-14.49 1.22.37-2 10 .88.28 7.43-17.26 1.3.31c.18 1.22.35 2.45.55 3.79.81-1.1 1.6-2.15 2.39-3.2.21.09.43.16.65.24L988 495.64a52.61 52.61 0 002.59-5.94c4.27-13.61 8.42-27.26 12.66-40.89.56-1.77 1.46-3.45 2.36-5.54 4.11 9.09 3.12 17.88 1.67 26.72-1.71 10.49-3.26 21-5 31.5a15.42 15.42 0 01-1.63 5.45zm90.47-110.16c2.12 19 4 37.89.74 56.93-.64 3.76 0 7.72-.53 11.51-.57 4.45-1.8 8.81-2.57 13.23-.92 5.31-2.13 10.62-2.38 16-.69 14.83-7 28-12 41.51-.61 1.64-3.31 2.5-5.6 3.36 6-31 8.83-61.76 2.25-92.81l2.12-.67c1.1 2.87 2.19 5.74 3.62 9.46v-17.94l1.58-.09q1.29 19.72 2.57 39.47h.83v-44.78l1-.06q.88 8.34 1.79 16.67h.56v-22l.79-.1c.59 2.44 1.19 4.86 2 7.93v-23.37c1 1.56 1.63 2.53 2.24 3.49.26-.08.51-.15.76-.24q-1.2-12.64-2.39-25.3l.73-.2c.56 2.64 1.57 5.23 1.87 7.91zm16.8-26.87l-19.36-29.57-.65.23q3 7.61 5.91 15.21l-1.33.76c-2.74-4.49-6.13-8.71-8.09-13.5-4.39-10.78-8.17-21.8-12-32.78-6.38-18.21-11.32-37-19.17-54.58-12.79-28.6-26.35-57-47.2-81-1.36-1.57-2.83-3-4.26-4.55-.08-.09-.31 0-1.15-.1 2.8 4.51 5.41 8.68 8.08 13-1.06.61-1.84 1.05-2.6 1.5 6.89 9.43 13.63 18.62 20.37 27.82-.34.37-.69.74-1 1.1l-4.3-2.69-.61.38q10.51 15.76 21.06 31.52l-1.48 1q-5.37-6.22-10.75-12.43l-1.34.68c20.81 27 31.91 57.92 37.57 91.72l2.47-2.83c5.55 13.78 12.28 26.7 8.89 42.25-2.81 12.92-4.55 26.06-6.73 38.94.25.55 1.26 1.64 1 2.41a137.48 137.48 0 01-4.4 13.94c-5.67 14.41-11.56 28.73-17.78 44.15-1.23-2.52-1.89-3.88-3.27-6.73-2 26.64-15.77 47.58-25.11 70.34.29-3.83.6-7.66.89-11.49l-1.16-.24c-2.14 12.35-4.28 24.72-6.33 36.69h-5.46c-.46-3.35-1-7.72-1.62-12.07l-.46-.06c-.3 2.06-.59 4.12-1 6.66-2.9-6.28-3.38-17.5 0-36.26 2.15-11.73 6.13-23.13 9.24-34.51l-2.41.89c4-22.2 11.29-42.35 25.68-59.78l-3.77 1.37c11.49-23.08 26.48-44.22 24.3-72.62-1.74 8.12-3.17 14.76-4.66 21.68l-2.73-1.52c-1.27 5.89-2.51 11.64-3.74 17.39l-1.85-.35c-1.81-16 .22-31.64 4.7-47.15v7.67l1.18.12 2.68-21.95 3.12 1.09c-8.49-44.72-27-84.38-54-120.15 3.34 8.14 6.92 16.2 10 24.44 7 18.91 10.4 38.33 7.92 58.59-.34 2.72 1.85 5.7 1.75 8.52-.45 11.15-1.37 22.29-2.07 33.44a10.21 10.21 0 00.86 5.26c1.17-8.57 2.67-17.12 3.39-25.74a216.1 216.1 0 00.85-26.19c-.31-8.79-1.71-17.53-2.78-27.69 3.12 5.1 4.8 11.33 8.2 12.5 4.27 1.45 3 7.36 7.75 7 .25 0 .75 1.42.9 2.22 1.22 6.67 2.3 13.37 3.6 20 .71 3.61-2.16 8.15 2.81 10.8.52.29.22 2.33.12 3.54q-3.3 41.79-6.71 83.59a7.89 7.89 0 01-2 4.48c-1-6.68-2.5-13.33-2.79-20s.7-13.46 1.13-20.27l-2.43 2.76-1.58-.33c.7-7.16 1.58-14.3 2.07-21.47 1-14.25 1.73-28.53 2.54-42.8a6 6 0 00-.47-1.79l-1.39-.11c-.5 4.11-1 8.21-1.52 12.76-.8-.53-1.47-1-2.56-1.66-.18 13.84 1.64 27.62-3.69 40.86.23-5.14.46-10.3.7-15.45l-1-.1q-2.52 17.07-5.05 34.14c-8.24-14.7-6.09-30.59-6.6-46.66l-3.28.23c.6-5.7.66-11.32 1.87-16.7 3.15-14.15 2.31-28.1-.94-42.07-1.64-7-3.16-14.13-4.75-21.19l-1.64.32c.36 2.75.66 5.53 1.1 8.26 2.89 17.85 3.9 35.79 1.59 53.76-.38 3 1.08 7.48-4.33 8.71-1 .24-.93 4.51-1.51 6.87q-4.89 20-9.85 40l-2.86-.31c-8.5-20.05-6.19-40.18.69-60.76l-3.05 1.53c.2-4.34.32-8.43.58-12.52 1.57-24.54.59-48.91-4.79-73-5.12-22.9-14.54-44-26.84-63.87-3.54-5.74-6-12.18-8.9-18.3l-3-6.39-1.31.48q3 9.57 6.08 19.15C936.39 126.74 930 109.12 923 91.86c-.55.21-1.11.4-1.66.62l11 34.88a126.21 126.21 0 01-33.19-39.78l-1.27.6q4.86 11.16 9.7 22.31c-7.22 2.85-12.79 1.84-17.46-4.58-5.19-7.14-9.49-15-14.17-22.46-.43-.7-.87-1.39-2.13-3.41 2.6 14 10.18 23.79 17.85 34.6-19.09-4.6-24.93-19.35-31.43-34.17.41 2.89.69 5.8 1.28 8.65s1.53 5.69 2.39 8.84H859L890.34 131l1.1-.82c-.19-1-.39-2-.83-4.34 4.55 5.33 7.42 9.87 6.41 15.85 0 .31-.95.46-1.25.47q2.13 23.12 4.18 45.46l2.5-3.94c-.38 19.74-4.21 37.13-12.21 53.63l1.33.78c2.57-4.45 5.44-8.74 7.66-13.36 2.32-4.83 4-10 7.26-15 .37 4.49.79 9 1 13.48 0 .51-1.12 1-1.38 1.65-4.09 10-11.45 15.34-22.33 15.86-3 .14-5.92.81-9.26 1.29l6.25-11.58c-4.53 4.05-10.19 9.39-16.2 14.3-1.92 1.58-4.76 2-8.27 2.18 1.06-1.64 1.77-3.76 3.24-4.83 14.61-10.57 20.21-26.12 24.09-42.68a5.79 5.79 0 012.09-3.4q.9 4 1.81 8.09l.95-.05c0-4.51.66-9.13-.12-13.49-5.93-33.66-20-63.71-40.7-90.79-7.45-9.74-14.28-19.78-17-32.09-3-13.44 5.71-25.6 19.35-27.65 18.54-2.77 34.74 3 50.23 12.22a14.75 14.75 0 006.33 2.46l-7.73-6.56C911 52 920.62 59.7 930.22 67.52c.3-.33.6-.64.89-1q-5.24-5.62-10.5-11.24c8.39 3.2 14.51 9.2 20.77 15.18q43.79 41.9 87.83 83.48c3 2.83 6.45 5.19 9.43 8.09-19-7.24-32.43-21.89-47.25-35l6.09 8.68L980 119.59l-.69.48c1.65 2.1 3.2 4.28 5 6.3 17.23 19.72 34.2 39.65 47.23 62.55 8.53 15 16.75 30.16 25.17 45.22a6.31 6.31 0 004 3.13l-5.65-12.27c15.1 19.3 21.38 42.39 29 66-2.53-1.66-4.32-2.85-6.12-4 15.81 25.54 21.81 54.55 31.52 82.13zm-96.41 61.59l-1.46-.4q2-7.27 4-14.55c.61.15 1.2.29 1.8.45q-2.14 7.2-4.34 14.46zm6.06-6.15l1.39.77c-1.8 5.15-3.58 10.29-5.38 15.44l-1.74-.64q2.86-7.83 5.73-15.61zM541 128.46zm.07.08z"/><path d="M659.06 88.36c-.35-.22-.09-1.34-.26-2-1.65-6.54-3-13.18-5.18-19.54-.77-2.25-3.41-4.42-5.72-5.42s-3.53-1.35-3.48-4.15c0-1.25-1.53-3.07-2.8-3.61a4.26 4.26 0 00-3.94 1.16c-2 2.72-3.91 2.81-6.71 1.43-2.17-1.06-4.65-1.48-7-2.21-4.54-1.43-9.48-2.21-13.45-4.59-2.62-1.57-3.48-2.16-5.91 0-1.23 1.09-5.63 1.06-6 .32-2.36-5.06-4.59-3.37-7.43-.62s-12.13.56-13.62-3.07a73.76 73.76 0 00-4-7.33c.95-.67 2.77-3.48 4.87.41 1.77 3.25 4.42 2.29 5.41.81 1.87-2.81 3.73-6.35 3.68-9.57-.1-7-6.11-7.36-11.79-7.93 1.59-8.16-3.5-14-6.43-20.59-1.13-2.52-3.28-2.36-4.27-.07-2.8 6.48-9.25 11.87-5.86 20.09-9.75 1.17-12.17 2.73-13.11 8.12-.73 4.43.23 8 5 9.48 4.86-3.9 5.92-3.87 8.09 0-1.49 1.27-3.52 2.22-4.27 3.8a9.65 9.65 0 01-13.74 4.16c-2.59-1.6-4.59-2-6.57 1s-3.83 3.32-5.27-.73c-.39-1.07-2.38-2.13-3.64-2.15-1.06 0-2.26 1.39-3.16 2.38a19.43 19.43 0 00-1.93 3.11l2.32 1.4c-.18.48-.37 1-.56 1.43l-8.89-2.65 3.94-1.19a8.18 8.18 0 00-6-.69c-4 1.13-7.87 2.74-11.87 3.9a7.22 7.22 0 01-3.78-.39c-1.91-.61-4.11-2.48-5.52-2s-2.23 3.23-3.92 6c-5.47-.17-9.39 2.42-9.27 9.43 0 .91-1.05 1.78-1.36 2.76-1.34 4.1-2.58 8.25-3.86 12.37-.34 1.12-.38 2.7-1.14 3.26-3.16 2.28-2.2 4.64-.58 7.14 4.92 7.59 10.12 15 14.67 22.81 2 3.44 2.6 7.68 4 11.49.53 1.49 1.57 2.79 2.24 4.24 1.81 3.92 4.64 7.76 5 11.82a23.62 23.62 0 00.37 2.44c2.16-.71 4.59-1.36 6.95-1.92l.38-.29a66.5 66.5 0 005.22-5c.39 4.33 3.65 3.27 7.89 2.65 22.34-3.25 44.8-5.31 67.31-1.86 13.08 2 26.09 4.52 39.12 6.87a19.13 19.13 0 013.5 1.38c-.16.43-.32.85-.48 1.29-6.21-1.18-12.46-2.25-18.66-3.53a254.87 254.87 0 00-70.35-4.23c-2.8.2-5.59.52-8.38.91-8.2 1.16-16.35 3-24.54 4.29-1.23.2-2.47.31-3.71.42l-3.8.84c1.13 4 3.36 7.65 6.9 8.82 4.63 1.54 9.37 3.32 14.16 3.67 19.31 1.39 38.66 3.08 58 3.09 15.28 0 30.79-1.14 45.39-6.54 3.81-1.4 7-4.53 10.42-6.87-2.91-10.9 9.39-16.51 9.27-26.47 0-.73.87-1.48 1.39-2.19 5.34-7.3 10.78-14.55 16-21.94 2.05-2.86 7.04-5.87.72-9.65zm-48.67-29.3l8.61 9.21-1.46 1.34q-4.11-4.67-8.25-9.31c.34-.41.71-.83 1.1-1.24zm11.51 42.75c.85 2.88.27 6.19.27 9.32l-1.74.52c-1.4-6.58-5.11-6.33-9.83-3.27-.44-4.94 2-7.62 5.65-8.68 1.64-.47 5.29.88 5.65 2.11zm-9.52-24.57c-1.86 9.91-3.63 19.27-5.64 30-6.84-17.7-5.41-25.24 5.64-30zm-36.51 27c.89 2.51 1.38 3.91 2.27 6.4l10-5.79c2.11 3 4 7.42 10.28 6-.64.81-1.12 2.07-1.94 2.38-8.58 3.17-16.9 4-24.68-3.55zm-6.23-2c-.36-5.08 2.35-8.17 6.6-9.46a7.37 7.37 0 016.17 1.75c3.28 3.42 2.38 7.53.56 12.29-2.27-9.76-3.76-10.2-13.33-4.57zm20.57 2.19c.36-2.55-.12-5.8 1.3-7.46s6-2.7 6.81-1.82c2.55 2.8 4 6.62 5.85 10-.56.25-1.13.49-1.71.73-4.18-5.74-6.33-5.99-12.25-1.44zm13.71-25.62L596.34 62c5.15.89 9.37 9.52 7.58 16.82zm-26.8-22.91c3.77 1.59 8.54 3.22 12.94 5.56 9.7 5.14 13.78 18.53 8.93 28.61a5.12 5.12 0 01-2.37 2.32c-2.79 1.2-5.7 2.12-8.67 3.19-3-4.84-3.62-5.09-12.39-5.44.52-11.29 1.03-22.61 1.56-34.23zm-2.88 11l-.78.13q-1.83-8.19-3.69-16.38l1.92-.33zm.51-41c2.92-1.65 6.07-2.11 7.73 1.13 1.37 2.66 2.77 6.61 1.75 8.92-1.87 4.22-4 .52-6.35-1.67l3.62-.28c-4.79-5-8.71-3.11-11.52 5.32-1.31-6.56.25-10.83 4.77-13.38zm-7.06 25.78c1.1 5.07 2.19 10.13 3.6 16.57-3.47-2.48-4.44-7.46-9.07-3l-.42-1.46c1.48-4.07 3-8.13 4.44-12.21zm-3.53 50.37c-7.23-13.88-10-21.13-2.57-30 1.06 3.24 2.37 5.53 2.47 7.87.29 6.99.1 14 .1 22.17zm1.74-95.71v23.17c-7.19-11.16-6.98-17.27 0-23.17zm-8.69 24.84c-2.3-.9-5.74 1.08-9.39 2-1.35-2.56.37-5.54 3.09-7.74s5.49-1.48 8.09 1.31c3.18 3.42 6.22 6.57 4.48 11.64-2.08-2.58-3.66-6.19-6.27-7.21zm5.18 18.37c-1.68 8.37-3.25 16.16-4.81 24l-1.58-.36c-.54-8.39 1.14-16.19 6.39-23.64zm-4.51 45.54c1.74 3 2.73 6.33 3.83 9-3.7-2.1-7-4.71-10.81-5.77-1.3-.37-3.67 3.12-5.66 4.94-2.41-3.7-1.79-8.68 1.7-10.87 3.14-2.01 8.85-.85 10.94 2.7zm-16.5 7.64c1.9 2.12 2.82 4 4.23 4.5s3.33-.32 5-.55l4.51-.62c0 1.64.56 3.54-.1 4.82a5.32 5.32 0 01-3.85 2.35c-6.77.27-14 3.37-20.36-3.45 3.69-2.21 10.35.51 10.57-7.05zM527 107.15c-1.49-4.42.13-10 3.51-12.26 3.62-2.38 5.83-.53 7.34 6.15-6.42-2.29-7.79-1.52-10.85 6.11zm20.52-49.31c2.74-.84 5.48-1.84 7.53-2.54v33.35c-5.72-.55-10.55 1.4-12.87 6.95-2.74-1.38-5.39-2.63-7.93-4.08a4.59 4.59 0 01-1.83-2.21c-5.42-14.07.69-26.85 15.07-31.47zm-9.34-2.38l-13.42 16.16c-1.88-5.9 5.6-15.01 13.39-16.16zm-13.43 6.31c-1 3.07-2 6.14-3.1 9.65l-5.18-2.8 7-7.6zM507 108.35c0-2.61-.79-5.64.26-7.73.78-1.54 4.84-3.2 5.91-2.5 3.26 2.13 5.76 5.4 8.56 8.21-.38.36-.76.72-1.15 1.06-5.49-4.39-7.58-4.27-13.58.96zm11.25 5.21c-4.2 4.76-10 5.81-15.87 5.84-2.22 0-4.44-1.87-6.64-3.81 6.38 1.53 7-2.93 8.21-7.11 1.85 1.41 3.29 2.91 5 3.73 1.09.51 2.67.06 4-.09 1.67-.19 3.34-.51 5-.77.18.74.27 1.47.34 2.21zm-4.42-22a17.69 17.69 0 01-1.66-8.44c0-1.54 1.91-3 2.95-4.57 1.35 1.56 3.51 2.94 3.89 4.71 1.31 6.25 2 12.65 3.15 20.22-3.16-4.57-6.16-8.02-8.29-11.95zM523 56.88C515.47 64 510.09 72.14 510 83c-3.32-10 2.35-21.5 13-26.12zm-42.88 4.71c3-1.68 6.47-2.65 9.74-3.89l.63 1.6-9.38 3.33c.08.38.15.77.24 1.15.9.32 1.8.62 2.71.93l.12 1.57h-4.61c.19-1.62-.22-4.28.59-4.69zm.83 9a8 8 0 003.12-1.78c3.78-3.81 6.93-8.4 11.2-11.21 3.28-2.15 8.09-3 12.1-2.69 3.12.23 6 1.83 9.22 0 .38-.21 1.19.33 1.79.53.13.43.26.86.38 1.3-18.54 3.39-35.51 8.61-37.36 31.26-5.12.45-5.27-2.82-5.4-7.5-.66 2.37-.94 3.36-1.28 4.56-2.22-6.45.58-12.66 6.28-14.49zM471.08 90c10.75-.92 15.61 6.45 15.32 19.57zm38.39-26.79c-1 6.32-2.1 12.8-3.15 19.29a2.3 2.3 0 00.08 1c2.38 6.83 4.06 13.57-3.61 18.87-3.29-4-7.88-6.64-13.58-2.29-7.93-13.98 3.45-36.17 20.26-36.91zm-20.36 50.32c.3-3.18 0-6.84 1.14-10a5 5 0 018.08-2.17c1.2 1 1.88 2.66 2.81 4-1.38.38-3 .41-4.07 1.19-2.5 1.86-4.73 4.08-7.96 6.94zm52 15l.09.07zm92.69.08a45.92 45.92 0 01-6-.9 245 245 0 00-73.31-9.6c-18.13.37-36.18 1.9-53.74 6.91-1.95.55-3.74 1.67-5.65 2.4a11.85 11.85 0 01-3.34.65c-.21 0-.84-1.45-.65-1.65a6.38 6.38 0 012.72-2.06c7.77-1.93 15.51-4.57 23.41-5.34 16.82-1.66 33.78-3.66 50.6-3 17.31.62 34.53 4.17 51.79 6.44a.78.78 0 01-.15-.1h-.05c-6.38-4.24-6.9-5.13-5.5-10.39.69 1.93 1.15 3.2 2 5.46l8.07-5.81c2.29 2.48 4.8 5.17 7.3 7.87l1.25-.81c-.71 1.66-1.44 3.3-1.59 3.68h-11.5l14.49 5c-.03.42-.1.84-.15 1.26zm4-9.92c-3.16-9.82-4.3-10.5-10.87-5.64.56-2.87.56-5.18 1.52-7a6 6 0 014.1-2.64c1-.12 2.9 1.36 3.3 2.5 1.38 3.98 5 7.73 1.94 12.79zm3.27-14.1c-5.17-3.6-10.33-4.78-14.82.38-1.6-2.53-3.16-4.75-4.44-7.12a3.54 3.54 0 01-.06-2.87c4.87-9.37 3.61-18.54-.71-27.66a7.37 7.37 0 01-.28-1.47c15.93.45 24.65 16.87 20.3 38.75zm-4-34.78c7 3.76 12.54 16.59 9.46 21.44zm12.4 36.58l-2.26-1.07 4-10 2 .83q-1.88 5.11-3.72 10.25zm68.13 599.79c-7.11.31-8.8-1-9.57-7.9-.4-3.66-.47-7.34-.76-11-.68-8.57-4.94-14.72-12.73-18.35-2.83-1.31-5.76-2.39-9.17-3.79 4-1.19 7.65-2.14 11.21-3.33 11.79-3.92 17.23-14.23 12.53-24.59-3.58-7.86-10.54-11.68-18.89-11.87-17-.39-33.93-.2-50.9-.15-1.11 0-2.23.95-3.35 1.46.14.5.28 1 .41 1.49h12.49v77.27l-14.17.8c4.41 3.16 37.91 3.48 42.58-.05l-12.58-.74v-39.69c5 .28 9.58.22 14 .88 5.31.79 9.85 3.31 10.8 9.11a118.86 118.86 0 011.5 16.53c.33 14.6 14.77 23.35 27.8 16.63.61-.3.91-1.2 1.71-2.31a19.54 19.54 0 00-2.91-.4zm-39.08-43.52h-14.09v-34.79c7.56.39 15 .57 22.32 1.31a7.68 7.68 0 015 3.49c4.24 7.51 3.62 15.63.85 23.3-2.26 6.2-8.27 6.75-14.08 6.69zm166.39-478.81c-1.93 3.49-3.6 6.87-5.57 10.06a143.28 143.28 0 01-9.5 14.24c-2.25 2.8-5.81 4.39-9.11 1.2-3.1-3-3.42-6.66-.15-9.69 3-2.81 6.59-5.08 10-7.68l-18.49-8.16v16.73c-4.32-.19-9.56 1.11-12.27-.93-3.38-2.55-4.68-7.86-6.9-12l-6.49 2.81c4.77-8.67 10.67-16.45-.15-23.71 2.53-2.29 5-4.29 7.15-6.53 2.74-2.79 2.4-4.66-1.44-7.56-.39 7.68-5.3 9.83-11.84 10.47-2.29.22-4.44 1.75-7.73 3.14l9.33 4.71-10 7c.16.44.3.88.46 1.32h12.15c.12.46.26.91.39 1.37-1.9 1-3.75 2-5.7 2.86-6.93 2.89-7.34 5.45-1.54 10.14 9.58 7.74 8.55 18.37-2.39 24.46-3 1.65-6 3.12-10.06 5.19l7.2.85c-1.31 1.88-2.3 3.23-3.22 4.64s-1.82 2.92-2.4 3.87L777.46 243l9.28-20.29c4.54 3.84 8.64 7.25 12.68 10.75 3.33 2.88 3.24 6.63-.5 8.91-2.58 1.57-5.58 2.46-8.35 3.63-1-2.15-1.78-3.82-2.85-6.11l-9.79 6.26.66 1.43a24.16 24.16 0 012.86.6c6.51 2.24 14-1.26 20.18 3.28.34.25 2.52-1.29 3.23-2.39 5.16-7.89 10-16 15.33-23.75a8.71 8.71 0 016.07-3.42c3.65 0 5.47-1.12 6-4.74a17.89 17.89 0 011.65-4.37c1.41-3.17 3.05-5.63 7.15-3.14.64.39 2.73-.41 3.32-1.25 8.15-11.64 9.67-12.26.53-24.55zm-32 42.74c-2.85 1.74-8.14 0-12.19-.9-2.22-.5-4.28-2.27-6.11-3.8-7.37-6.15-6.16-12.55 3.59-16.49-1.43 5.89-1.94 11 3.45 14.58 7.37 4.94 10.66-1.93 15.08-5.52l1.5.9c-1.65 3.89-2.33 9.42-5.29 11.23zm-457.44 7.31L343 223.74l6.3-.31c-7.42-5-14.17-10.25-18-18.45 1.52-.75 3.27-1 4-2.08 2.43-3.6 4.57-7.41 6.69-11.21s1.13-6.55-2.85-8.51c-2.6-1.29-4.94-3.08-8.36-5.26 5.45-.62 9.44-1.09 14.66-1.67-3.79-2.37-6.34-3.95-9.38-5.83l10.27-5.8-20.33-4.69c-.16.38-.33.76-.49 1.12l6.11 5.06c-8.23 6.95-8.16 6.92-3 16a88.63 88.63 0 013.69 8.46l-1.39.77c-2-1.53-3.95-3.06-6.66-5.18-.11 1.61-.16 2.29-.19 3-.29 8.7-2.83 11.24-11.4 11.32a39.61 39.61 0 01-5.77-.2c-5.88-.8-7.22-3.44-4.39-8.62 1.74-3.21 3.65-6.3 5.5-9.44l-.79-.62-21.22 9.88c4.21 2.67 8.37 4.88 11.94 7.81 1.06.87 1.15 4.13.41 5.66-.89 1.82-3.86 4.53-4.71 4.15-3.51-1.58-7.47-3.54-9.59-6.54-3.79-5.36-6.33-11.58-9.52-17.39a6.56 6.56 0 00-2.42-2.18c-.22-.14-1.42.61-1.5 1.06-1.19 6.53-2.26 13.08-3.49 20.36l7-2.58c-.66 4.15-1.21 7.62-1.76 11.1l.78.35 7.34-9.12c2.59 6.62 5 12.64 7.76 19.81.79-2.41 1.14-3.48 1.39-4.26l4.66.62c5 8 9.61 15.39 14.11 22.58 2.56-1.22 4-1.94 6-2.9-.61 4.09-1.11 7.43-1.8 12.12l34.6-7.21c-1.59-2-3.37-4.25-5.51-7 4.72-1.36 8.91-2.59 13.78-4.02zm-49.63-30.15l10.59 6.25c.24.74.47 1.48.71 2.22-2.43 1.51-4.9 4.28-7.32 4.24-3.67-.03-5.42-6.27-3.98-12.71zm-4.81 12c2.48 1.23 4.68 2.24 6.8 3.38 5.22 2.83 8.09 2.09 11.28-3 1.62-2.59 3.24-5.21 5.08-8.14 6 6.12 5.46 9.07-2.2 14.53a42.52 42.52 0 01-4.5 2.47c-10.9 6.01-14.8 3.94-16.49-9.25zm34.73 25.72c-1.9-.72-3.8-1.42-6.14-2.29-.66 1.41-1.35 2.87-2.19 4.69-1.16-.17-2.69 0-3.77-.63-2.75-1.58-5.3-3.51-7.94-5.29a60.76 60.76 0 015.59-6.16c3.27-2.8 6.84-5.22 11.41-8.66 1.63 6.3 3.06 11.85 4.5 17.39zm476.18 413.21c-3.57-16.59-16.37-28.43-33.16-29.21-15.18-.72-30.4-.27-45.62-.25-1 0-2 .76-3.07 1.16l.3 1.63h12.24v77.91H730.4c-.11.6-.24 1.19-.36 1.77 1.39.4 2.79 1.13 4.18 1.14 12.59.08 25.19.47 37.75-.1 9.38-.43 18.88-1.69 26.41-8.39 13.99-12.41 17.36-27.97 13.56-45.66zm-17.42 36c-1.72 6.87-6.23 12.67-14.27 13.58-7.23.83-14.5 1.31-22.38 2v-77.84c9.53-.11 19.35-2.09 27.91 3.15a21.65 21.65 0 018.83 11.06c4.83 15.88 3.9 32.14-.09 48.02zm98.83-54.76c-11.46-12.59-28.54-16.09-42.18-8.64-21.47 11.73-30 39.4-18.07 60.9 7.16 12.86 17.37 22.3 34.87 22 5.74.81 11.79-1.9 17.37-5.66a45.41 45.41 0 008.01-68.6zm-9.49 61.13c-2 7.46-9.24 9.24-16.4 9.71-7.73.51-14.56-1.3-17.9-8.86a42 42 0 01-3.66-14.52c-.54-10.64-.26-21.34-.15-32a39.49 39.49 0 011.11-9.33c4-15.17 23-20.89 34.26-9.84 3.15 3.09 4.9 8.43 5.65 13 1.15 7 .87 14.29 1.19 21.45.33.06-1.46 20.57-4.1 30.39zM250.37 680.4h-13.8l-.48-1.17c.71-.6 1.42-1.74 2.14-1.74 13.77-.11 27.54-.08 41.48.8-3.27 3.8-8.19 1.15-10.12 1.92-3.08 7.38-4.25 14.47-8.27 19-13 14.83-39.85 16.28-54.65-3.91-14.12-19.27-12.15-49.11 8.14-65 9.8-7.65 25.59-9.16 36.47-2.95 3.29 1.88 6.29 3.19 8.91-1 .29-.46 1.55-.31 3.62-.66 0 7 .05 13.6-.07 20.18 0 .8-.93 1.58-1.43 2.37-.75-.57-1.78-1-2.19-1.73a37.75 37.75 0 01-1.61-4.4c-6.14-15.77-20-18-32.69-13.62-6.28 2.13-9.76 8-9.89 14.75-.3 15-.41 30 0 45 .37 13.13 10.29 20.52 23.21 18.09 6.56-1.24 10.62-5.61 11.15-12.63.34-3.99.08-8.19.08-13.3zm200.89 1.68c-.83 8.77-1.67 17.54-2.53 26.51h-69.62c.71-2.16.71-2.16 12.39-3.22V628h-12.89c2.87-3.63 38-4 42.57-.36h-13.85v78.51c8.58-.52 17.09-.65 25.49-1.68 6.39-.79 9.59-5.9 11.81-11.44 1.16-2.91 1.83-6 2.9-9a13.32 13.32 0 011.89-2.81zM489 705.5c7.38 0 14.35.24 21.29-.07 8.16-.36 13.66-4.6 16.3-12.44 1.32-3.91 2.8-7.76 4.21-11.64l2.17.42c-.61 8.8-1.23 17.6-1.86 26.6a33.21 33.21 0 01-3.93.48c-20.62 0-41.24 0-61.86-.05-1.42 0-2.83-1-4.25-1.57a19.65 19.65 0 014.39-1.45c2.57-.24 5.18-.07 8.14-.07v-77.65h-13.28c3.5-3.77 38.88-3.9 42.7-.29l-14 .61zm129.22.26c-3.42.5-5-1.1-6-4.17q-10.92-31.35-22.1-62.63c-1.84-5.22-3.87-10.38-5.82-15.56l-1.94.19c-.93 2.69-1.81 5.4-2.8 8.07-8.63 23.36-17.32 46.7-25.9 70.08-1 2.78-2.34 4.35-5.62 4a49.64 49.64 0 00-7.57.39c0 .64.07 1.29.09 1.93h29.9c.1-.46.21-.91.32-1.37-4.4-2.49-9.86.1-15.13-1.69 2.79-7.4 5.58-14.79 8.45-22.37 7.93 0 15.61 0 23.28.07 1.06 0 2.79.47 3.07 1.17 2.79 7 5.35 14.08 8.23 21.8-3.47 0-5.74-.1-8 0-1.89.11-3.77.47-5.66.73.12.79.22 1.59.33 2.38 12.51 0 25 0 37.54-.1.62 0 1.23-1.42 2.52-3a59.69 59.69 0 00-7.19.08zm-53-26.54c4-10.79 7.74-21 11.5-31.1h1.41c3.59 10.18 7.19 20.35 11 31.1zm-201.43 26.57c-4 .51-5.94-1.15-7.22-4.87-7.24-20.92-14.63-41.79-22-62.66-1.75-5-3.72-9.85-6.16-16.3a62.28 62.28 0 00-3.14 5.94c-8.71 23.51-17.68 46.93-25.8 70.65-2.09 6.09-4.89 8-10.73 7.25-1.17-.14-2.5.85-3.75 1.33 13 3 28.69 2 30.6-1.31H300c3-7.91 5.56-14.89 8.38-21.77.3-.75 2-1.3 3-1.31 7.85-.11 15.71-.07 23.64-.07 2.74 7.62 5.38 14.94 8.17 22.71l-13.59.8c.1.72.22 1.43.33 2.15h39.13c.1-.62.18-1.24.26-1.85-1.84-.26-3.74-.92-5.53-.69zm-53.86-26.51c3.95-10.72 7.79-21.12 11.62-31.53l1.26.21c3.6 10.26 7.2 20.52 11 31.32zm-10.52-401.9c5.43 2.14 3.52 11.32 11.73 8.73l1.53 6.43 5.34-1.32 2.37 7.35 5.64-2 3.82 7.59 4.37-3.66 24.35 18c-3.86 4.55-8.4 5.17-12.66 2.93-9.18-4.81-18.67-9.41-26.81-15.68-7-5.41-12.67-12.8-18.35-19.79-1.51-1.84-.91-5.43-1.33-8.58z"/><path d="M764.13 194.72c-1.94 5.65 1.28 7.31 5.39 8.85 5.27 2 2.9 6.78 3.82 10.84h-10.66l5.7-7.73-12.47 1.16c-1.06-10.98-.31-12.32 8.22-13.12zm-458.27-20.08l-8.62-12c6.26-2.44 11.95-4.74 17.72-6.82a2.84 2.84 0 012.51 1.08 3.09 3.09 0 01-.26 2.76c-3.56 4.88-7.27 9.64-11.35 14.98zm515.24-10.92L812.6 176c-4.12-5-7.88-9.48-11.47-14.08-.58-.74-.88-2.51-.43-3a3.57 3.57 0 013.14-.78c5.59 1.61 11.16 3.53 17.26 5.58zM396.56 340.77c-8.68-4.55-16.47-8.2-23.71-12.71-2.15-1.34-2.76-5.14-4.37-8.38 9.75 1.46 22.67 11.13 28.08 21.09zM354.83 213.3h-12.21c.43-8.49 5.9-11.33 14-11.78l-3.23-6.66c7.81-2.28 8.74-.47 6.15 12.31-1.64-.27-3.32-.5-5-.85-1.5-.32-3-.77-5.51-1.44zm489.79-37.94c-4 2.88-6.84 5.15-9.89 7-2.24 1.37-4.17.75-4.33-2.19-.18-3.26 0-6.53 0-10.88zm-571.22-.49l13.24-6.25v15.58zm56.74-22.37c8.83.35 17.58-.46 26.18 1.05-9.77 5.76-23.03 4.97-26.18-1.05zM765 155.8l22.17-2.08C782 161.06 772.66 162 765 155.8zm65-15.52l1.46 5 6.34-2c.25.45.51.89.76 1.33l-11.73 8.89-1.66-1.28q1.74-6 3.47-12zM291.55 153.1l-11-8.1.59-1.06 6.05.95c-.72-2.84-1.32-5.23-1.93-7.65 3.09.37 6.57 8.4 6.29 15.86zm44.65-6.69c-3-1.73-6-3.36-8.84-5.25a3.15 3.15 0 01-.85-2.57c.07-.65 1.12-1.81 1.52-1.72 2.85.61 6.07.9 8.29 2.5 1.32 1 1.05 4.12 1.49 6.29zm204.93-17.88v-.06zm-.01.01zM45.19 353.08c1.11-2.33 1.6-3.35 2.27-4.74a8.48 8.48 0 01.63 1.81c1.06 27.35 12.65 51.48 22.91 76.07 8.8 21 17.12 42.29 25.61 63.45a5.62 5.62 0 01.26 1.85l-38.45-82.81-1.54.57L62 427.52c-9.92-8.88-20.33-52.8-17.55-80 .17 1.4.37 2.83.74 5.56zm125.52-248.76c-3.48 17.56-11.48 31.64-21.59 44.7a35.53 35.53 0 01-3.44 3.9c-1.45 1.38-1.71 5.57-5.38 2.47-.16-.14-1.82 1.37-2.69 2.21-2 1.93-3.91 3.94-5.9 5.89a7.31 7.31 0 01-1.46.81l-.92-3.64-6.74 5.14-.64-.6c7.66-11.44 15.33-22.87 23.88-35.63-1.19 5-2.06 8.56-2.92 12.18l.86.53q7.41-11.82 14.83-23.62l.63.25q-2 6.38-3.94 12.74l1.26.65c4.54-8.99 9.09-17.97 14.16-27.98zM123.6 320.35c-10.68-35.41-11.45-71.16-.1-106.94-.8 5.37-2 10.73-2.29 16.13-.44 8.69 0 17.43-.39 26.13-.26 6.15-2.14 12.33-1.73 18.4 1.03 15.46 2.91 30.86 4.51 46.28zM66.38 229.4c-3.74 8.56-8 16.95-11.1 25.72-4.62 12.95-8.14 26.29-12.74 39.25a217.63 217.63 0 01-12.65 28.19c6.68-20.74 13.37-41.48 20.25-62.82l-4.41.56 20.12-31.38zm160.09-53.17c3.47-13.6 5.39-27.87 10.87-40.61 5.07-11.76 14-21.88 21.55-32.5-11.89 23.93-24.06 47.67-30.69 73.76zm52.67-127.49c-.32 2.56-.48 3.84-.67 5.39l-14.6-17.73c2.76 1 4.39 1.68 6.08 2.12s3.29.47 4.91.86 3.45.57 4.64 1.52c4.66 3.72 7.95 12.18 5.1 19.21a45.88 45.88 0 00-1.76-5.31c-.84-1.7-1.96-3.24-3.7-6.06z"/><path d="M85.1 446.85q-11.67-24.68-23.35-49.34l1.9-.89q11.46 24.76 22.94 49.54zM230 57.79c.88 8.1.85 16-4.7 23.93 1.7-8.72 3.15-16.34 4.7-23.93zm-23.65 10.73l-3.28 20.62-1.73-.27q1.51-10.22 3-20.43zM186 83l-1.87 15.9-2.23-.3 2.58-15.79zm64.37-10l1.47-12.78 1.49.12-1.29 13zm767.94 424.31c4.37-11.88 8.41-23.89 13.18-35.6 9.12-22.42 18.89-44.58 27.92-67a120.39 120.39 0 009-45.14c1.1 2.66 1.72 4.19 2.94 7.13v-11.44c5.88 18.05-2.57 61.51-16.63 84.4l5.22-18.74-1.56-.62-39.81 86.93zm-57.74-370.65l14.25 22.72 1.24-.61q-1.56-4.82-3.13-9.61l.73-.4q11 15.77 21.89 31.55l-.45.81-6.1-3.87c-.36.69-.78 1.5-1.48 2.88L977.88 159c-.9 1.84-1.19 2.43-1.49 3-10.87-6.61-26.44-34.77-28-51.79 2.07 4.93 4 10 6.26 14.77a67.39 67.39 0 008.74 14.16q-1.85-6.12-3.68-12.24zM994.47 325c1.38-17.55 3-37.49 4.43-57.43.09-1.26-.93-2.6-2.06-3.66 1.9-17-.06-34-3.66-50.86 13.17 38.08 11.54 76.17 1.29 111.95zm76.1-60.8c-1 0-1.49.08-2 .08s-.68 0-2.22-.14c7.14 21.65 14.14 42.86 21.13 64.07l-.71.36c-4.09-9.48-8.69-18.78-12.14-28.49-5-14-8.67-28.36-13.73-42.28-3.07-8.45-7.68-16.35-11.58-24.5a2.77 2.77 0 01-.14-2.53zm-178.41-80.71c-6.79-24.74-17.95-47.52-29.4-70.18 16.62 20.54 27.34 43.59 29.4 70.18zM841.49 62.54c.22-2.47.34-3.73.46-5l-1.28-.54-5 9.57c-2.55-11.32 2.48-21.61 18.88-20.74z"/><path d="M1029 450.75q13.35-29.13 26.68-58.28l1.51.67c-7.25 20.16-17.71 38.89-26.61 58.32zM889.72 67l4.14 19.49c-4.72-5.81-4.97-12.56-4.14-19.49zM918 95.15c-4.91-5.82-4.14-12.79-3.22-19.78q1.62 9.9 3.22 19.78zm19.92 14.33c-4.4-5.52-5-11.74-3.38-18.39l3.38 18.39zm-69.71-27.92q-.9-6.51-1.79-13l1.34-.2 2.19 13zM819 278.87a23.06 23.06 0 01-4.94 12.95c-7.55 9.35-16.18 16.94-28.35 20.29-5.12 1.41-9.32 5.94-14.22 8.53a13.87 13.87 0 01-7.39 1.08c-1.22-.11-2.28-2.09-3.41-3.22a33.77 33.77 0 013.41-3.16c.8-.57 1.92-.67 3.43-1.14l-2.21-3.27c4.74-3.14 9.43-6.37 14.29-9.34a4.34 4.34 0 013.71 0c6.29 3.53 6.25 3.61 8.7-3.83 1 .46 1.88.88 2.78 1.35.74.4 1.45.87 2.39 1.44 1.07-2.78 2-5.33 3-7.88l.83 1c1.77-.85 4-1.3 5.23-2.63 3.85-4.14 7.35-8.62 11-13zm-97.79 60.25c6.31-9.47 15.7-13.89 25.51-18.7-2.4 8.9-16.72 19.4-25.51 18.7zm119.52 44.75v-6.56c2.43 3.62 4.88 7.08 2 11.51-4.55 7-8.8 14.16-13.51 21-.92 1.34-3.32 1.66-5.38 2 4.88-11.93 13.07-22.5 9.48-37.75zM354.61 507.41l11.09 10.22-1.94 2.89 8-.5.92 1.51-4.2 1.43 4.87 2.83-4.24 3.84 9-.52-3.63 3.9 5.95 5.51c-8.09 5.93-10.31 5.5-15.69-2.68-5.64-8.54-11.37-17-17.33-26zm381.44 29.41l10.84-8.89-2.49-2.14a3.64 3.64 0 01.55-.66c3.28-2.46 6.74-4.73 9.83-7.41 4.09-3.54 8.29-6.07 15.35-4-6.84 8.2-12.51 16.38-19.69 22.9-2.85 2.59-9 1.51-13.7 2.1zM276.54 376.1c6.33 11.17 12.54 22.14 19.13 33.79-8-.15-11.29-5.24-14.53-10.3-2-3-3.62-6.28-5.6-9.31-3.09-4.71-2.96-9.45 1-14.18zm711.3 119.96c-.22 4.47-.33 8.94-.71 13.4a19.77 19.77 0 01-2.15 7.59q1.5-10.42 3-20.88z"/><path d="M601.29 434c-.57 7 2.69 11.74 8.35 12.2a9.49 9.49 0 007-2.42c3-2.45 3.52-5.74 3-9.33l1.09-.15a9.39 9.39 0 001.3-18.42c-1.5-.43-3-.76-4.53-1.16-3.93-1.06-5.75-3.42-5.75-7.47v-31.5c0-.48 0-.95.08-1.69.58.07 1.07.18 1.56.19a3.75 3.75 0 003-1.42c1.31-1.54 2.43-1.42 3.81.14a3.63 3.63 0 002.16 1.17 48.93 48.93 0 005.28.06 1.73 1.73 0 001.84-1.75 4.35 4.35 0 00-2.24-4.66c-2.12-1.23-2.82-3.07-1.82-4.8a5.7 5.7 0 011.79-1.8 4.34 4.34 0 002.24-4.3c-.11-1.48-.67-2.17-2.18-2.21a22.46 22.46 0 00-4.42.06 5.6 5.6 0 00-2.82 1.46c-1.24 1.22-2.5 1.36-3.61 0a3.67 3.67 0 00-3.68-1.43l-1.14.13c0-1 .1-2 .13-2.9s-.42-1.54-1.48-1.51h-2.7a1.17 1.17 0 00-1.26 1.22v55.62c0 4-1.79 6.35-5.67 7.39-1.66.45-3.35.81-5 1.31a9.37 9.37 0 00-6.55 8.25 9.47 9.47 0 005.14 9.09 10.07 10.07 0 007.08.63z" fill="#fff"/><path d="M601.29 434a10.07 10.07 0 01-7.06-.65 9.47 9.47 0 01-5.14-9.09 9.37 9.37 0 016.55-8.25c1.64-.5 3.33-.86 5-1.31 3.88-1 5.67-3.39 5.67-7.39v-55.62a1.17 1.17 0 011.26-1.22h2.7c1.06 0 1.5.52 1.48 1.51s-.09 1.88-.13 2.9l1.14-.13a3.67 3.67 0 013.68 1.43c1.11 1.4 2.37 1.26 3.61 0a5.6 5.6 0 012.82-1.46 22.46 22.46 0 014.42-.06c1.51 0 2.07.73 2.18 2.21a4.34 4.34 0 01-2.24 4.3 5.7 5.7 0 00-1.79 1.8c-1 1.73-.3 3.57 1.82 4.8a4.35 4.35 0 012.24 4.66 1.73 1.73 0 01-1.84 1.75 48.93 48.93 0 01-5.28-.06 3.63 3.63 0 01-2.16-1.17c-1.38-1.56-2.5-1.68-3.81-.14a3.75 3.75 0 01-3 1.42c-.49 0-1-.12-1.56-.19 0 .74-.08 1.21-.08 1.69v31.5c0 4.05 1.82 6.41 5.75 7.47 1.51.4 3 .73 4.53 1.16a9.39 9.39 0 01-1.3 18.42l-1.09.15c.48 3.59-.07 6.88-3 9.33a9.49 9.49 0 01-7 2.42c-5.66-.48-8.94-5.18-8.37-12.18zm.84-5.34a5.21 5.21 0 10-7.39 0 5.25 5.25 0 007.39-.04zm12 4.39a5.23 5.23 0 10.07 7.43 5.37 5.37 0 00-.05-7.48zm1.82-11.8a5.26 5.26 0 107.5.05 5.3 5.3 0 00-7.45-.09zm-128.14-99.32h-5V252c0-1.73-.41-2.5-1.36-2.53s-1.45.77-1.45 2.53v69.85h-4.56V246h19.69v75.9h-4.54V252c0-1.77-.45-2.57-1.43-2.54s-1.35.78-1.35 2.53v69.92z"/><path d="M470.36 250.44c-.65.39-1.51-.08-1.84-1.17a3.28 3.28 0 01.32-2.84 2.25 2.25 0 012.47-1.15c2.26.49 3.3 4 1.95 6.53-1.86 3.51-6 3-7.54-1s.43-8.94 4.12-9.71a7.9 7.9 0 011.67-.18h27.59c3.16 0 5.51 2.16 6.28 5.72a7.54 7.54 0 01-2.05 6.77 3.56 3.56 0 01-5-.2 5 5 0 01-1.39-4.64c.26-1.63 1-2.76 2.33-3.11a2.19 2.19 0 012.51 1 3.07 3.07 0 01.46 2.62c-.34 1.38-1.45 2-2.31 1.28a1.59 1.59 0 001.68-1.7 1.77 1.77 0 00-1.35-1.91c-.95-.09-1.74.78-1.84 2a2.64 2.64 0 00.93 2.4 2.05 2.05 0 003.22-.67 4.71 4.71 0 00-1.52-6.62 4.06 4.06 0 00-1.79-.43h-27.81a3.84 3.84 0 00-3.28 1.78c-1.31 1.88-.92 5 .77 6.13a1.79 1.79 0 002.45-.25 2.78 2.78 0 00.82-2.55c-.15-1-.63-1.57-1.4-1.68a1.36 1.36 0 00-1.54 1 2 2 0 00.25 2.06 4 4 0 00.84.52zm2.05-12.12V233h25.74v5.35zm-2.07-8.01v-3.43h29.83v3.43zm166.47 91.62h-5V252c0-1.73-.41-2.5-1.36-2.53s-1.45.77-1.45 2.53v69.85h-4.56V246h19.69v75.9h-4.54V252c0-1.77-.45-2.57-1.43-2.54s-1.35.78-1.35 2.53v69.92z"/><path d="M619.36 250.44c-.65.39-1.51-.08-1.84-1.17a3.28 3.28 0 01.32-2.84 2.25 2.25 0 012.47-1.15c2.26.49 3.3 4 2 6.53-1.86 3.51-6 3-7.54-1s.43-8.94 4.12-9.71a7.9 7.9 0 011.67-.18h27.54c3.16 0 5.51 2.16 6.28 5.72a7.54 7.54 0 01-2 6.77 3.56 3.56 0 01-5-.2 5 5 0 01-1.39-4.64c.26-1.63 1-2.76 2.33-3.11a2.19 2.19 0 012.51 1 3.07 3.07 0 01.46 2.62c-.34 1.38-1.45 2-2.31 1.28a1.59 1.59 0 001.68-1.7 1.77 1.77 0 00-1.35-1.91c-1-.09-1.74.78-1.84 2a2.64 2.64 0 00.93 2.4 2.05 2.05 0 003.22-.67 4.71 4.71 0 00-1.52-6.62 4.06 4.06 0 00-1.79-.43H620.5a3.84 3.84 0 00-3.28 1.78c-1.31 1.88-.92 5 .77 6.13a1.79 1.79 0 002.45-.25 2.78 2.78 0 00.82-2.55c-.15-1-.63-1.57-1.4-1.68a1.36 1.36 0 00-1.54 1 2 2 0 00.25 2.06 4 4 0 00.79.52zm2.05-12.12V233h25.74v5.35zm-2.07-8.01v-3.43h29.83v3.43zm-29.82 70.88v-29l3-3v-8h-6v-19l2-2v-5h-5v2h-3v-2h-5v2h-2v-2h-3l-2 2v4l2 2v18h-4v-28l2.5-2.5v-3.5l-2.25-2.25h-4.25v4.25h-2v-4h-4v4h-2v-4.25h-4.25l-2.27 2.25v3.5l2.5 2.5v28h-4v-18l2-2v-4l-2-2h-3v2h-2v-2h-5v2h-3v-2h-5v5l2 2v19h-6v8l3 3v29l-5 5v11l11 5h20v-12.6a5.64 5.64 0 011.46-3.82 4.81 4.81 0 013.54-1.58 5.21 5.21 0 015 5.4v12.6h20l11-5v-11zm-48-46h-6v-7a3 3 0 016 0zm8 36h-7v-9.8a4.61 4.61 0 011-3 3.22 3.22 0 012.47-1.23c1.93 0 3.5 1.88 3.5 4.2zm12-45h-6v-7a3 3 0 016 0zm14 45h-7v-9.8a4.61 4.61 0 011-3 3.22 3.22 0 012.47-1.23c1.93 0 3.5 1.88 3.5 4.2zm6-36h-6v-7a3 3 0 016 0zM528.85 141l-2.29-.07a7 7 0 012.29.07zM496 387.06l-1.08.23a2.36 2.36 0 001.08-.23zm-9.48-17.7l-2.43.49a7.28 7.28 0 002.43-.49z"/><path d="M498.31 374.08c0-2.36 1.18-1.18 3.54-2.36-4.72-2.36-8.11 5.21-8.11 5.21-1.32 2-3.32 4.4-2.5-.49 1.18-7.08-1.18-8.25-1.18-8.25s0 9.43-4.72 9.43-4.72-7.08-4.72-7.08l3.47-.69c-1.23-.05-1.48-.86-2.29-1.66 3.54 1.17 7.08-1.18 7.08-1.18s-2.36 1.18-7.08 0-4.72 1.18-4.72 1.18h-3.54l1.18 2.35c3.54 7.08 2.36 8.26 4.72 15.34-15.33-3.54-8.26-17.69-8.26-17.69s-13 10.61-13 18.87-3.54 23.59-3.54 23.59S461.75 393 466.47 393s2.35 1.18 4.71 3.54c-17.69 11.79-8.25 27.13-3.54 29.48s5.9-2.35 3.54-2.35-2.36-2.36-2.36-4.72c10.62 8.25 8.26-4.72 8.26-4.72s-2.36 5.9-4.72 1.18 1.18-8.26 4.72-8.26 5.9 10.62 5.9 10.62c7.08 11.79 15.33 0 15.33 0s-9.43-1.18-8.25-4.72 0-4.72-2.36-5.9c-9.44-7.08 1.18-13 2.36-9.44s3.54 4.72 8.25 3.54-1.18-7.07-2.36-5.89-5.89-5.9-5.89-5.9 0-1 4.81-2.13c-2.22 0-4.81-2.59-4.81-2.59a7.28 7.28 0 004.43-5.07c.9-1.37 2.36-3.19 3.82-3.19a4.36 4.36 0 003.54-2.36s-3.54 2.32-3.54-.04zm12.93 12.98l1.08.23a2.36 2.36 0 01-1.08-.23zm9.43-17.7l2.43.49a7.28 7.28 0 01-2.43-.49zm16.91-2.36l-.36-2.26a16.44 16.44 0 01.36 2.26z"/><path d="M552.52 392.19s-.45 2.71-2.87 3c-1.18.13-2.83-.33-5.13-2 0 0 2.7 5.41 5.88 6.78v.16a12 12 0 01-3.58-1.05l-6-6.11h-.17c-4.71 0-2.36 1.18-4.71 3.54 17.69 11.79 8.25 27.13 3.53 29.49s-5.89-2.36-3.53-2.36 2.35-2.36 2.35-4.72c-10.61 8.26-8.25-4.72-8.25-4.72s2.36 5.9 4.72 1.18-1.18-8.26-4.72-8.26-5.9 10.62-5.9 10.62c-7.08 11.79-15.33 0-15.33 0s9.43-1.18 8.25-4.72 0-4.72 2.36-5.9c9.44-7.08-1.18-13-2.36-9.43s-3.54 4.71-8.25 3.53 1.17-7.07 2.35-5.89 5.9-5.9 5.9-5.9 0-1-4.81-2.13c2.22 0 4.81-2.59 4.81-2.59a7.28 7.28 0 01-4.43-5.06c-.9-1.38-2.36-3.2-3.82-3.2a4.36 4.36 0 01-3.54-2.36s3.54 2.36 3.54 0-1.18-1.18-3.54-2.36c4.71-2.35 8.11 5.21 8.11 5.21 1.32 2 3.32 4.4 2.5-.49-1.18-7.07 1.18-8.25 1.18-8.25s.32 7.73 4.72 9.43c6.67 2.57 4.72-7.07 4.72-7.07l-3.47-.7c1.23 0 1.48-.85 2.29-1.66-3.25 1.08-6.51-.82-7-1.14.42.17 2.76 1 7 0 4.72-1.18 4.72 1.18 4.72 1.18h3.54l-1.18 2.36c-3.54 7.07 1 11.64-4.72 15.33 8.79-2 10.21-7.54 9.83-11.88a16.44 16.44 0 00-.36-2.26s0-.13-.09-.37a18.46 18.46 0 00-1.1-3.13l.93.8a9.12 9.12 0 013.57-6.81 11.87 11.87 0 00-.6 9.6 11.12 11.12 0 00.6 1.4 3.06 3.06 0 00.56-.21c1.14-.52 3.67-2.18 4.44-6.79 0 0 .84 6.75-2.12 9.39a3.38 3.38 0 01-.88.61s.48-.06 1.21-.21c2.23-.46 6.79-1.77 6.79-4.79 0 0 .54 7.66-4.23 8.33s-5.77 5.67-1.77 5.67a6.72 6.72 0 003.82-1.53 20.65 20.65 0 004.18-4.47s0 5.81-3.55 7.69a6.14 6.14 0 01-4.45.31c-6.22-1.56.26 4.75 4.86 5.74 1.37.21 2.53.06 3.2-.83z"/><path d="M551.11 393.2l-.68-.07v-.16a3.68 3.68 0 00.68.23zm1.41-.01a3 3 0 01-1.4 0 7.75 7.75 0 001.4 0z"/></g></g></svg>