<svg width="364pt" height="36pt" viewBox="0 0 364 36" xmlns="http://www.w3.org/2000/svg"><g stroke-linecap="round" fill-rule="evenodd" fill="#000000"><path d="M 93.457 32.699 L 84.229 32.699 L 84.229 28.89 Q 84.082 28.988 86.523 28.792 Q 86.788 25.484 86.814 20.025 A 254.71 254.71 0 0 0 86.816 18.831 Q 86.719 10.238 86.768 8.577 A 18.173 18.173 0 0 0 85.989 9.63 Q 85.134 10.867 83.994 12.81 A 114.875 114.875 0 0 0 82.813 14.876 Q 80.769 18.501 79.395 20.482 A 22.164 22.164 0 0 1 78.711 21.419 Q 76.611 21.81 75.146 19.173 A 449.116 449.116 0 0 0 73.206 15.626 Q 70.268 10.318 68.848 8.187 L 68.848 28.646 Q 69.049 28.767 69.751 28.788 A 10.629 10.629 0 0 0 70.068 28.792 Q 70.876 28.752 71.216 28.845 A 0.67 0.67 0 0 1 71.338 28.89 L 71.338 32.552 A 28.201 28.201 0 0 1 70.428 32.616 Q 69.409 32.673 68.052 32.691 A 100.159 100.159 0 0 1 66.748 32.699 L 62.012 32.699 L 62.012 28.89 A 0.044 0.044 0 0 0 62 28.898 Q 61.926 28.976 64.078 28.807 A 138.161 138.161 0 0 0 64.258 28.792 A 68.785 68.785 0 0 0 64.416 26.361 Q 64.583 22.919 64.552 18.022 A 257.595 257.595 0 0 0 64.551 17.806 Q 64.502 8.431 64.502 6.527 Q 64.247 6.399 63.514 6.456 A 8.561 8.561 0 0 0 63.281 6.478 A 7.253 7.253 0 0 1 63.029 6.502 Q 62.492 6.542 62.173 6.475 A 1.114 1.114 0 0 1 62.012 6.429 L 62.012 2.474 L 70.068 2.474 A 72.332 72.332 0 0 1 71.255 4.356 Q 72.964 7.146 75.797 12.117 A 765.981 765.981 0 0 1 77.637 15.365 Q 78.282 14.535 84.709 3.793 A 2662.787 2662.787 0 0 0 85.498 2.474 L 93.555 2.474 L 93.555 6.38 L 91.211 6.527 L 91.211 28.646 A 0.81 0.81 0 0 0 91.403 28.722 Q 91.761 28.818 92.432 28.744 Q 93.229 28.65 93.531 28.871 A 0.495 0.495 0 0 1 93.555 28.89 Q 93.555 29.183 93.604 30.843 Q 93.604 31.901 93.494 32.519 A 3.633 3.633 0 0 1 93.457 32.699 Z M 90.332 5.648 L 92.676 5.648 L 92.676 3.402 L 86.035 3.402 Q 85.498 4.134 81.934 10.335 A 98.98 98.98 0 0 1 80.434 12.814 Q 78.855 15.336 77.549 17.012 A 28.356 28.356 0 0 1 77.539 17.025 A 205.607 205.607 0 0 0 74.594 11.582 Q 71.887 6.766 69.58 3.402 L 63.037 3.402 Q 62.848 3.638 62.842 4.376 A 6.043 6.043 0 0 0 62.842 4.427 A 178.618 178.618 0 0 1 62.858 4.782 Q 62.885 5.364 62.89 5.574 A 3.439 3.439 0 0 1 62.891 5.648 L 63.574 5.648 L 64.307 5.648 A 3.122 3.122 0 0 1 64.663 5.667 Q 65.028 5.709 65.23 5.845 A 0.585 0.585 0 0 1 65.381 5.99 A 69.939 69.939 0 0 0 65.36 6.846 Q 65.299 9.953 65.371 16.856 A 1085.197 1085.197 0 0 0 65.381 17.757 A 303.194 303.194 0 0 1 65.399 19.597 Q 65.442 25.85 65.186 29.525 L 62.891 29.525 L 62.891 31.771 L 70.459 31.771 L 70.459 29.525 A 15.608 15.608 0 0 1 69.942 29.572 Q 68.572 29.674 67.988 29.435 A 1.27 1.27 0 0 1 67.969 29.427 L 67.969 5.257 A 170.452 170.452 0 0 1 73.508 14.202 A 148.439 148.439 0 0 1 75.146 17.122 A 1.125 1.125 0 0 0 75.179 17.203 Q 75.278 17.434 75.635 18.148 A 16.572 16.572 0 0 0 75.874 18.671 Q 76.082 19.105 76.27 19.417 Q 77.066 20.701 77.863 20.701 A 1.001 1.001 0 0 0 78.027 20.687 A 0.751 0.751 0 0 0 78.319 20.55 Q 78.712 20.272 79.254 19.45 A 13.179 13.179 0 0 0 79.492 19.076 Q 79.785 18.587 80.127 17.904 A 57.186 57.186 0 0 1 80.219 17.743 Q 80.507 17.244 80.561 17.178 A 0.089 0.089 0 0 1 80.566 17.171 A 955.137 955.137 0 0 1 82.044 14.72 Q 86.666 7.082 87.559 5.992 A 1.942 1.942 0 0 1 87.646 5.892 A 92.016 92.016 0 0 0 87.618 7.088 Q 87.565 10.043 87.589 15.958 A 1184.353 1184.353 0 0 0 87.598 17.708 Q 87.695 25.326 87.402 29.525 L 85.156 29.525 L 85.156 31.771 L 92.676 31.771 L 92.676 29.525 A 11.087 11.087 0 0 1 92.251 29.573 Q 90.762 29.71 90.332 29.281 L 90.332 5.648 Z M 93.604 8.919 L 95.996 8.919 L 95.996 0.081 L 84.131 0.081 A 23.983 23.983 0 0 0 83.714 0.734 Q 83.043 1.819 81.812 3.951 A 376.881 376.881 0 0 0 81.006 5.355 A 128.112 128.112 0 0 1 80.09 6.926 Q 78.772 9.151 77.783 10.579 Q 77.142 9.458 75.515 6.659 A 2596.253 2596.253 0 0 0 74.756 5.355 A 673.844 673.844 0 0 1 73.853 3.798 Q 72.751 1.894 71.974 0.518 A 193.411 193.411 0 0 1 71.729 0.081 L 59.717 0.081 A 23.428 23.428 0 0 0 59.653 0.911 Q 59.57 2.266 59.57 4.281 A 1963.695 1963.695 0 0 1 59.587 5.536 Q 59.617 7.842 59.619 8.563 A 34.715 34.715 0 0 1 59.619 8.675 Q 59.817 8.754 60.499 8.769 A 15.671 15.671 0 0 0 60.84 8.773 A 5.286 5.286 0 0 1 61.194 8.804 Q 61.725 8.869 61.929 9.036 A 0.444 0.444 0 0 1 61.963 9.066 A 1537.352 1537.352 0 0 1 62.012 12.719 Q 62.131 22.54 62.024 25.987 A 48.106 48.106 0 0 1 62.012 26.351 Q 61.677 26.434 60.163 26.947 A 220.747 220.747 0 0 0 59.619 27.132 L 59.619 35.091 L 73.73 35.091 L 73.73 27.523 A 8.974 8.974 0 0 0 72.811 26.963 Q 72.333 26.708 71.77 26.468 A 17.095 17.095 0 0 0 71.24 26.253 L 71.24 17.171 Q 74.121 21.908 74.414 22.249 A 5.689 5.689 0 0 0 75.802 23.347 Q 77.361 24.207 79.296 23.778 A 7.62 7.62 0 0 0 80.322 23.47 A 9.488 9.488 0 0 0 80.725 22.945 Q 81.168 22.33 81.76 21.368 A 58.412 58.412 0 0 0 82.373 20.345 A 49.609 49.609 0 0 1 82.974 19.367 Q 83.817 18.034 84.327 17.468 A 4.047 4.047 0 0 1 84.375 17.415 Q 84.328 24.945 84.237 26.248 A 5.075 5.075 0 0 1 84.229 26.351 Q 83.894 26.434 82.38 26.947 A 220.747 220.747 0 0 0 81.836 27.132 L 81.836 35.091 L 95.996 35.091 L 95.996 27.523 A 2.9 2.9 0 0 1 95.895 27.469 Q 95.618 27.315 94.824 26.839 A 10.856 10.856 0 0 0 94.332 26.574 Q 94.087 26.45 93.863 26.356 A 5.539 5.539 0 0 0 93.604 26.253 L 93.604 8.919 Z M 50.83 2.474 L 50.83 6.38 Q 50.013 6.607 48.647 6.412 A 11.754 11.754 0 0 1 48.438 6.38 Q 48.145 10.872 48.242 19.417 Q 48.38 28.044 48.216 32.056 A 58.805 58.805 0 0 1 48.193 32.552 L 43.652 32.552 Q 40.82 28.06 36.816 20.882 A 12243.938 12243.938 0 0 1 35.378 18.281 Q 30.652 9.731 30.225 8.919 Q 30.075 11.686 30.04 15.912 A 329.13 329.13 0 0 0 30.029 18.636 Q 30.075 26.221 30.078 28.29 A 183.466 183.466 0 0 1 30.078 28.548 A 0.665 0.665 0 0 0 30.234 28.612 Q 30.518 28.695 31.104 28.695 A 178.618 178.618 0 0 1 31.459 28.678 Q 32.04 28.652 32.251 28.647 A 3.439 3.439 0 0 1 32.324 28.646 A 1.849 1.849 0 0 1 32.377 28.891 Q 32.46 29.431 32.422 30.55 A 5.88 5.88 0 0 0 32.407 30.777 Q 32.366 31.706 32.674 32.111 A 0.84 0.84 0 0 0 32.715 32.161 A 5.876 5.876 0 0 1 31.875 32.376 Q 30.536 32.624 28.369 32.552 A 169.808 169.808 0 0 0 27.528 32.531 Q 24.719 32.467 23.779 32.552 A 3.557 3.557 0 0 1 23.709 32.175 Q 23.657 31.789 23.64 31.235 A 18.217 18.217 0 0 1 23.633 30.697 L 23.633 28.695 L 25.781 28.695 A 67.049 67.049 0 0 0 25.939 26.29 Q 26.106 22.883 26.076 18.02 A 254.061 254.061 0 0 0 26.074 17.806 A 13921.734 13921.734 0 0 1 26.058 14.588 Q 26.025 8.181 26.025 6.673 Q 25.805 6.497 25.029 6.48 A 7.892 7.892 0 0 0 24.854 6.478 Q 23.926 6.527 23.633 6.38 L 23.633 4.232 A 7.081 7.081 0 0 1 23.628 4.041 Q 23.619 3.106 23.881 2.661 A 0.926 0.926 0 0 1 24.023 2.474 L 31.689 2.474 Q 33.447 5.24 36.205 10.182 A 415.944 415.944 0 0 1 37.988 13.411 A 584.23 584.23 0 0 0 39.938 16.918 Q 42.676 21.798 44.287 24.398 L 44.287 6.673 A 0.627 0.627 0 0 0 44.111 6.579 Q 43.837 6.478 43.311 6.478 A 154.802 154.802 0 0 1 42.972 6.494 Q 42.297 6.527 42.139 6.527 L 42.139 2.474 L 50.83 2.474 Z M 45.166 5.99 L 45.166 27.425 A 84.635 84.635 0 0 1 43.759 25.191 Q 41.479 21.456 38.184 15.413 A 441.739 441.739 0 0 0 36.026 11.532 Q 32.996 6.148 31.201 3.402 L 24.658 3.402 Q 24.316 3.597 24.365 4.378 A 170.083 170.083 0 0 1 24.4 4.643 Q 24.505 5.458 24.511 5.585 A 0.28 0.28 0 0 1 24.512 5.599 Q 26.58 5.647 26.895 5.979 A 0.272 0.272 0 0 1 26.904 5.99 A 67.247 67.247 0 0 0 26.883 6.836 Q 26.823 9.918 26.895 16.895 A 1116.686 1116.686 0 0 0 26.904 17.806 Q 26.949 24.646 26.71 28.738 A 68.733 68.733 0 0 1 26.66 29.525 A 1.177 1.177 0 0 0 26.515 29.5 Q 26.016 29.442 24.561 29.525 A 11.814 11.814 0 0 1 24.551 29.98 Q 24.542 30.213 24.524 30.472 A 20.588 20.588 0 0 1 24.512 30.648 A 22.307 22.307 0 0 0 24.47 30.982 Q 24.417 31.431 24.414 31.653 A 1.899 1.899 0 0 0 24.414 31.673 L 31.445 31.673 A 0.044 0.044 0 0 1 31.437 31.685 Q 31.359 31.759 31.529 29.606 A 138.161 138.161 0 0 1 31.543 29.427 A 5.245 5.245 0 0 1 31.101 29.532 Q 30.389 29.667 29.866 29.53 A 1.616 1.616 0 0 1 29.199 29.183 L 29.199 6.038 A 92.803 92.803 0 0 1 30.728 8.446 Q 32.421 11.197 34.595 15.051 A 378.425 378.425 0 0 1 36.67 18.783 Q 41.301 27.191 43.655 31.045 A 81.546 81.546 0 0 0 44.043 31.673 L 47.412 31.673 L 47.412 18.587 A 736.262 736.262 0 0 1 47.421 14.831 Q 47.449 9.456 47.559 5.648 L 49.951 5.648 L 49.951 3.402 L 43.066 3.402 L 43.066 5.599 A 13.063 13.063 0 0 1 43.691 5.613 Q 44.928 5.672 45.166 5.99 Z M 53.223 0.081 L 39.746 0.081 L 39.746 8.87 A 0.832 0.832 0 0 0 39.847 8.887 Q 40.125 8.919 40.918 8.919 A 5.027 5.027 0 0 1 41.083 8.91 Q 41.609 8.89 41.867 9.004 A 0.65 0.65 0 0 1 41.895 9.017 L 41.895 15.169 A 128.404 128.404 0 0 1 41.003 13.677 Q 40.022 12.009 38.78 9.809 A 420.41 420.41 0 0 1 37.598 7.699 A 1503.509 1503.509 0 0 0 36.31 5.365 Q 34.686 2.43 33.813 0.892 A 109.666 109.666 0 0 0 33.35 0.081 L 21.24 0.033 A 5.19 5.19 0 0 1 21.277 0.392 Q 21.351 1.429 21.212 3.626 A 73.279 73.279 0 0 1 21.191 3.939 Q 20.971 8.134 20.91 8.695 A 0.731 0.731 0 0 1 20.898 8.773 A 52.999 52.999 0 0 1 21.69 8.818 Q 22.762 8.888 23.287 8.978 A 3.594 3.594 0 0 1 23.486 9.017 Q 23.486 23.814 23.403 25.893 A 5.736 5.736 0 0 1 23.389 26.156 A 3.563 3.563 0 0 1 23.193 26.15 Q 22.972 26.137 22.651 26.1 A 19.632 19.632 0 0 1 22.314 26.058 A 22.827 22.827 0 0 0 21.829 26.028 Q 21.448 26.009 21.143 26.009 A 17271.162 17271.162 0 0 0 21.232 28.139 Q 21.526 35.095 21.533 35.095 A 0.018 0.018 0 0 0 21.533 35.091 A 29.172 29.172 0 0 1 22.095 35.071 Q 23.436 35.033 27.229 34.973 A 2053.08 2053.08 0 0 1 29.053 34.945 A 140.928 140.928 0 0 0 30.707 34.998 Q 32.717 35.051 34.193 35.023 A 39.545 39.545 0 0 0 35.156 34.994 A 503.689 503.689 0 0 0 35.068 33.504 Q 34.929 31.211 34.679 27.336 A 3970.351 3970.351 0 0 0 34.619 26.4 A 13.301 13.301 0 0 1 33.877 26.38 Q 33.16 26.34 32.678 26.216 A 3.081 3.081 0 0 1 32.471 26.156 L 32.471 18.099 A 31.948 31.948 0 0 0 32.608 18.346 Q 33.313 19.607 37.158 26.4 Q 39.648 30.942 41.551 33.883 A 59.53 59.53 0 0 0 41.992 34.554 L 50.684 34.554 L 50.684 8.919 A 6.928 6.928 0 0 1 50.909 8.867 Q 51.275 8.789 51.888 8.686 A 47.757 47.757 0 0 1 51.953 8.675 Q 52.832 8.529 53.223 8.431 L 53.223 0.081 Z M 305.908 26.302 L 302.783 26.302 A 27.014 27.014 0 0 0 302.523 25.705 Q 301.921 24.357 300.335 21 A 1081.293 1081.293 0 0 0 299.609 19.466 Q 301.083 18.484 301.904 17.365 A 6.019 6.019 0 0 0 302.197 16.927 A 6.456 6.456 0 0 0 302.883 15.171 Q 303.067 14.398 303.113 13.503 A 11.513 11.513 0 0 0 303.125 13.167 Q 303.125 13.119 302.832 9.456 A 17.886 17.886 0 0 1 302.805 8.911 Q 302.74 7.058 303.125 5.99 A 4.888 4.888 0 0 1 302.168 5.431 Q 301.237 4.749 300.244 3.499 A 31.688 31.688 0 0 0 299.509 2.581 Q 298.378 1.225 297.705 0.814 A 3.804 3.804 0 0 0 296.76 0.393 Q 295.297 -0.057 292.632 0.008 A 31.852 31.852 0 0 0 291.943 0.033 Q 290.479 0.081 276.416 0.179 Q 276.219 1.262 276.133 2.763 A 40.933 40.933 0 0 0 276.074 4.329 A 453.169 453.169 0 0 1 276.073 5.629 Q 276.066 7.861 276.035 8.548 A 5.661 5.661 0 0 1 276.025 8.724 A 21.133 21.133 0 0 1 277.332 8.809 A 16.068 16.068 0 0 1 278.516 8.968 Q 278.516 10.43 278.558 16.809 A 8999.489 8999.489 0 0 0 278.564 17.708 Q 278.564 21.821 278.479 24.645 A 102.776 102.776 0 0 1 278.418 26.253 A 248.428 248.428 0 0 1 277.983 26.29 Q 276.199 26.439 276.263 26.402 A 0.039 0.039 0 0 1 276.27 26.4 A 0.029 0.029 0 0 0 276.269 26.396 Q 276.265 26.396 276.048 34.256 A 27357.475 27357.475 0 0 0 276.025 35.091 L 290.137 35.091 L 290.137 26.644 A 0.649 0.649 0 0 0 290.028 26.604 Q 289.832 26.547 289.429 26.511 A 9.752 9.752 0 0 0 289.258 26.497 Q 288.77 26.46 288.513 26.365 A 0.803 0.803 0 0 1 288.379 26.302 L 288.379 22.103 L 290.625 22.103 A 3.516 3.516 0 0 1 290.717 22.279 Q 290.958 22.765 291.553 24.154 A 89.651 89.651 0 0 0 291.834 24.733 Q 292.236 25.557 292.529 26.107 A 0.022 0.022 0 0 1 292.532 26.098 Q 292.566 26.098 292.188 35.091 L 305.908 35.091 L 305.908 26.302 Z M 259.521 0.081 L 250.049 0.081 Q 248.666 3.521 246.739 9.307 A 392.615 392.615 0 0 0 245.508 13.07 Q 242.72 21.703 241.299 25.616 A 90.527 90.527 0 0 1 241.064 26.253 A 3.263 3.263 0 0 0 240.705 26.357 Q 240.122 26.556 239.074 27.059 A 45.224 45.224 0 0 0 238.428 27.376 L 238.428 35.091 L 251.904 35.091 L 251.904 27.279 A 0.305 0.305 0 0 0 251.82 27.182 Q 251.669 27.061 251.293 26.94 A 5.344 5.344 0 0 0 251.123 26.888 A 2.396 2.396 0 0 1 250.875 26.791 Q 250.514 26.624 250.439 26.4 A 30.011 30.011 0 0 1 250.545 26.089 Q 250.823 25.283 250.962 25.061 A 0.261 0.261 0 0 1 251.025 24.984 L 257.617 24.984 A 1.447 1.447 0 0 0 257.641 25.238 Q 257.663 25.361 257.706 25.498 A 3.015 3.015 0 0 0 257.764 25.667 A 5.994 5.994 0 0 1 257.845 25.88 Q 257.959 26.201 257.959 26.351 A 0.055 0.055 0 0 1 257.935 26.362 Q 257.819 26.39 257.221 26.359 A 23.559 23.559 0 0 1 257.08 26.351 Q 256.792 26.325 256.644 26.397 A 0.257 0.257 0 0 0 256.494 26.595 L 256.494 35.091 L 270.508 35.091 L 270.508 26.107 Q 270.027 26.107 269.273 26.146 A 48.852 48.852 0 0 0 269.092 26.156 A 11.2 11.2 0 0 1 268.639 26.218 Q 268.026 26.29 267.627 26.253 A 125.993 125.993 0 0 1 267.317 25.306 Q 266.578 23.021 264.484 16.434 A 9667.164 9667.164 0 0 1 263.477 13.265 A 647.705 647.705 0 0 1 262.296 9.475 Q 260.731 4.398 259.67 0.613 A 220.453 220.453 0 0 1 259.521 0.081 Z M 352.588 0.081 L 343.115 0.081 Q 341.732 3.521 339.805 9.307 A 392.615 392.615 0 0 0 338.574 13.07 Q 335.786 21.703 334.365 25.616 A 90.527 90.527 0 0 1 334.131 26.253 A 3.263 3.263 0 0 0 333.771 26.357 Q 333.189 26.556 332.141 27.059 A 45.224 45.224 0 0 0 331.494 27.376 L 331.494 35.091 L 344.971 35.091 L 344.971 27.279 A 0.305 0.305 0 0 0 344.886 27.182 Q 344.736 27.061 344.36 26.94 A 5.344 5.344 0 0 0 344.189 26.888 A 2.396 2.396 0 0 1 343.942 26.791 Q 343.581 26.624 343.506 26.4 A 30.011 30.011 0 0 1 343.611 26.089 Q 343.89 25.283 344.028 25.061 A 0.261 0.261 0 0 1 344.092 24.984 L 350.684 24.984 A 1.447 1.447 0 0 0 350.708 25.238 Q 350.73 25.361 350.772 25.498 A 3.015 3.015 0 0 0 350.83 25.667 A 5.994 5.994 0 0 1 350.911 25.88 Q 351.025 26.201 351.025 26.351 A 0.055 0.055 0 0 1 351.001 26.362 Q 350.886 26.39 350.288 26.359 A 23.559 23.559 0 0 1 350.146 26.351 Q 349.858 26.325 349.71 26.397 A 0.257 0.257 0 0 0 349.561 26.595 L 349.561 35.091 L 363.574 35.091 L 363.574 26.107 Q 363.094 26.107 362.34 26.146 A 48.852 48.852 0 0 0 362.158 26.156 A 11.2 11.2 0 0 1 361.706 26.218 Q 361.092 26.29 360.693 26.253 A 125.993 125.993 0 0 1 360.384 25.306 Q 359.644 23.021 357.55 16.434 A 9667.164 9667.164 0 0 1 356.543 13.265 A 647.705 647.705 0 0 1 355.362 9.475 Q 353.798 4.398 352.736 0.613 A 220.453 220.453 0 0 1 352.588 0.081 Z M 303.516 28.646 L 303.516 32.552 A 19.999 19.999 0 0 1 302.427 32.655 Q 301.277 32.734 299.698 32.746 A 74.36 74.36 0 0 1 299.17 32.747 A 2123.476 2123.476 0 0 0 297.881 32.731 Q 295.516 32.701 294.791 32.699 A 35.084 35.084 0 0 0 294.678 32.699 L 294.678 28.695 L 296.289 28.695 A 30.753 30.753 0 0 0 295.947 27.828 Q 295.361 26.4 294.336 24.202 A 161.859 161.859 0 0 1 293.677 22.823 Q 292.761 20.882 292.285 19.71 L 286.133 19.71 Q 285.85 21.264 285.886 23.817 A 43.819 43.819 0 0 0 285.889 24.007 Q 285.986 27.62 285.986 28.548 Q 286.111 28.673 286.658 28.691 A 6.073 6.073 0 0 0 286.865 28.695 Q 287.549 28.646 287.744 28.792 L 287.744 32.552 Q 286.133 32.747 283.252 32.747 A 2247.909 2247.909 0 0 0 281.912 32.731 Q 279.45 32.701 278.684 32.699 A 39.264 39.264 0 0 0 278.564 32.699 L 278.564 28.695 L 280.908 28.695 L 280.908 6.624 Q 280.615 6.478 279.785 6.527 A 4.731 4.731 0 0 1 279.53 6.565 Q 278.892 6.642 278.564 6.478 L 278.564 2.572 A 64.874 64.874 0 0 1 279.123 2.561 Q 281.238 2.529 285.596 2.572 A 272.728 272.728 0 0 0 287.303 2.601 Q 290.811 2.651 292.676 2.572 A 113.688 113.688 0 0 1 293.323 2.55 Q 295.177 2.495 295.679 2.552 A 0.977 0.977 0 0 1 295.801 2.572 A 2.985 2.985 0 0 1 296.678 3.042 Q 297.46 3.629 298.242 4.818 A 13.19 13.19 0 0 0 298.84 5.7 Q 299.467 6.542 300.038 6.951 A 2.404 2.404 0 0 0 300.488 7.21 A 4.482 4.482 0 0 0 300.443 7.576 Q 300.344 8.679 300.481 11.27 A 100.115 100.115 0 0 0 300.537 12.24 Q 300.781 15.072 299.756 16.292 A 3.307 3.307 0 0 1 299.455 16.582 Q 299.001 16.973 298.193 17.464 Q 297.441 17.93 297.004 18.448 A 2.953 2.953 0 0 0 296.729 18.831 A 24.634 24.634 0 0 0 297.086 19.723 Q 297.717 21.224 298.926 23.714 Q 300.391 26.839 301.074 28.646 L 303.516 28.646 Z M 212.842 20.589 L 204.15 20.589 Q 204.15 21.23 204.118 22.759 A 407.641 407.641 0 0 1 204.102 23.47 A 32.223 32.223 0 0 0 204.067 24.236 Q 204.027 25.431 204.102 26.253 Q 203.144 26.373 200.656 26.395 A 135.896 135.896 0 0 1 199.463 26.4 L 199.463 8.968 L 202.344 8.968 L 202.344 0.13 L 187.061 0.13 A 4.429 4.429 0 0 1 187.168 0.668 Q 187.312 1.684 187.22 3.464 A 33.601 33.601 0 0 1 187.207 3.695 Q 186.917 8.09 187.249 8.09 A 0.052 0.052 0 0 0 187.256 8.089 Q 187.842 8.382 188.281 8.48 Q 189.031 8.717 189.43 8.953 A 1.894 1.894 0 0 1 189.6 9.066 A 306.054 306.054 0 0 1 189.722 17.708 A 306.054 306.054 0 0 1 189.6 26.351 Q 189.209 26.4 188.428 26.546 A 7.614 7.614 0 0 1 187.994 26.649 Q 187.768 26.695 187.572 26.718 A 3.143 3.143 0 0 1 187.207 26.742 L 187.207 35.091 L 212.842 35.091 L 212.842 20.589 Z M 281.689 29.525 L 279.297 29.525 Q 279.297 29.85 279.364 30.411 A 18.702 18.702 0 0 0 279.395 30.648 A 7.005 7.005 0 0 1 279.441 31.056 Q 279.472 31.419 279.452 31.716 A 3.087 3.087 0 0 1 279.443 31.82 L 286.865 31.82 L 286.865 29.574 Q 286.824 29.574 286.604 29.538 A 18.166 18.166 0 0 1 286.523 29.525 L 285.986 29.525 Q 285.303 29.476 285.107 29.183 L 285.107 23.861 A 62.194 62.194 0 0 1 285.101 23.177 Q 285.09 20.523 285.329 18.971 A 11.363 11.363 0 0 1 285.352 18.831 L 292.92 18.831 Q 293.443 20.289 294.511 22.663 A 134.706 134.706 0 0 0 295.215 24.202 A 98.093 98.093 0 0 1 296.002 25.835 Q 296.819 27.572 297.29 28.791 A 19.969 19.969 0 0 1 297.559 29.525 L 295.459 29.525 Q 295.459 29.915 295.508 30.648 A 7.005 7.005 0 0 1 295.555 31.056 Q 295.585 31.419 295.565 31.716 A 3.087 3.087 0 0 1 295.557 31.82 L 302.588 31.82 L 302.588 29.574 L 300.635 29.574 Q 299.977 27.928 298.323 24.428 A 287.225 287.225 0 0 0 298.193 24.154 A 78.021 78.021 0 0 1 297.251 22.177 Q 296.418 20.358 295.954 19.038 A 19.818 19.818 0 0 1 295.85 18.734 A 2.243 2.243 0 0 1 296.205 18.067 Q 296.607 17.532 297.382 16.997 A 8.827 8.827 0 0 1 297.559 16.878 Q 299.072 15.951 299.463 15.169 A 3.235 3.235 0 0 0 299.72 14.429 Q 299.902 13.618 299.805 12.484 A 23.032 23.032 0 0 1 299.779 12.294 Q 299.724 11.886 299.609 10.97 Q 299.512 10.042 299.463 9.505 A 2.639 2.639 0 0 1 299.469 9.337 Q 299.481 9.147 299.518 8.869 A 14.994 14.994 0 0 1 299.561 8.577 A 35.406 35.406 0 0 0 299.577 8.39 Q 299.609 8.013 299.609 7.894 Q 299.609 7.845 297.705 5.501 A 17.532 17.532 0 0 0 297.114 4.802 Q 296.182 3.763 295.557 3.489 A 1.448 1.448 0 0 0 295.459 3.451 Q 294.659 3.228 292.4 3.289 A 45.959 45.959 0 0 0 291.943 3.304 Q 289.404 3.451 279.297 3.451 A 3.729 3.729 0 0 0 279.303 3.649 Q 279.315 3.876 279.352 4.216 A 23.487 23.487 0 0 0 279.395 4.574 A 5.904 5.904 0 0 1 279.443 4.98 Q 279.472 5.322 279.45 5.614 A 3.106 3.106 0 0 1 279.443 5.697 A 24.699 24.699 0 0 1 280.121 5.705 Q 281.467 5.742 281.786 5.94 A 0.38 0.38 0 0 1 281.787 5.941 Q 281.787 7.951 281.83 16.588 A 16241.096 16241.096 0 0 0 281.836 17.806 A 627.538 627.538 0 0 1 281.827 21.285 Q 281.799 26.229 281.689 29.525 Z M 268.115 28.744 L 268.115 32.552 A 30.177 30.177 0 0 1 266.958 32.629 Q 265.752 32.689 264.12 32.697 A 106.481 106.481 0 0 1 263.574 32.699 L 258.887 32.699 L 258.887 28.792 L 261.279 28.792 Q 260.986 27.572 260.352 25.667 Q 259.753 23.753 259.481 22.913 A 44.114 44.114 0 0 0 259.375 22.591 L 249.268 22.591 Q 249.121 22.884 247.119 28.646 A 0.621 0.621 0 0 0 247.27 28.706 Q 247.58 28.792 248.291 28.792 A 10.822 10.822 0 0 1 248.468 28.785 Q 249.108 28.763 249.384 28.839 A 0.516 0.516 0 0 1 249.512 28.89 L 249.512 32.552 A 23.26 23.26 0 0 1 248.679 32.616 Q 247.314 32.699 245.264 32.699 L 240.82 32.699 L 240.82 28.89 A 0.575 0.575 0 0 1 240.917 28.873 Q 241.25 28.834 242.591 28.795 A 126.517 126.517 0 0 1 242.676 28.792 A 79.133 79.133 0 0 0 243.582 26.43 Q 244.983 22.62 247.003 16.28 A 514.557 514.557 0 0 0 247.217 15.609 Q 250 6.771 251.807 2.474 L 257.617 2.474 Q 259.015 7.104 261.155 14 A 2957.51 2957.51 0 0 0 261.67 15.658 Q 264.636 25.017 265.565 27.94 A 1716.559 1716.559 0 0 0 265.82 28.744 L 268.115 28.744 Z M 361.182 28.744 L 361.182 32.552 A 30.177 30.177 0 0 1 360.025 32.629 Q 358.819 32.689 357.186 32.697 A 106.481 106.481 0 0 1 356.641 32.699 L 351.953 32.699 L 351.953 28.792 L 354.346 28.792 Q 354.053 27.572 353.418 25.667 Q 352.82 23.753 352.547 22.913 A 44.114 44.114 0 0 0 352.441 22.591 L 342.334 22.591 Q 342.188 22.884 340.186 28.646 A 0.621 0.621 0 0 0 340.337 28.706 Q 340.646 28.792 341.357 28.792 A 10.822 10.822 0 0 1 341.534 28.785 Q 342.174 28.763 342.45 28.839 A 0.516 0.516 0 0 1 342.578 28.89 L 342.578 32.552 A 23.26 23.26 0 0 1 341.745 32.616 Q 340.381 32.699 338.33 32.699 L 333.887 32.699 L 333.887 28.89 A 0.575 0.575 0 0 1 333.983 28.873 Q 334.317 28.834 335.657 28.795 A 126.517 126.517 0 0 1 335.742 28.792 A 79.133 79.133 0 0 0 336.649 26.43 Q 338.049 22.62 340.07 16.28 A 514.557 514.557 0 0 0 340.283 15.609 Q 343.066 6.771 344.873 2.474 L 350.684 2.474 Q 352.081 7.104 354.221 14 A 2957.51 2957.51 0 0 0 354.736 15.658 Q 357.703 25.017 358.631 27.94 A 1716.559 1716.559 0 0 0 358.887 28.744 L 361.182 28.744 Z M 210.4 22.982 L 210.4 32.552 A 96.538 96.538 0 0 1 208.754 32.62 Q 205.254 32.738 200.098 32.699 L 189.6 32.699 L 189.6 28.792 L 191.992 28.792 A 422.712 422.712 0 0 0 192.139 17.672 A 419.934 419.934 0 0 0 191.992 6.576 Q 191.78 6.448 191.089 6.505 A 7.798 7.798 0 0 0 190.869 6.527 Q 190.187 6.602 189.799 6.502 A 1.016 1.016 0 0 1 189.6 6.429 L 189.6 4.281 A 7.913 7.913 0 0 1 189.595 4.084 Q 189.584 3.168 189.808 2.723 A 0.93 0.93 0 0 1 189.941 2.523 L 199.951 2.523 L 199.951 4.574 Q 199.998 5.847 199.863 6.482 A 2.591 2.591 0 0 1 199.854 6.527 L 197.07 6.527 A 171.41 171.41 0 0 0 197.003 9.157 Q 196.949 12.128 196.964 15.926 A 469.866 469.866 0 0 0 196.973 17.562 A 13707.625 13707.625 0 0 1 196.989 20.763 Q 197.021 27.138 197.021 28.646 Q 198.652 28.786 201.351 28.792 A 110.227 110.227 0 0 0 201.611 28.792 L 206.396 28.792 A 10.143 10.143 0 0 0 206.471 28.135 Q 206.526 27.469 206.539 26.548 A 41.701 41.701 0 0 0 206.543 25.96 Q 206.501 23.829 206.495 23.164 A 20.975 20.975 0 0 1 206.494 22.982 L 210.4 22.982 Z M 256.982 3.402 L 252.295 3.402 Q 250.946 6.773 248.314 15.071 A 613.325 613.325 0 0 0 247.852 16.536 A 244.138 244.138 0 0 1 246.555 20.571 Q 245.118 24.903 243.922 27.85 A 55.503 55.503 0 0 1 243.213 29.525 Q 242.48 29.72 241.699 29.525 L 241.699 31.771 L 248.633 31.771 L 248.633 29.525 Q 247.537 29.616 247.252 29.622 A 1.723 1.723 0 0 1 247.217 29.622 A 2.705 2.705 0 0 1 246.865 29.601 Q 246.478 29.55 246.283 29.375 A 0.565 0.565 0 0 1 246.143 29.183 A 168.485 168.485 0 0 1 246.858 26.775 Q 247.96 23.17 248.633 21.712 L 260.01 21.712 A 20.969 20.969 0 0 0 260.114 22.061 Q 260.355 22.849 260.989 24.817 A 829.434 829.434 0 0 0 261.279 25.716 A 42.69 42.69 0 0 1 261.633 26.876 Q 261.998 28.138 262.169 29.077 A 11.59 11.59 0 0 1 262.256 29.622 L 259.766 29.622 L 259.766 31.771 L 267.188 31.771 L 267.188 29.671 A 33.929 33.929 0 0 0 266.733 29.633 Q 265.551 29.541 265.247 29.619 A 0.473 0.473 0 0 0 265.234 29.622 A 914.433 914.433 0 0 0 264.517 27.34 Q 263.412 23.835 261.537 17.956 A 7006.841 7006.841 0 0 0 261.084 16.536 Q 258.447 8.089 256.982 3.402 Z M 350.049 3.402 L 345.361 3.402 Q 344.013 6.773 341.381 15.071 A 613.325 613.325 0 0 0 340.918 16.536 A 244.138 244.138 0 0 1 339.621 20.571 Q 338.184 24.903 336.989 27.85 A 55.503 55.503 0 0 1 336.279 29.525 Q 335.547 29.72 334.766 29.525 L 334.766 31.771 L 341.699 31.771 L 341.699 29.525 Q 340.603 29.616 340.319 29.622 A 1.723 1.723 0 0 1 340.283 29.622 A 2.705 2.705 0 0 1 339.931 29.601 Q 339.544 29.55 339.35 29.375 A 0.565 0.565 0 0 1 339.209 29.183 A 168.485 168.485 0 0 1 339.924 26.775 Q 341.026 23.17 341.699 21.712 L 353.076 21.712 A 20.969 20.969 0 0 0 353.18 22.061 Q 353.421 22.849 354.055 24.817 A 829.434 829.434 0 0 0 354.346 25.716 A 42.69 42.69 0 0 1 354.7 26.876 Q 355.064 28.138 355.236 29.077 A 11.59 11.59 0 0 1 355.322 29.622 L 352.832 29.622 L 352.832 31.771 L 360.254 31.771 L 360.254 29.671 A 33.929 33.929 0 0 0 359.799 29.633 Q 358.617 29.541 358.314 29.619 A 0.473 0.473 0 0 0 358.301 29.622 A 914.433 914.433 0 0 0 357.584 27.34 Q 356.478 23.835 354.603 17.956 A 7006.841 7006.841 0 0 0 354.15 16.536 Q 351.514 8.089 350.049 3.402 Z M 136.328 26.107 L 133.984 26.107 L 133.984 34.798 A 33.289 33.289 0 0 1 135.151 34.731 Q 137.572 34.63 141.266 34.763 A 166.153 166.153 0 0 1 143.262 34.847 A 235.137 235.137 0 0 0 145.277 34.952 Q 149.741 35.163 151.514 35.042 A 7.466 7.466 0 0 0 153.488 34.639 A 6.262 6.262 0 0 0 154.98 33.87 A 3.719 3.719 0 0 0 155.312 33.634 Q 155.845 33.216 156.791 32.297 A 58.998 58.998 0 0 0 157.373 31.722 A 113.412 113.412 0 0 0 157.994 31.096 Q 159.652 29.413 160.075 28.815 A 1.169 1.169 0 0 0 160.205 28.597 Q 160.742 27.425 160.645 25.277 L 160.498 21.419 A 2.156 2.156 0 0 1 160.503 21.281 Q 160.521 21.015 160.596 20.492 Q 160.742 19.906 160.742 19.71 A 1.604 1.604 0 0 0 160.6 19.294 Q 160.425 18.935 160.059 18.538 Q 159.508 17.904 159.288 17.452 A 2.018 2.018 0 0 1 159.229 17.318 Q 160.408 16.18 160.861 13.334 A 19.143 19.143 0 0 0 160.986 12.386 A 21.042 21.042 0 0 0 161.07 11.226 Q 161.169 8.918 160.669 7.308 A 6.828 6.828 0 0 0 160.498 6.82 A 1.918 1.918 0 0 0 160.29 6.475 Q 159.719 5.683 157.828 3.902 A 74.081 74.081 0 0 0 157.764 3.841 Q 154.738 0.959 154.736 0.959 A 0.01 0.01 0 0 0 154.736 0.96 Q 152.811 -0.086 149.307 0.123 A 23.872 23.872 0 0 0 148.096 0.228 Q 148.096 0.23 134.961 0.472 Q 134.229 1.888 134.082 4.427 A 7.228 7.228 0 0 0 134.064 4.655 Q 134.026 5.223 133.987 6.568 A 169.753 169.753 0 0 0 133.984 6.673 Q 133.943 7.923 133.865 8.747 A 15.883 15.883 0 0 1 133.838 9.017 A 294.282 294.282 0 0 1 134.402 9.063 Q 136.136 9.208 136.397 9.255 A 0.454 0.454 0 0 1 136.426 9.261 L 136.426 17.757 A 287.854 287.854 0 0 1 136.435 19.031 Q 136.451 22.209 136.386 24.527 A 83.529 83.529 0 0 1 136.328 26.107 Z M 196.289 5.697 L 199.072 5.697 L 199.072 3.402 L 190.625 3.402 Q 190.345 3.682 190.377 4.318 A 2.881 2.881 0 0 0 190.381 4.378 Q 190.522 5.32 190.482 5.626 A 0.647 0.647 0 0 1 190.479 5.648 A 24.89 24.89 0 0 1 191.158 5.656 Q 192.514 5.694 192.871 5.892 Q 193.016 24.092 192.779 29.405 A 56.825 56.825 0 0 1 192.773 29.525 L 190.479 29.525 L 190.479 31.771 L 209.521 31.771 L 209.521 23.861 L 207.275 23.861 A 77.245 77.245 0 0 1 207.312 24.885 Q 207.398 27.878 207.168 29.142 A 3.137 3.137 0 0 1 207.031 29.671 Q 205.566 29.525 201.563 29.622 A 67.576 67.576 0 0 1 200.699 29.641 Q 197.772 29.683 196.191 29.427 Q 196.191 28.939 196.143 17.464 A 612.206 612.206 0 0 1 196.152 14.037 Q 196.179 9.139 196.289 5.697 Z M 14.844 9.115 L 14.844 0.033 L 0.146 0.033 A 23.26 23.26 0 0 0 0.082 0.866 Q 0 2.23 0 4.281 A 2042.531 2042.531 0 0 1 0.017 5.553 Q 0.046 7.888 0.049 8.612 A 34.879 34.879 0 0 1 0.049 8.724 A 1.19 1.19 0 0 0 0.218 8.764 Q 0.516 8.816 1.092 8.821 A 14.666 14.666 0 0 0 1.221 8.822 A 8.397 8.397 0 0 1 1.577 8.829 Q 2.164 8.854 2.393 8.968 L 2.393 26.204 Q 1.984 26.25 1.322 26.211 A 13.239 13.239 0 0 1 1.221 26.204 Q 0.588 26.125 0.212 26.11 A 4.103 4.103 0 0 0 0.049 26.107 L 0.049 35.091 L 14.844 35.091 L 14.844 26.497 A 15.318 15.318 0 0 1 13.96 26.474 Q 13.055 26.421 12.451 26.253 L 12.451 8.87 A 0.904 0.904 0 0 0 12.634 8.935 Q 12.932 9.009 13.499 9.016 A 9.802 9.802 0 0 0 13.623 9.017 A 12.497 12.497 0 0 1 14.023 9.023 Q 14.57 9.04 14.829 9.11 A 1.093 1.093 0 0 1 14.844 9.115 Z M 181.201 9.115 L 181.201 0.033 L 166.504 0.033 A 23.26 23.26 0 0 0 166.44 0.866 Q 166.357 2.23 166.357 4.281 A 2042.531 2042.531 0 0 1 166.374 5.553 Q 166.404 7.888 166.406 8.612 A 34.879 34.879 0 0 1 166.406 8.724 A 1.19 1.19 0 0 0 166.576 8.764 Q 166.873 8.816 167.45 8.821 A 14.666 14.666 0 0 0 167.578 8.822 A 8.397 8.397 0 0 1 167.935 8.829 Q 168.521 8.854 168.75 8.968 L 168.75 26.204 Q 168.341 26.25 167.68 26.211 A 13.239 13.239 0 0 1 167.578 26.204 Q 166.946 26.125 166.569 26.11 A 4.103 4.103 0 0 0 166.406 26.107 L 166.406 35.091 L 181.201 35.091 L 181.201 26.497 A 15.318 15.318 0 0 1 180.317 26.474 Q 179.413 26.421 178.809 26.253 L 178.809 8.87 A 0.904 0.904 0 0 0 178.992 8.935 Q 179.289 9.009 179.856 9.016 A 9.802 9.802 0 0 0 179.98 9.017 A 12.497 12.497 0 0 1 180.381 9.023 Q 180.927 9.04 181.186 9.11 A 1.093 1.093 0 0 1 181.201 9.115 Z M 233.496 9.115 L 233.496 0.033 L 218.799 0.033 A 23.26 23.26 0 0 0 218.735 0.866 Q 218.652 2.23 218.652 4.281 A 2042.531 2042.531 0 0 1 218.669 5.553 Q 218.699 7.888 218.701 8.612 A 34.879 34.879 0 0 1 218.701 8.724 A 1.19 1.19 0 0 0 218.871 8.764 Q 219.168 8.816 219.745 8.821 A 14.666 14.666 0 0 0 219.873 8.822 A 8.397 8.397 0 0 1 220.23 8.829 Q 220.816 8.854 221.045 8.968 L 221.045 26.204 Q 220.636 26.25 219.975 26.211 A 13.239 13.239 0 0 1 219.873 26.204 Q 219.241 26.125 218.864 26.11 A 4.103 4.103 0 0 0 218.701 26.107 L 218.701 35.091 L 233.496 35.091 L 233.496 26.497 A 15.318 15.318 0 0 1 232.612 26.474 Q 231.708 26.421 231.104 26.253 L 231.104 8.87 A 0.904 0.904 0 0 0 231.287 8.935 Q 231.584 9.009 232.151 9.016 A 9.802 9.802 0 0 0 232.275 9.017 A 12.497 12.497 0 0 1 232.675 9.023 Q 233.222 9.04 233.481 9.11 A 1.093 1.093 0 0 1 233.496 9.115 Z M 326.563 9.115 L 326.563 0.033 L 311.865 0.033 A 23.26 23.26 0 0 0 311.801 0.866 Q 311.719 2.23 311.719 4.281 A 2042.531 2042.531 0 0 1 311.735 5.553 Q 311.765 7.888 311.767 8.612 A 34.879 34.879 0 0 1 311.768 8.724 A 1.19 1.19 0 0 0 311.937 8.764 Q 312.234 8.816 312.811 8.821 A 14.666 14.666 0 0 0 312.939 8.822 A 8.397 8.397 0 0 1 313.296 8.829 Q 313.882 8.854 314.111 8.968 L 314.111 26.204 Q 313.703 26.25 313.041 26.211 A 13.239 13.239 0 0 1 312.939 26.204 Q 312.307 26.125 311.931 26.11 A 4.103 4.103 0 0 0 311.768 26.107 L 311.768 35.091 L 326.563 35.091 L 326.563 26.497 A 15.318 15.318 0 0 1 325.678 26.474 Q 324.774 26.421 324.17 26.253 L 324.17 8.87 A 0.904 0.904 0 0 0 324.353 8.935 Q 324.651 9.009 325.217 9.016 A 9.802 9.802 0 0 0 325.342 9.017 A 12.497 12.497 0 0 1 325.742 9.023 Q 326.289 9.04 326.548 9.11 A 1.093 1.093 0 0 1 326.563 9.115 Z M 103.076 17.269 L 103.076 28.646 L 104.443 30.16 Q 104.834 30.599 105.518 31.429 A 85.545 85.545 0 0 0 105.859 31.859 Q 106.285 32.392 106.535 32.682 A 10.447 10.447 0 0 0 106.592 32.747 Q 107.861 34.212 108.936 34.652 A 5.072 5.072 0 0 0 109.866 34.931 Q 110.801 35.123 112.061 35.091 A 6.715 6.715 0 0 0 112.307 35.086 Q 112.775 35.068 113.672 34.994 A 72.84 72.84 0 0 1 114.178 34.972 Q 114.893 34.945 115.332 34.945 A 311.645 311.645 0 0 0 116.737 34.93 Q 121.309 34.872 121.816 34.704 A 0.368 0.368 0 0 0 121.826 34.701 Q 122.666 34.327 123.417 33.463 A 6.862 6.862 0 0 0 123.486 33.382 A 207.3 207.3 0 0 0 123.807 33.016 Q 124.855 31.818 124.855 31.773 A 0.002 0.002 0 0 0 124.854 31.771 Q 127.588 29.134 127.686 28.792 Q 128.091 27.802 127.998 24.197 A 66.157 66.157 0 0 0 127.979 23.568 A 132.653 132.653 0 0 1 127.856 17.855 A 139.568 139.568 0 0 1 127.979 12.044 Q 128.174 7.65 127.832 6.673 Q 127.588 5.941 125 3.304 Q 122.613 0.917 121.931 0.594 A 0.81 0.81 0 0 0 121.875 0.57 Q 120.215 -0.114 116.211 0.179 A 1079.836 1079.836 0 0 1 115.417 0.236 Q 112.811 0.423 112.598 0.423 A 3.998 3.998 0 0 1 112.385 0.416 Q 112.036 0.397 111.373 0.325 A 59.802 59.802 0 0 1 110.938 0.277 A 9.25 9.25 0 0 0 110.623 0.247 Q 109.976 0.197 109.619 0.277 A 0.347 0.347 0 0 0 109.556 0.322 Q 109.215 0.59 107.059 2.456 A 987.611 987.611 0 0 0 106.25 3.158 A 21.958 21.958 0 0 0 105.191 4.119 Q 103.772 5.501 103.369 6.527 Q 102.881 7.747 102.93 11.361 Q 102.93 12.24 103.027 14.437 A 249.88 249.88 0 0 1 103.049 15.328 Q 103.076 16.558 103.076 17.252 A 34.775 34.775 0 0 1 103.076 17.269 Z M 145.02 32.454 L 136.328 32.454 L 136.328 28.499 L 138.77 28.499 L 138.77 6.917 A 0.477 0.477 0 0 0 138.606 6.815 Q 138.339 6.709 137.804 6.759 A 4.78 4.78 0 0 0 137.695 6.771 Q 136.83 6.867 136.485 6.679 A 0.606 0.606 0 0 1 136.475 6.673 Q 136.607 3.28 136.659 2.91 A 0.129 0.129 0 0 1 136.67 2.865 A 1767.144 1767.144 0 0 0 140.043 2.845 Q 146.27 2.801 148.478 2.73 A 48.986 48.986 0 0 0 148.828 2.718 Q 151.837 2.593 152.843 2.753 A 2.053 2.053 0 0 1 153.125 2.816 A 1.029 1.029 0 0 1 153.34 2.948 Q 153.842 3.318 155.205 4.657 A 103.623 103.623 0 0 1 155.859 5.306 A 89.462 89.462 0 0 1 156.422 5.861 Q 158.264 7.699 158.35 8.04 A 6.071 6.071 0 0 1 158.547 8.878 Q 158.725 9.932 158.691 11.458 A 16.923 16.923 0 0 1 158.631 12.61 Q 158.5 14.074 158.105 14.827 A 2.174 2.174 0 0 1 157.775 15.33 Q 157.597 15.537 157.353 15.738 A 5.135 5.135 0 0 1 156.934 16.048 A 10.809 10.809 0 0 0 156.524 16.341 Q 155.96 16.768 155.77 17.06 A 0.971 0.971 0 0 0 155.762 17.074 A 4.445 4.445 0 0 0 156.039 17.516 Q 156.353 17.965 156.861 18.509 A 15.163 15.163 0 0 0 156.934 18.587 A 21.833 21.833 0 0 1 157.379 19.045 Q 157.97 19.672 158.193 20.036 A 2.001 2.001 0 0 1 158.203 20.052 A 6.071 6.071 0 0 0 158.127 20.627 Q 158.041 21.617 158.168 23.113 A 30.388 30.388 0 0 0 158.252 23.958 A 18.771 18.771 0 0 1 158.309 24.595 Q 158.44 26.408 158.105 27.327 Q 157.98 27.745 156.354 29.378 A 63.173 63.173 0 0 1 155.762 29.964 Q 153.516 32.161 153.174 32.308 A 4.427 4.427 0 0 1 152.395 32.548 Q 151.391 32.768 149.895 32.722 A 19.527 19.527 0 0 1 149.365 32.699 Q 149.121 32.699 147.168 32.552 Q 145.989 32.465 145.2 32.456 A 15.462 15.462 0 0 0 145.02 32.454 Z M 139.551 29.329 L 137.207 29.329 L 137.207 31.576 A 19.547 19.547 0 0 1 138.115 31.508 Q 140.014 31.407 143.038 31.54 A 114.846 114.846 0 0 1 144.678 31.624 A 164.021 164.021 0 0 0 146.353 31.729 Q 150.063 31.941 151.514 31.82 A 3.667 3.667 0 0 0 153.415 31.088 A 4.583 4.583 0 0 0 153.662 30.892 Q 153.924 30.63 154.303 30.212 A 37.391 37.391 0 0 0 154.395 30.111 A 31.175 31.175 0 0 0 154.63 29.873 Q 154.94 29.556 155.074 29.396 A 1.646 1.646 0 0 0 155.127 29.329 Q 157.236 27.268 157.369 26.995 A 0.146 0.146 0 0 0 157.373 26.986 A 2.997 2.997 0 0 0 157.493 26.509 Q 157.663 25.528 157.471 23.763 A 32.182 32.182 0 0 1 157.378 22.897 Q 157.229 21.291 157.347 20.456 A 3.353 3.353 0 0 1 157.373 20.296 A 2.757 2.757 0 0 0 157.182 20.023 Q 156.851 19.601 156.158 18.929 A 27.261 27.261 0 0 0 156.006 18.783 A 8.149 8.149 0 0 1 155.488 18.217 Q 155.241 17.919 155.067 17.637 A 3.245 3.245 0 0 1 154.785 17.074 Q 155.078 16.39 156.152 15.609 A 5.774 5.774 0 0 0 156.678 15.235 Q 157.201 14.813 157.407 14.391 A 1.443 1.443 0 0 0 157.471 14.242 Q 157.866 13.143 157.866 11.372 A 16.888 16.888 0 0 0 157.861 10.97 Q 157.861 9.303 157.57 8.343 A 3.866 3.866 0 0 0 157.52 8.187 A 0.671 0.671 0 0 0 157.418 8.025 Q 157.036 7.525 155.273 5.843 Q 153.361 3.979 152.806 3.706 A 0.834 0.834 0 0 0 152.783 3.695 Q 151.982 3.412 148.136 3.538 A 100.121 100.121 0 0 0 147.852 3.548 Q 145.215 3.695 137.305 3.695 Q 137.172 4.049 137.2 4.643 A 5.068 5.068 0 0 0 137.207 4.769 Q 137.286 5.401 137.301 5.778 A 4.103 4.103 0 0 1 137.305 5.941 L 137.988 5.941 L 138.672 5.941 Q 139.296 5.941 139.565 6.189 A 0.605 0.605 0 0 1 139.648 6.283 L 139.648 17.904 A 535.705 535.705 0 0 1 139.658 19.642 Q 139.673 23.982 139.609 27.16 A 158.129 158.129 0 0 1 139.551 29.329 Z M 12.402 28.744 L 12.402 32.552 A 31.496 31.496 0 0 1 11.438 32.616 Q 9.863 32.699 7.52 32.699 L 2.441 32.699 L 2.441 28.792 L 4.834 28.792 L 4.834 6.624 Q 4.614 6.448 3.837 6.431 A 7.892 7.892 0 0 0 3.662 6.429 Q 2.734 6.478 2.441 6.331 L 2.441 2.425 L 12.402 2.425 L 12.402 6.331 A 2.325 2.325 0 0 1 12.232 6.352 Q 11.95 6.378 11.44 6.38 A 23.327 23.327 0 0 1 11.328 6.38 A 50.245 50.245 0 0 0 10.938 6.405 Q 10.56 6.43 10.286 6.455 A 12.136 12.136 0 0 0 10.059 6.478 L 10.059 28.597 A 0.831 0.831 0 0 0 10.262 28.691 Q 10.571 28.792 11.133 28.792 A 204.752 204.752 0 0 1 11.505 28.776 Q 12.111 28.749 12.327 28.745 A 3.605 3.605 0 0 1 12.402 28.744 Z M 178.76 28.744 L 178.76 32.552 A 31.496 31.496 0 0 1 177.795 32.616 Q 176.221 32.699 173.877 32.699 L 168.799 32.699 L 168.799 28.792 L 171.191 28.792 L 171.191 6.624 Q 170.971 6.448 170.195 6.431 A 7.892 7.892 0 0 0 170.02 6.429 Q 169.092 6.478 168.799 6.331 L 168.799 2.425 L 178.76 2.425 L 178.76 6.331 A 2.325 2.325 0 0 1 178.589 6.352 Q 178.308 6.378 177.797 6.38 A 23.327 23.327 0 0 1 177.686 6.38 A 50.245 50.245 0 0 0 177.295 6.405 Q 176.917 6.43 176.643 6.455 A 12.136 12.136 0 0 0 176.416 6.478 L 176.416 28.597 A 0.831 0.831 0 0 0 176.619 28.691 Q 176.929 28.792 177.49 28.792 A 204.752 204.752 0 0 1 177.862 28.776 Q 178.468 28.749 178.684 28.745 A 3.605 3.605 0 0 1 178.76 28.744 Z M 231.055 28.744 L 231.055 32.552 A 31.496 31.496 0 0 1 230.09 32.616 Q 228.516 32.699 226.172 32.699 L 221.094 32.699 L 221.094 28.792 L 223.486 28.792 L 223.486 6.624 Q 223.266 6.448 222.49 6.431 A 7.892 7.892 0 0 0 222.314 6.429 Q 221.387 6.478 221.094 6.331 L 221.094 2.425 L 231.055 2.425 L 231.055 6.331 A 2.325 2.325 0 0 1 230.884 6.352 Q 230.603 6.378 230.092 6.38 A 23.327 23.327 0 0 1 229.98 6.38 A 50.245 50.245 0 0 0 229.59 6.405 Q 229.212 6.43 228.938 6.455 A 12.136 12.136 0 0 0 228.711 6.478 L 228.711 28.597 A 0.831 0.831 0 0 0 228.914 28.691 Q 229.224 28.792 229.785 28.792 A 204.752 204.752 0 0 1 230.157 28.776 Q 230.763 28.749 230.979 28.745 A 3.605 3.605 0 0 1 231.055 28.744 Z M 324.121 28.744 L 324.121 32.552 A 31.496 31.496 0 0 1 323.157 32.616 Q 321.582 32.699 319.238 32.699 L 314.16 32.699 L 314.16 28.792 L 316.553 28.792 L 316.553 6.624 Q 316.333 6.448 315.556 6.431 A 7.892 7.892 0 0 0 315.381 6.429 Q 314.453 6.478 314.16 6.331 L 314.16 2.425 L 324.121 2.425 L 324.121 6.331 A 2.325 2.325 0 0 1 323.951 6.352 Q 323.669 6.378 323.159 6.38 A 23.327 23.327 0 0 1 323.047 6.38 A 50.245 50.245 0 0 0 322.656 6.405 Q 322.279 6.43 322.005 6.455 A 12.136 12.136 0 0 0 321.777 6.478 L 321.777 28.597 A 0.831 0.831 0 0 0 321.981 28.691 Q 322.29 28.792 322.852 28.792 A 204.752 204.752 0 0 1 323.224 28.776 Q 323.83 28.749 324.045 28.745 A 3.605 3.605 0 0 1 324.121 28.744 Z M 115.625 32.552 L 110.205 32.552 Q 109.261 32.269 107.722 30.341 A 22.414 22.414 0 0 1 107.617 30.208 L 105.469 27.425 L 105.469 12.288 A 297.64 297.64 0 0 1 105.447 11.264 Q 105.383 7.894 105.469 7.552 Q 105.743 6.685 106.869 5.69 A 10.139 10.139 0 0 1 107.031 5.55 A 24.212 24.212 0 0 1 107.145 5.46 Q 107.44 5.227 108.154 4.671 A 22.065 22.065 0 0 0 108.475 4.415 Q 108.818 4.135 109.049 3.919 A 5.51 5.51 0 0 0 109.18 3.792 Q 110.4 2.718 110.449 2.669 Q 110.742 2.62 111.67 2.669 A 31.308 31.308 0 0 0 112.167 2.733 Q 112.839 2.814 113.169 2.816 A 2.736 2.736 0 0 0 113.184 2.816 A 3.478 3.478 0 0 0 113.31 2.812 Q 113.9 2.787 116.78 2.598 A 1331.206 1331.206 0 0 0 117.188 2.572 A 36.965 36.965 0 0 1 117.706 2.537 Q 119.756 2.417 120.558 2.626 A 1.776 1.776 0 0 1 120.703 2.669 A 0.481 0.481 0 0 1 120.763 2.717 Q 121.051 2.963 122.62 4.464 A 560.477 560.477 0 0 1 123.193 5.013 A 122.417 122.417 0 0 1 123.733 5.544 Q 125.5 7.296 125.586 7.552 L 125.586 22.933 A 324.133 324.133 0 0 1 125.584 23.958 Q 125.574 27.327 125.488 27.669 A 1.002 1.002 0 0 1 125.365 27.876 Q 125.024 28.348 123.824 29.573 A 83.436 83.436 0 0 1 123.242 30.16 A 242.836 242.836 0 0 1 122.713 30.675 Q 120.978 32.363 120.85 32.406 A 1.081 1.081 0 0 1 120.598 32.452 Q 119.728 32.546 116.132 32.552 A 302.005 302.005 0 0 1 115.625 32.552 Z M 106.348 12.386 L 106.348 27.035 Q 106.445 27.523 108.057 29.525 A 20.101 20.101 0 0 0 108.684 30.278 Q 109.606 31.329 110.189 31.608 A 1.221 1.221 0 0 0 110.352 31.673 L 120.459 31.673 Q 121.045 31.478 121.631 30.697 A 79.549 79.549 0 0 1 121.902 30.31 Q 122.44 29.546 122.559 29.427 A 19.839 19.839 0 0 1 122.799 29.23 Q 122.908 29.143 123.031 29.045 A 41.435 41.435 0 0 1 123.291 28.841 Q 123.828 28.402 123.877 28.353 A 3.19 3.19 0 0 0 124.317 27.905 Q 124.565 27.593 124.684 27.252 A 1.976 1.976 0 0 0 124.707 27.181 A 0.709 0.709 0 0 0 124.728 27.045 Q 124.793 26.346 124.707 22.542 A 297.485 297.485 0 0 1 124.67 19.939 Q 124.646 17.394 124.67 15.081 A 193.454 193.454 0 0 1 124.707 12.826 A 772.53 772.53 0 0 1 124.73 11.704 Q 124.81 8.04 124.853 8.04 A 0.001 0.001 0 0 1 124.854 8.04 A 1.625 1.625 0 0 0 124.661 7.594 Q 124.434 7.219 123.982 6.826 A 5.413 5.413 0 0 0 123.975 6.82 Q 123.833 6.631 123.373 6.26 A 12.433 12.433 0 0 0 123.34 6.234 A 24.444 24.444 0 0 1 123.157 6.072 Q 122.96 5.897 122.829 5.77 A 5.513 5.513 0 0 1 122.754 5.697 Q 120.795 3.785 120.238 3.557 A 0.633 0.633 0 0 0 120.215 3.548 A 3.013 3.013 0 0 0 119.8 3.454 Q 118.756 3.283 116.455 3.402 A 5.489 5.489 0 0 1 116.202 3.423 Q 115.913 3.442 115.487 3.448 A 31.617 31.617 0 0 1 115.039 3.451 Q 114.005 3.498 113.514 3.545 A 8.821 8.821 0 0 0 113.477 3.548 L 112.012 3.548 Q 111.153 3.5 110.854 3.546 A 0.977 0.977 0 0 0 110.84 3.548 A 0.558 0.558 0 0 0 110.673 3.627 Q 110.156 3.946 108.375 5.528 A 108.31 108.31 0 0 0 108.35 5.55 A 26.371 26.371 0 0 0 107.696 6.138 Q 106.409 7.338 106.25 7.894 Q 106.157 8.128 106.331 12.029 A 313.1 313.1 0 0 0 106.348 12.386 Z M 11.523 5.55 L 11.523 3.304 L 3.467 3.304 Q 3.309 3.541 3.279 4.064 A 4.598 4.598 0 0 0 3.271 4.329 A 178.618 178.618 0 0 1 3.288 4.685 Q 3.315 5.266 3.319 5.476 A 3.439 3.439 0 0 1 3.32 5.55 A 20.745 20.745 0 0 1 4 5.56 Q 5.356 5.605 5.713 5.843 L 5.713 29.622 A 4.381 4.381 0 0 0 5.322 29.573 Q 4.547 29.507 3.32 29.622 L 3.32 31.771 L 11.523 31.771 L 11.523 29.525 Q 9.912 29.964 9.131 29.281 L 9.131 5.452 A 0.04 0.04 0 0 1 9.119 5.445 Q 9.046 5.363 11.523 5.55 Z M 177.881 5.55 L 177.881 3.304 L 169.824 3.304 Q 169.666 3.541 169.636 4.064 A 4.598 4.598 0 0 0 169.629 4.329 A 178.618 178.618 0 0 1 169.646 4.685 Q 169.672 5.266 169.677 5.476 A 3.439 3.439 0 0 1 169.678 5.55 A 20.745 20.745 0 0 1 170.357 5.56 Q 171.713 5.605 172.07 5.843 L 172.07 29.622 A 4.381 4.381 0 0 0 171.68 29.573 Q 170.905 29.507 169.678 29.622 L 169.678 31.771 L 177.881 31.771 L 177.881 29.525 Q 176.27 29.964 175.488 29.281 L 175.488 5.452 A 0.04 0.04 0 0 1 175.477 5.445 Q 175.404 5.363 177.881 5.55 Z M 230.176 5.55 L 230.176 3.304 L 222.119 3.304 Q 221.961 3.541 221.931 4.064 A 4.598 4.598 0 0 0 221.924 4.329 A 178.618 178.618 0 0 1 221.94 4.685 Q 221.967 5.266 221.972 5.476 A 3.439 3.439 0 0 1 221.973 5.55 A 20.745 20.745 0 0 1 222.652 5.56 Q 224.008 5.605 224.365 5.843 L 224.365 29.622 A 4.381 4.381 0 0 0 223.975 29.573 Q 223.199 29.507 221.973 29.622 L 221.973 31.771 L 230.176 31.771 L 230.176 29.525 Q 228.564 29.964 227.783 29.281 L 227.783 5.452 A 0.04 0.04 0 0 1 227.772 5.445 Q 227.699 5.363 230.176 5.55 Z M 323.242 5.55 L 323.242 3.304 L 315.186 3.304 Q 315.028 3.541 314.997 4.064 A 4.598 4.598 0 0 0 314.99 4.329 A 178.618 178.618 0 0 1 315.007 4.685 Q 315.033 5.266 315.038 5.476 A 3.439 3.439 0 0 1 315.039 5.55 A 20.745 20.745 0 0 1 315.718 5.56 Q 317.075 5.605 317.432 5.843 L 317.432 29.622 A 4.381 4.381 0 0 0 317.041 29.573 Q 316.266 29.507 315.039 29.622 L 315.039 31.771 L 323.242 31.771 L 323.242 29.525 Q 321.631 29.964 320.85 29.281 L 320.85 5.452 A 0.04 0.04 0 0 1 320.838 5.445 Q 320.765 5.363 323.242 5.55 Z M 121.436 8.431 L 121.436 17.66 Q 121.436 18.074 121.566 21.011 A 1007.82 1007.82 0 0 0 121.582 21.37 Q 121.623 23.266 121.56 24.5 A 19.063 19.063 0 0 1 121.533 24.935 A 9.679 9.679 0 0 1 121.258 26.571 Q 121.033 27.413 120.657 28.027 A 3.291 3.291 0 0 1 118.75 29.525 A 4.861 4.861 0 0 1 118.138 29.66 Q 117.164 29.818 115.479 29.818 Q 113.517 29.858 112.507 29.668 A 3.897 3.897 0 0 1 112.109 29.574 A 1.885 1.885 0 0 1 111.784 29.414 Q 111.452 29.213 111.035 28.83 A 9.747 9.747 0 0 1 110.742 28.548 Q 109.814 27.62 109.619 26.937 A 1.072 1.072 0 0 1 109.583 26.742 Q 109.486 25.927 109.57 22.445 L 109.57 8.577 A 1.883 1.883 0 0 1 109.734 8.146 Q 109.943 7.739 110.374 7.253 A 8.123 8.123 0 0 1 110.547 7.064 Q 111.281 6.289 111.845 6.025 A 1.666 1.666 0 0 1 112.061 5.941 A 1.933 1.933 0 0 1 112.32 5.877 Q 112.769 5.794 113.574 5.794 L 115.088 5.794 A 17.458 17.458 0 0 1 115.821 5.756 Q 118.274 5.683 119.691 6.399 A 3.286 3.286 0 0 1 121.436 8.431 Z M 120.557 26.449 L 120.557 13.07 Q 120.649 9.162 120.611 8.717 A 0.407 0.407 0 0 0 120.605 8.675 Q 119.873 6.331 116.113 6.527 Q 113.218 6.669 112.584 6.811 A 1.472 1.472 0 0 0 112.549 6.82 A 3.506 3.506 0 0 0 111.655 7.175 A 2.371 2.371 0 0 0 110.498 8.773 L 110.498 22.298 Q 110.312 26.153 110.347 26.518 A 0.207 0.207 0 0 0 110.352 26.546 Q 110.654 27.582 111.871 28.236 A 5.434 5.434 0 0 0 112.207 28.402 A 7.2 7.2 0 0 0 114.221 28.96 A 9.23 9.23 0 0 0 115.43 29.036 A 9.251 9.251 0 0 0 117.073 28.897 A 7.006 7.006 0 0 0 118.701 28.402 A 4.311 4.311 0 0 0 119.551 27.904 Q 120.119 27.469 120.395 26.888 A 2.586 2.586 0 0 0 120.557 26.449 Z M 118.213 9.408 L 118.213 22.152 A 8.166 8.166 0 0 0 118.216 22.365 Q 118.222 22.605 118.242 22.922 A 28.865 28.865 0 0 0 118.262 23.226 A 92.549 92.549 0 0 1 118.278 23.533 Q 118.309 24.128 118.311 24.334 A 2.727 2.727 0 0 1 118.311 24.349 A 9.648 9.648 0 0 1 118.327 24.626 Q 118.367 25.514 118.2 25.908 A 0.718 0.718 0 0 1 118.115 26.058 Q 117.628 26.633 115.939 26.567 A 10.759 10.759 0 0 1 115.576 26.546 A 12.662 12.662 0 0 1 112.842 26.058 A 3137.203 3137.203 0 0 1 112.845 21.229 Q 112.857 13.31 112.913 10.352 A 69.481 69.481 0 0 1 112.939 9.31 A 14.908 14.908 0 0 1 113.103 9.284 Q 113.456 9.229 114.256 9.115 A 28.02 28.02 0 0 1 114.258 9.115 A 28.902 28.902 0 0 1 114.679 9.047 Q 115.283 8.956 115.723 8.919 A 8.603 8.603 0 0 1 116.091 8.897 Q 117.546 8.842 118.167 9.367 A 1.323 1.323 0 0 1 118.213 9.408 Z M 149.48 29.534 A 10.286 10.286 0 0 0 149.756 29.525 Q 150.779 29.468 151.579 29.208 A 3.779 3.779 0 0 0 154.15 26.742 A 8.213 8.213 0 0 0 154.616 24.039 Q 154.616 22.832 154.248 21.615 Q 153.418 19.027 151.66 18.441 A 3.744 3.744 0 0 0 151.369 18.354 Q 150.246 18.066 148.407 18.265 A 19.545 19.545 0 0 0 147.461 18.392 A 29.759 29.759 0 0 1 146.51 18.502 Q 144.785 18.672 143.666 18.548 A 5.53 5.53 0 0 1 143.018 18.441 A 2.074 2.074 0 0 0 143.017 18.466 Q 143.01 18.909 142.905 26.777 A 150762.844 150762.844 0 0 0 142.871 29.329 A 41.398 41.398 0 0 1 143.505 29.335 Q 144.641 29.352 146.436 29.427 Q 148.444 29.555 149.48 29.534 Z M 289.941 16.585 A 33.109 33.109 0 0 0 288.762 16.46 Q 286.757 16.286 285.574 16.475 A 5.126 5.126 0 0 0 285.254 16.536 A 105.882 105.882 0 0 1 285.094 10.716 A 107.297 107.297 0 0 1 285.205 5.843 A 6.418 6.418 0 0 0 285.489 5.86 Q 286.721 5.907 289.697 5.664 A 124.139 124.139 0 0 0 289.893 5.648 A 24.848 24.848 0 0 1 290.685 5.581 Q 293.008 5.423 294.141 5.843 Q 294.922 6.136 295.557 6.917 L 296.68 8.236 A 135.14 135.14 0 0 1 296.687 8.952 Q 296.709 12.128 296.55 13.164 A 3.723 3.723 0 0 1 296.533 13.265 A 5.37 5.37 0 0 1 296.115 14.603 A 3.569 3.569 0 0 1 294.189 16.439 A 3.647 3.647 0 0 1 293.511 16.634 Q 292.209 16.888 289.941 16.585 Z M 148.738 5.774 A 20.852 20.852 0 0 0 147.998 5.843 A 63.253 63.253 0 0 1 147.054 5.926 Q 144.723 6.111 143.567 6.003 A 4.766 4.766 0 0 1 143.115 5.941 A 15.016 15.016 0 0 0 143.051 6.535 Q 142.798 9.374 143.018 16.341 Q 144.385 16.195 146.533 16.292 Q 148.715 16.372 149.511 16.387 A 16.503 16.503 0 0 0 149.805 16.39 Q 153.271 16.292 154.15 13.851 A 0.875 0.875 0 0 0 154.172 13.711 Q 154.226 13.163 154.172 10.935 A 177.51 177.51 0 0 0 154.15 10.14 A 2.312 2.312 0 0 1 154.154 10.017 Q 154.169 9.735 154.248 9.261 A 7.247 7.247 0 0 0 154.253 9.215 Q 154.295 8.766 154.248 8.626 Q 154.15 8.04 153.467 7.21 Q 153.05 6.73 152.676 6.438 A 2.839 2.839 0 0 0 152.295 6.185 Q 151.227 5.587 148.738 5.774 Z M 252.319 9.93 A 58.592 58.592 0 0 0 251.465 12.533 Q 249.561 18.734 249.17 19.808 A 9.835 9.835 0 0 1 249.485 19.78 Q 250.691 19.69 253.223 19.735 A 134.159 134.159 0 0 1 254.297 19.759 A 53.405 53.405 0 0 0 255.025 19.775 Q 257.082 19.807 258.446 19.655 A 10.924 10.924 0 0 0 259.375 19.515 A 13.134 13.134 0 0 1 259.338 19.419 Q 258.737 17.829 257.08 12.337 A 9.538 9.538 0 0 0 257.034 12.144 Q 256.911 11.639 256.592 10.482 Q 256.39 9.676 256.212 9.101 A 11.929 11.929 0 0 0 256.055 8.626 Q 255.371 6.527 254.199 5.648 A 15.656 15.656 0 0 0 254.001 6.006 Q 253.16 7.571 252.319 9.93 Z M 345.386 9.93 A 58.592 58.592 0 0 0 344.531 12.533 Q 342.627 18.734 342.236 19.808 A 9.835 9.835 0 0 1 342.551 19.78 Q 343.757 19.69 346.289 19.735 A 134.159 134.159 0 0 1 347.363 19.759 A 53.405 53.405 0 0 0 348.091 19.775 Q 350.148 19.807 351.513 19.655 A 10.924 10.924 0 0 0 352.441 19.515 A 13.134 13.134 0 0 1 352.405 19.419 Q 351.804 17.829 350.146 12.337 A 9.538 9.538 0 0 0 350.101 12.144 Q 349.977 11.639 349.658 10.482 Q 349.457 9.676 349.278 9.101 A 11.929 11.929 0 0 0 349.121 8.626 Q 348.438 6.527 347.266 5.648 A 15.656 15.656 0 0 0 347.067 6.006 Q 346.227 7.571 345.386 9.93 Z M 146.857 19.251 A 45.168 45.168 0 0 0 148.047 19.124 Q 149.728 18.874 150.833 19.095 A 3.531 3.531 0 0 1 151.563 19.32 Q 152.686 19.808 153.271 21.175 A 6.388 6.388 0 0 1 153.59 22.319 Q 153.715 23.003 153.715 23.766 A 9.58 9.58 0 0 1 153.711 24.056 Q 153.613 25.619 153.027 26.888 Q 152.71 27.547 152.307 27.974 A 2.499 2.499 0 0 1 151.416 28.597 A 3.454 3.454 0 0 1 151.118 28.696 Q 150.13 28.976 148.579 28.84 A 15.32 15.32 0 0 1 147.754 28.744 A 42.461 42.461 0 0 0 147.09 28.644 Q 144.82 28.322 143.75 28.451 Q 143.75 27.736 143.686 25.12 A 989.755 989.755 0 0 0 143.652 23.812 A 145.1 145.1 0 0 1 143.652 23.748 Q 143.654 21.105 143.75 19.32 A 7.896 7.896 0 0 0 144.208 19.353 Q 145.24 19.399 146.857 19.251 Z M 285.986 15.56 Q 287.305 15.413 289.844 15.755 Q 292.188 16.048 293.408 15.804 A 2.786 2.786 0 0 0 295.382 14.21 A 4.394 4.394 0 0 0 295.703 13.216 Q 295.996 11.947 295.85 8.529 A 2.699 2.699 0 0 0 294.548 7.129 Q 293.586 6.614 292.01 6.492 A 11.79 11.79 0 0 0 291.797 6.478 A 6.558 6.558 0 0 0 291.631 6.482 Q 290.771 6.508 285.986 6.722 Q 285.858 10.909 285.954 14.535 A 106.512 106.512 0 0 0 285.986 15.56 Z M 153.371 10.86 A 6.596 6.596 0 0 0 153.369 11.019 Q 153.564 13.216 153.516 13.363 A 2.541 2.541 0 0 1 152.273 15.102 Q 151.773 15.392 151.084 15.531 A 7.029 7.029 0 0 1 149.805 15.658 A 9.34 9.34 0 0 1 149.658 15.656 Q 149.001 15.646 147.772 15.548 A 92.647 92.647 0 0 1 146.777 15.462 Q 145.276 15.352 144.324 15.325 A 20.069 20.069 0 0 0 143.75 15.316 A 523.536 523.536 0 0 1 143.745 14.396 Q 143.713 7.689 143.896 6.82 Q 144.965 6.934 146.957 6.751 A 45.745 45.745 0 0 0 148.145 6.624 Q 150.586 6.331 151.66 6.82 A 1.082 1.082 0 0 1 151.844 6.912 Q 152.181 7.119 152.637 7.65 A 9.955 9.955 0 0 1 152.68 7.696 Q 153.149 8.206 153.327 8.545 A 1.053 1.053 0 0 1 153.418 8.773 Q 153.467 9.066 153.418 9.798 A 92.18 92.18 0 0 0 153.402 10.117 Q 153.378 10.602 153.371 10.86 Z M 250.293 18.88 L 258.105 18.88 A 5753.985 5753.985 0 0 0 257.267 16.183 Q 254.817 8.311 254.414 7.111 A 4.635 4.635 0 0 0 254.346 6.917 A 50.21 50.21 0 0 0 253.925 8.04 Q 253.459 9.324 252.863 11.128 A 219.235 219.235 0 0 0 252.295 12.874 Q 251.081 16.741 250.405 18.579 A 34.17 34.17 0 0 1 250.293 18.88 Z M 343.359 18.88 L 351.172 18.88 A 5753.985 5753.985 0 0 0 350.333 16.183 Q 347.884 8.311 347.48 7.111 A 4.635 4.635 0 0 0 347.412 6.917 A 50.21 50.21 0 0 0 346.991 8.04 Q 346.525 9.324 345.93 11.128 A 219.235 219.235 0 0 0 345.361 12.874 Q 344.147 16.741 343.471 18.579 A 34.17 34.17 0 0 1 343.359 18.88 Z M 146.094 26.156 L 146.094 21.81 Q 146.484 21.761 147.461 21.615 Q 148.389 21.517 148.926 21.468 Q 150.586 21.37 151.172 22.152 L 151.172 23.372 L 151.172 24.642 A 4.293 4.293 0 0 1 151.115 25.222 Q 151.004 25.861 150.689 26.172 A 0.974 0.974 0 0 1 150.439 26.351 A 12.321 12.321 0 0 1 150.2 26.357 Q 149.117 26.375 147.196 26.24 A 94.454 94.454 0 0 1 146.094 26.156 Z M 288.379 13.167 L 288.379 9.017 A 333.37 333.37 0 0 0 289.505 9.069 Q 293.466 9.244 293.164 9.115 A 9.662 9.662 0 0 1 293.312 10.045 Q 293.435 11.13 293.411 12.614 A 32.017 32.017 0 0 1 293.408 12.777 Q 292.895 13.477 291.311 13.418 A 7.337 7.337 0 0 1 291.162 13.411 A 2 2 0 0 1 291.038 13.406 Q 290.698 13.384 289.746 13.265 Q 289.022 13.184 288.563 13.17 A 5.983 5.983 0 0 0 288.379 13.167 Z M 146.094 13.021 L 146.094 9.31 A 11.888 11.888 0 0 1 147.069 9.168 Q 148.473 9.017 150.684 9.017 A 2.691 2.691 0 0 1 150.811 9.421 Q 150.942 9.965 150.977 10.824 A 51.211 51.211 0 0 0 151.013 11.367 Q 151.091 12.432 151.169 12.718 A 0.804 0.804 0 0 0 151.172 12.728 Q 150.537 13.363 148.877 13.265 A 2863.255 2863.255 0 0 0 148.235 13.208 Q 146.449 13.049 146.152 13.025 A 1.601 1.601 0 0 0 146.094 13.021 Z M 255.322 17.025 L 253.223 17.025 A 1739.009 1739.009 0 0 0 253.257 16.566 Q 253.369 15.066 253.369 15.023 Q 253.641 14.118 254.668 14.219 A 2.531 2.531 0 0 1 254.834 14.242 Q 255.469 15.706 255.322 17.025 Z M 348.389 17.025 L 346.289 17.025 A 1739.009 1739.009 0 0 0 346.323 16.566 Q 346.436 15.066 346.436 15.023 Q 346.707 14.118 347.734 14.219 A 2.531 2.531 0 0 1 347.9 14.242 Q 348.535 15.706 348.389 17.025 Z" vector-effect="non-scaling-stroke"/></g></svg>