<svg version="1.0" xmlns="http://www.w3.org/2000/svg" width="42.667" height="42.667" viewBox="0 0 32 32"><path d="M1.6 1.8C.1 3.6.1 3.8 2.2 5.6c1.9 1.7 2.1 1.7 1.5.1C3.1 4.1 4.1 4 16 4s12.9.1 12.3 1.7c-.6 1.6-.4 1.6 1.5-.1 2.1-1.8 2.1-2 .6-3.8-2.1-2.2-2.8-2.3-2-.3C28.9 2.8 27.1 3 16 3S3.1 2.8 3.6 1.5c.8-2 .1-1.9-2 .3zm2.7 11.8c-2.6 2.5-4 4.3-3 4 1.5-.5 1.7.2 1.7 5.9 0 5-.4 6.6-1.7 7.4-1.3.8 1.3 1 9.2 1 6.1-.1 10.2-.3 9.3-.6-1.5-.4-1.8-1.6-1.8-7.3 0-6.1.2-6.9 1.8-6.4.9.3-.5-1.5-3.3-4C13.8 11.1 11 9 10.4 9c-.7 0-3.4 2.1-6.1 4.6zm12.5 9.2c-.3 8.5-2.5 11.3-3 4-.3-4-.5-4.3-3.5-4.6C7 21.9 7 21.9 7 26.5c0 3.3-.4 4.5-1.2 4.3-.9-.3-1.4-3.1-1.6-7.9-.3-7.3-.3-7.5 2.9-10.1l3.2-2.7 3.4 2.6c3.4 2.6 3.4 2.6 3.1 10.1zm-4 4.4c-.2 2.5-.8 3.3-2.3 3.3-1.5 0-2.1-.8-2.3-3.3-.3-2.9-.1-3.2 2.3-3.2s2.6.3 2.3 3.2z"/><path d="M8.8 17.7c1.2.2 3 .2 4 0 .9-.3-.1-.5-2.3-.4-2.2 0-3 .2-1.7.4zm17.6-4.5c-1.7 1.9-1.7 2.1-.1 1.5 1.5-.6 1.7.1 1.7 6.8s-.2 7.4-1.7 6.8c-1.6-.6-1.6-.4.1 1.5 1.8 2.1 2 2.1 3.8.6 2.2-2.1 2.3-2.8.3-2-1.3.4-1.5-.7-1.5-6.9 0-6.7.2-7.4 1.8-6.8 1.5.6 1.5.4-.2-1.5-1.1-1.2-2-2.2-2.1-2.2-.1 0-1 1-2.1 2.2z"/></svg>