<?xml version="1.0" standalone="no"?>
<!DOCTYPE svg PUBLIC "-//W3C//DTD SVG 20010904//EN"
 "http://www.w3.org/TR/2001/REC-SVG-20010904/DTD/svg10.dtd">
<svg version="1.0" xmlns="http://www.w3.org/2000/svg"
 width="32.000000pt" height="32.000000pt" viewBox="0 0 32.000000 32.000000"
 preserveAspectRatio="xMidYMid meet">

<g transform="translate(0.000000,32.000000) scale(0.100000,-0.100000)"
fill="#000000" stroke="none">
<path d="M16 302 c-15 -18 -15 -20 6 -38 19 -17 21 -17 15 -1 -6 16 4 17 123
17 119 0 129 -1 123 -17 -6 -16 -4 -16 15 1 21 18 21 20 6 38 -21 22 -28 23
-20 3 5 -13 -13 -15 -124 -15 -111 0 -129 2 -124 15 8 20 1 19 -20 -3z"/>
<path d="M43 184 c-26 -25 -40 -43 -30 -40 15 5 17 -2 17 -59 0 -50 -4 -66
-17 -74 -13 -8 13 -10 92 -10 61 1 102 3 93 6 -15 4 -18 16 -18 73 0 61 2 69
18 64 9 -3 -5 15 -33 40 -27 25 -55 46 -61 46 -7 0 -34 -21 -61 -46z m125 -92
c-3 -85 -25 -113 -30 -40 -3 40 -5 43 -35 46 -33 3 -33 3 -33 -43 0 -33 -4
-45 -12 -43 -9 3 -14 31 -16 79 -3 73 -3 75 29 101 l32 27 34 -26 c34 -26 34
-26 31 -101z m-40 -44 c-2 -25 -8 -33 -23 -33 -15 0 -21 8 -23 33 -3 29 -1 32
23 32 24 0 26 -3 23 -32z"/>
<path d="M88 143 c12 -2 30 -2 40 0 9 3 -1 5 -23 4 -22 0 -30 -2 -17 -4z"/>
<path d="M264 188 c-17 -19 -17 -21 -1 -15 15 6 17 -1 17 -68 0 -67 -2 -74
-17 -68 -16 6 -16 4 1 -15 18 -21 20 -21 38 -6 22 21 23 28 3 20 -13 -4 -15 7
-15 69 0 67 2 74 18 68 15 -6 15 -4 -2 15 -11 12 -20 22 -21 22 -1 0 -10 -10
-21 -22z"/>
</g>
</svg>
