<?xml version="1.0" standalone="no"?>
<!DOCTYPE svg PUBLIC "-//W3C//DTD SVG 20010904//EN"
 "http://www.w3.org/TR/2001/REC-SVG-20010904/DTD/svg10.dtd">
<svg version="1.0" xmlns="http://www.w3.org/2000/svg"
 width="64.000000pt" height="64.000000pt" viewBox="0 0 64.000000 64.000000"
 preserveAspectRatio="xMidYMid meet">
<metadata>
Created by potrace 1.16, written by Peter Selinger 2001-2019
</metadata>
<g transform="translate(0.000000,64.000000) scale(0.100000,-0.100000)"
fill="#000000" stroke="none">
<path d="M194 596 c-138 -64 -206 -223 -157 -369 20 -57 20 -58 1 -128 -11
-39 -17 -73 -14 -76 3 -3 37 2 76 12 67 16 73 16 135 0 116 -32 232 0 308 84
56 62 70 97 75 189 4 77 2 87 -27 147 -56 114 -142 165 -275 165 -54 0 -84 -6
-122 -24z m257 -71 c125 -82 147 -258 46 -363 -68 -71 -166 -98 -247 -67 -50
20 -83 23 -121 12 l-27 -7 11 41 c8 33 7 47 -7 77 -69 144 19 313 177 341 56
10 123 -4 168 -34z"/>
<path d="M181 441 c-38 -71 40 -203 146 -248 48 -20 109 -17 133 7 30 30 25
54 -15 73 -46 22 -57 21 -73 -4 -13 -20 -14 -20 -40 -4 -15 9 -39 31 -54 48
-26 29 -26 32 -12 49 15 16 15 21 1 55 -12 31 -20 39 -45 41 -22 2 -34 -2 -41
-17z"/>
</g>
</svg>
