<svg version="1.0" xmlns="http://www.w3.org/2000/svg" width="85.333" height="85.333" viewBox="0 0 64 64"><path d="M19.4 4.4C5.6 10.8-1.2 26.7 3.7 41.3c2 5.7 2 5.8.1 12.8-1.1 3.9-1.7 7.3-1.4 7.6.3.3 3.7-.2 7.6-1.2 6.7-1.6 7.3-1.6 13.5 0 11.6 3.2 23.2 0 30.8-8.4 5.6-6.2 7-9.7 7.5-18.9.4-7.7.2-8.7-2.7-14.7C53.5 7.1 44.9 2 31.6 2c-5.4 0-8.4.6-12.2 2.4zm25.7 7.1c12.5 8.2 14.7 25.8 4.6 36.3-6.8 7.1-16.6 9.8-24.7 6.7-5-2-8.3-2.3-12.1-1.2l-2.7.7 1.1-4.1c.8-3.3.7-4.7-.7-7.7-6.9-14.4 1.9-31.3 17.7-34.1 5.6-1 12.3.4 16.8 3.4z"/><path d="M18.1 19.9c-3.8 7.1 4 20.3 14.6 24.8 4.8 2 10.9 1.7 13.3-.7 3-3 2.5-5.4-1.5-7.3-4.6-2.2-5.7-2.1-7.3.4-1.3 2-1.4 2-4 .4-1.5-.9-3.9-3.1-5.4-4.8-2.6-2.9-2.6-3.2-1.2-4.9 1.5-1.6 1.5-2.1.1-5.5-1.2-3.1-2-3.9-4.5-4.1-2.2-.2-3.4.2-4.1 1.7z"/></svg>